<svg width="1526" height="321" viewBox="0 0 1526 321" xmlns="http://www.w3.org/2000/svg" xmlns:xlink="http://www.w3.org/1999/xlink">
  <title>
    Gallery Paintbrush
  </title>
  <defs>
    <path id="path-1" d="M0 0h1542v381H0z"/>
  </defs>
  <g id="Page-1" fill="none" fill-rule="evenodd">
    <g id="Group-5" transform="translate(-3 -60)">
      <mask id="mask-2" fill="#fff">
        <use xlink:href="#path-1"/>
      </mask>
      <path d="M1511.338 637.822c-.195.37-.4.824-.615 1.42l-.597 3.396c-.104 3.39 1.615 1.869-.284 5.338-3.755.443-7.293 2.195-13.473 2.172-1.469 3.015-4.114-.488-5.741 1.566-1.51-.578-2.383 2.251-6.985 1.117-3.355 2.364-3.547 1.993-7.499 1.056-2.157 3.35-7.043 4.765-11.779 3.272-2.5-.702-4.86-.718-6.801 1.37-2.959 5.736-4.119 6.118-8.642 1.122.03 3.868.589 8.325.18 10.093 2.512.994 4.999 2.049 9.889 3.845-.1 1.06-.163 2.066 1.456 3.879.497 5.854 4.319-.37 4.173 8.06 1.564-9.682 3.914.955 6.342-3.89 4.69 1.37 7.294 6.635 12.81 6.472-.505 1.303-1.01 2.65-1.285 5.024 3.446.629 7.106.848 6.705 8.628.651 2.301-.025 7.084 1.653 7.465-1.745 3.817-3.668 6.893-6.543 5.602-2.762-1.448-4.782-4.277-7.765-5.31-.98-.376-2.516.287-4.206-2.733-2.17.527-2.783-1.847-5.045-1.151l-5.675-1.297c-.158 2.043.964 1.718 1.457 3.879-1.52 4.816-1.795-3.548-3.568-2.576-2.98.084-6.73-3.33-9.05-.304-1.044 4.58 3.129-.55-1.069 3.307.196-1.679-.605-1.51-4.197-2.728-1.632 3.912-3.36 3.755-3.614 2.739-.901-5.574-4.302.37-6.355-1.432-3.046-1.92-4.798 1.926-7.848 0 .367-2.84 1.894-.566 2.34-3.02-5.75-1.414-10.715.652-18.655 2.891.71 6.41 5.992-3.446 6.776 3.3-3.213.899-6.572 1.168-9.534 3.167-2.212-1.74-3.092 2.335-5.3.584.56-3.75 2.066-3.346 3.61-2.74.137-2.02-.776-2.099-1.694-2.144-6.797.202-12.748 4.03-19.461 4.507-.551 3.8-2.78.146-8.028 1.763-1.327 3.037-4.173-.718-6.76 2.043-1.552.214-2.72 2.195-6.76 2.038-.997 3.598-3.964-1.55-4.86 2.464-2.1 2.206-4.74 2.066-7.39 1.892-4.903-2.161-7.595 5.433-12.243 4.39-2.07 2.38-4.615 2.632-7.385 1.913-3.472-2.026-5.88.607-9.076-.224-2.679 2.324-6.217.864-13.928 2.245-4.757 2.863-10.415 1.802-15.818 1.864-1.553.224-2.704 2.2-7.382 1.92-2.082-1.219-3.626-.09-6.538.347-1.932 2.953-5.354-.628-7.382 1.948 0 0-4.998.91-6.53.337 0 0-4.736.348-5.27.623-1.143 3.767-4.06-.208-8.44-.056-2.346 3.738-5.888 2.301-10.533 1.274-1.936 2.919-4.569 2.807-7.377 1.937.288-4.861 3.288 2.1 1.678-3.172-2.967-1.605-5.304-.387-6.948 3.817-2.199.011-3.964 1.954-6.53.348-.788 3.52-4.352 1.28-8.02-3.491-1.635.713-4.335-3.172-5.274.623-5.712-.432-9.826 6.085-15.998 3.648-2.403-1.728-3.813.893-10.531 1.292 0 0-3.81 2.632-4.202 2.638-.985 1.824-2.474 1.476-7.365 1.964-6.309-.381-12.088 1.527-18.33 1.41-1.147-.601-6.38-.17-4.018-4.401l-5.27.668c.48.87.96 1.74.86 3.71-2.275-2.93-2.433 3.328-4.202 2.655-.067-3.85-1.857-4.34-5.079-6.405-.083 2.391 1.42 1.768 2.325 2.268-2.7 2.178-5.909 2.195-10.32-.421 2.3-.455 5.696 3.834 5.463-2.38-2.775.123-6.318-3.06-13.056.769-.288 1.37-.835 1.583-1.235 5.046-1.069 1.944-7.39 2.996-7.996-3.097l.013-.004c.146 1.335.18 2.61-1.076 2.955.424-4.318-3.3-.692-4.792-3.106a7.155 7.155 0 0 1-.337-.12c-.033 1.267-.767 1.927-3.128 1.485-.294 2.275-4.33 2.26-6.834 1.646.501.632 1.436.44 1.204 2.475-3.192-.791-5.583 1.87-9.054-.146-1.164-.022-1.085-2.396-2.333-2.262-1.427.758-3.901-3.014-4.823 2.532-2.341-1.448-3.447 2.42-5.892.51-5.729 1.668-8.875-5.41-12.422.938-.405-1.46-1.214-2.15-2.328-2.257-.125 6.366-2.77 1.887-7.36 1.999-3.831-1.87-6.147 1.729-13.482-1.072-7.816-3.424-12.973 4.58-20.838.96-1.62 3.884-5.062-.068-9.485-1.982 0 0-8.704-.348-9.68-.258.154 3.738 1.252 5.658 3.192 5.978-1.865 9.677-5.216 1.953-3.822-6.107-3.889-1.033-6.923 2.919-9.689-.258 0 0-9.021-6.54-10.319-.377-4.523 2.813-1.87 4.182 3.626 7.83 2.942.349 3.009-1.582 5.262-.673l5.691 1.19.392-3.452c1.536-.252 2.404.78.242 3.587.46 2.273.142 3.66-1.669 3.194-.07 2.38 1.42 1.763 2.333 2.262 3.492.343 7.465 2.762 10.323.376.033-1.426-.438-1.858-.242-3.592-2.654-4.839 5.575-4.485 8.19-3.593 2.68-3.985 7.762 2.33 10.52-1.347 1.744 2.919 5.111 2.74 8.02 3.441 0 0 4.99-.954 6.521-.393 2.137-4.625 6.034-.954 8.216 1.718 0 0 4.286-.55 5.262-.663.121-6.365 2.77-1.874 4.198-2.66 3.204-1.656 1.452 6.185.663 5.45 1.056 3.53 6.463 3.778 8.22 1.723 4.331 2.263 7.473-.628 11.583.668.171-3.918-3.033-1.358-8.654-3.586 1.023-5.204 6.076-6.523 7.36-1.999 1.52-1.521 4.077-5.439 5.262-.65 2.1 2.997 1.765-4.503 3.564-2.79.705.443.163 3.26.025 5.31.743-1.146 1.323-2.93 2.5-4.777 3.354 2.436 6.35 3.39 1.293 5.58l3.592 2.525c-.83 2.459-2.324 2.071-4.831 2.526-2.429 2.262-2.6 3.755-.372 8.785 2.658 1.93 4.064-1.516 9.059.129.13-2.043-.985-1.707-1.698-2.133 3.029-7.803 3.296 3.968 7.585 1.605-1.952 5.007-4.606 1.196-8.624 1.729-1.231 2.47-3.41.83-5.258.646-.217 2.845-4.544 2.61-2.958-2.386-.743 1.14-1.323 2.93-1.87 4.911-7.957-5.22-12.905 4.053-20.003-.667.288-1.381.839-1.583-3.584-2.52 2.378-.669 3.7-5.608 2.466-10.11-1.628 5.237-3.885.937-7.786.134.617-1.672 1.665-1.476 1.865-4.922-2.445-1.892-3.551 1.981-5.896.539 0 0-8.254-1.016-9.68-.259-2.525 7.314-3.222-7.067-5.258.668l4.223 2.655c1.418-2.301 13.21 1.23 12.847.92 2.203 1.848-6.81 1.662-9.255 1.595-1.71-.034-3.167-.881-5.691-1.196-.463 2.313-1.748 1.106-6.518.41-1.514 2.156-4.848 4.272-5.892.54-5.628 6.039-10.072-2.628-14.078 4.13 6.551 2.296 11.88-.645 18.543 2.105.614 3.688-5.637-.168-7.79.146-.622-.078-.739 2.021-1.03 3.323 2.84 1.898 4.564-1.038 7.151-.263-3.446 5.023-8.725 2.116-16.607 3.603-4.197-2.65-8.383-.903-13.907-2.902-2.011 1.69-4.582.983-7.152.264 1.92-2.947 4.548-2.846 7.352-1.998 4.29 2.06 7.62.017 13.473 1.038.364-3.834-2.595-1.285-3.596-2.515-1.999-3.929 3.133 1.757 2.5-4.793-.66-4.311-3.339 4.434-5.697-1.185-2.812-4.3-8.708.421-17.9-1.964-4.102.297-13.019-4.278-4.223-2.655.539-3.727-2.153-1.246-2.958-2.386l-8.854-1.835c-3.005 3.469-7.866-1.016-13.482-1.039-.28 1.375-.835 1.594-1.03 3.34 4.564 1.925 13.322-4.204 15.609 5.007-6.417-5.024-13.815-1.527-25.253.062-2.211-1.6-6.559.926-7.39-3.312-3.342 2.8-5.662-4.221-8.616 1.746-.079 2.385 1.419 1.762 2.329 2.25-1.448 4.968-4.715 2.14-7.353 2.021.53-3.766 2.024-3.379 3.564-2.8.142-2.515-1.824-.994-1.502-3.84l-6.326-1.314c-1.018 6.4-3.526-1.375-6.088 2.274-.538 3.732 2.153 1.257 2.767 4.109-2.888 3.929-8.646-4.384-10.711 3.087 2.132-1.28 7.469-2.24 8.854 1.835-3.159-.92-7.302 1.595-10.119-2.099-1.569-7.993 3.918-2.296 5.224-5.99.034-1.425-.442-1.857-3.409-4.248-4.886 3.962-12.697-4.564-17.032 1.79-.259-5.619-3.393 1.718-3.593-2.52l-5.061-1.05c-1.327 3.767-4.473-.258-6.518.427-2.616 5.635-4.506-.848-8.424.022-1.674-.314-3.61-1.717-4.824 2.549-2.253-3.335-3.622-.14-10.753-2.493-.308 2.493-.1 3.98-3.75 4.805 0 0-.139-4.664-.43-4.575-.785.494-1.674.69-6.977.87-.105 2.156.45 3.032 1.719 2.532-.985 4.362-4.54-2.228-5.02 4.266 1.865-1.442 4.114-1.257 6.518-.42-1.01 5.955-4.415 1.683-6.714 2.149-2.545 5.535-4.102-.516-7.79.168-3.205-1.695-5.137 2.055-8.42.034-1.624 3.463-3.722 3.099-5.254.69-4.54-2.256-7.727 1.258-12.209-.757 3.092-4.772 8.108-1.342 12.41-.977 1.222-2.487 3.409-.842 4.819-2.548-1.682-.068-3.255-.343-4.419-1.392-6.046 1.088-12.956 1.352-21.514-1.774.376.314.66 1.033.668 3.104-3.146-.797-5.746.471-4.615.988 5.529 1.925 10.469 1.223 4.865 2.767-1.815.505-3.71 1.583-6.526.427l-6.326-1.314c-1.944 3.671-5.745-.539-8.416.034-.521 3.766-2.015 3.379-3.559 2.806-1.377 2.684-3.864.612-6.084 2.302-2.115-1.325-3.83-3.43-10.786-2.032-1.268 1.841-3.843.022-4.89-.887-1.331 3.065-5.095-.69-3.205-3.143 0 0-3.772 1.195-3.951 1.498.7.438 2.053-.37 1.172 2.324.743 3.559-4.982 1.454-6.864 2.515-.363 2.947-4.272 3.38-4.982.556.326-1.628 1.123-1.937-1.877-2.824-.13.28-.368.635 1.377 2.874-1.861-.786-3.81 5.625-7.578-.904 1.653 1.606-1.31 1.858-1.285 3.65 0 0-11.103-1.735-5.595-1.13l5.49-.622c-.283-1.196-.675-1.909-1.11-2.425-.558.174-1.147.219-6.58-.213-.88.286-1.71.348-7.068.297-.772 1.555-1.594.505-5.395 1.083-1.035.595-5.404-.763-3.88 2.184-.376.449 2.816 2.509 2.716 3.205-.142.994-5.963 2.229-7.31-4.446-.147-.954-.205-1.672-1.453-2.475.126.241.255.477.472 2.582l-6.493.724c-3.075 2.717-6.517-1.016-9.855 2.84-1.724.5-3.218-.095-4.206-3.025l5.774-.646c-2.182-.46-4.443-1.324-8.837-.488.142 1.47.509 1.841.684 3.166-.367.42-.492 1.515-.292 3.536-2.232.079-5.408 2.027-5.203-2.924-.647.09-.25 3.104-.768 3.592-1.97 2.347-2.362-2.565-5.312-4.67-2.562-.494-5.349-5.568-9.58-.68-1.932 1.42-2.946-1.346-4.59-1.24-.442-.039-.6-1.341-2.186-2.823l.513 8.28-7.477.841c-1.845 1.05-3.155-.398-5.312-4.664-1.198 1.936-2.92 2.413-4.882 2.301-1.152-6.113 1.636-1.235-1.306-5.12.192 3.767-3.422-2.306-1.285 3.65 1.418-.652 1.736.235 1.214 3.379-1.252-.584-.889 3.3-2.383 2.02-.183-1.409-.617-1.69-.721-3.424.175-1.442.346-2.896.175-5.287-.701.23-1.394.449-1.244-2.212-3.4.51-6.947.404-11.825 1.925l7.97-.898.221 3.475c-.584.797-.876 2.38 1.815 5.069.634.308.434 1.897.225 3.474-.784-.859-2.449 2.335-5.203-2.913-2.236-.023.142 7.095.539 8.706l-6.977.786-.213-3.48c1.18.241 5.228 1.942 5.374-2.363-.187-2.111-.404-4.104-5.708-2.858-.446-4.602 2.9 1.308 1.674-5.456l-5.483.612c-.113-2.228.484-2.475-1.799-5.198.234 1.937.697 2.796.3 5.372-1.23 5.961 2.325 2.492 3.706 3.093.325 3.767-1.723.994-3.376 2.133-.671 6.78.797 5.411 2.037 8.543-1.377-.488-5.971 2.285-5.1-1.173.672-1.038 2.705 1.735 2.387-2.037-1.573-6.596-3.025.151-5.199-2.92-2.67-.005-2.624-.836-4.99.573-.017-1.97.384-2.767 4.277-3.996l4.974-.562c-1.807-6.517-3.83-.056-6.69-2.756-.917.848-1.877-.988-5.207-2.913-1.272.45-4.06-1.055-.28 3.53 2.012 2.212-1.447.427-.784 3.604.226 4.957 3.138-2.486.322 5.22-4.035-3.485-7.42 4.031-10.181-2.357 1.318-.163 2.891.337 3.384-2.133.934 3.901 3.513.258 5.09 1.179-.017-6.657-2.49-1.942-6.305-4.558-1.218-1.123-3.7 3.598-5.316-4.659.096 4.058.501 6.68-2.057 7.252 0 0-3.676 3.189-4.594-1.24-1.756-1.965-.033 5.686-1.777 3.71-.785-.673.054-2.24-.326-5.22 0 0-3.15-2.666-4.602-1.235l-1.67 5.45c-.333-2.16-.859-3.485-1.71-3.317-1.681-.803-2.478.803-4.377 2.25-.23-4.95-2.992 1.786-4.824-4.725-.563.348-1.427-.135-3.872 2.2.163 2.217.789 2.346-3.275 3.873.092-4.21-.4-7.09 3.163-5.619.463-2.071 1.64-2.172 3.88-2.189l2.387-2.02c.922-.472 4.999.628 3.384-2.145-1.335-1.33-2.817-1.97-6.1-1.066-.806 1.11-3.05-1.769-4.874 2.307-1.352-.534-2.792-.584-5.591-1.117-1.018 7.7-7.436 3.35-9.873 2.868-2.182 1.588-3.138-2.19-6.48.735-.622-7.623-4.66.511-5.816-4.608 0 0-.464 2.15-2.375 2.02-2.474 2.072-3.217 1.01-6.997.792 0 0-8.758-4.238-9.472 1.072 2.353 1.864 5.224 1.325 7.198 2.689l-8.971 1.027c-1.87 1.156-2.633-2.835-4.711-2.98-1.607-1.045-1.035-1.112-5.6-1.118-.004 1.42-.392 1.791-3.267 3.874 0 0-6.543 1.408-5.107-1.18-1.657-4.653.63-1.711-1.557-5.86-.154 1.505.163 2.19-2.653 2.846 0 0 .813 3.02 2.72 3.189.359 3.413-.455 3.542.826 5.17 1.811 1.2 1.753-2.801 3.38-2.128.664-.062.655 2.986 2.712 3.194-.142 5.916 1.728 2.537 2.717 3.21-.009 2.375-1.169 1.573 1.214 3.358 1.298 5.714-1.331 7.55-2.892 2.082-2.115-.056.18 2.683-3.154 5.624.592-4.788-2.412-3.115-.83-5.17 0 0-1.019-2.026-1.219-3.373-.488.011-.522-2.082-.718-3.424-1.276.067-.521 1.37-.28 3.548-1.697 1.644-2.657-3.666-4.877 2.301-.6-.219-.626-3.132-.826-5.175-.755 3.94-4.048-3.56-4.269 4.002 0 0-4.928-1.97-6.6-1.016-.08 6.36 2.115 2.206 6.713 2.745l.213 3.497c-1.527 1.021-1.957-2.942-7.703-2.65 0 0-1.773-7.527-2.933-6.68.15 3.818.755 5.502 1.823 5.058-.02 1.37-.288 2.071-4.986.567-1.456-2.98-2.629 3.632-3.71-3.087l4.378-2.251s-6.168-.792-5.592-1.123l10.473-1.19c1.165-1.571 4.503 2.902 3.78-3.935.406-4.63.848 9.313 2.813 4.946 1.365-4.418 3.872-3.57 5.88-2.42 1.255.113 2.019-1.128 2.278-3.772-4.661 2.784-7.482-2.885-13.194-2.004l.225 3.48-7.99.904c-1.903-.903-4.828 2.818-9.088-.735l-5.988.685c-1.252 1.897-5.245 1.397-5.095-1.173.893-.876 3.15 2.032-.225-3.497-.209-2.672-1.214-1.712-2.25-2.397-1.005-3.834 1.887-4.816 4.315-4.85-.646-.017-.83-2.156-6.096-1.061-.713-.067-1.427-.124-1.235 3.654.305 3.003 1.093 3.795 2.166 3.261.363 3.408-.455 3.52-.664 5.339.639-.31 3.585-.674-2.39 2.015-1.582-2.504-3.58-4.401-7.703-2.627-.384-4.985-3.33 1.903-1.219-3.368 1.431-.37 3.326.578 6.489-.73.705 2.481 3.138.634-1.265-3.239-5.92 1.825-10.352 2.43-15.701 2.448-.092.398-.021.993.5 2.644-1.681-.826-2.244 1.448-3.38 2.138-.45-.426-.684-3.733-2.52-4.911-.617-.034-1.222-.057-4.619 1.094-2.728-.859-5.466-1.757-5.474 2.391-1.77-1.835-.956-5.18-3.601-2.531-2.237-1.836-3.275 1.454-5.579 1.162 3.067-1.41 5.362.707 7.707 2.638-2.958 1.684-4.811-1.763-7.598-.898-2.166.325-2.454-2.369-3.38 2.133-.864-2.773-.38-2.543-.367-4.985-.918.096-1.795.365-3.847 1.948.183 1.41.613 1.673-2.387 2.02-.121-2.75 1.189-1.51 4.848-6.005-.342-.113-.696-.185-.137-3.295-2.049.96-3.055 3.042-5.583.628-.234 3.077-1.473 1.785-1.828 4.334 1.419 2.374 3.347-4.749 2.328 2.273 0 0-4.881-1.268-5.332-.802-.668.847-1.198.46-6.651.022.075.539.446 1.285 1.268 2.346-1.606-1.094-1.702 1.982-2.887 2.083-3.009 1.122-7.886-1.134-10.978-3.682-2.692-.152-5.17.64-7.928.18.288-1.37.834-1.584 1.039-3.318-2.959-1.516-4.152 4.636-10.119 3.143-1.398 1.23-3.1 1.134-4.782 2.088-.972 1.151-3.417-1.79-1.781 3.722-1.582-.915-4.165 2.7-5.104-1.196-.38-4.917 3.172 1.106-.162-3.603 0 0-5.67.387-5.541.735 0 0-1.945.516-3.881 2.189-1.452 2.178-1.385-2.588-2.22-3.25-.413 6.972-.509 5.422.764 12.192-2.15.791-6.539.264-6.213-2.807.667-1.038 2.708 1.735 2.39-2.015-.27-3.222-1.752-.898-2.21-3.272 0 0-7.603 3.43-8.484.943-.455-1.18-2.712-4.059-6 .684-1.623-.207-1.915 3.323-3.88 2.184-2.909-.808-6.84 3.082-9.097-.724-.692-.006-1.043.949-4.882 2.29-1.681-1.645-4.13 1.544-6.997.78-2.408-.864-5.838 2.947-9.489 1.056-3.985 1.032-6.438-.584-9.48 1.06-1.757-.926-4.51 2.757-5.608-1.139 5.12-3.576 11.696-3.104 17.27-5.428 1.257.926 3.48-2.588 6.088 1.067 3.255-4.435 9.122-1.6 14.876-3.396l6.989-.786s11.174-2.464 10.899-2.358c0 0-4.482-.78-7.181.225-4.407 1.251-6.197-.898-10.79-2.796-.919-.219-1.924-.348-5.108.92-.08.422-.096.983 1.097 3.498l-6.496.718c.129-3.968 2.754-.988 3.884-2.183-.02-1.476-.192-2.217-.93-4.44-.463 3.177-.839 2.57-4.323 1.437-3.275-.303-4.803.97-7.548-.831-1.444-1.123-.793 3.564-1.778 3.705-.208-1.347-.23-3.441-.717-3.436-1.94-.1-.092 1.449-2.287 3.778-2.195-1.094-4.072-3.648-6.705-2.778l-2.383 2.032c-.209-2.06-.221-4.968-1.715-3.323.413.33.664 1.397.714 3.43-.668 4.321-3.668.566-4.603-1.247-.321-3.772 1.724-.988 2.387-2.02-.104-1.752.28-2.111-1.335-3.492-2.128-.017-4.42-.393-6.973-.848.234 1.886 1.064 1.072 2.316 5.002.188 1.403.61 1.684-2.783 3.828-1.268 2.245-3.326 2.301-7.982.887-2.112-5.12-3.647 5.046-5.316-4.682 0 0 3.426 1.432 4.594 1.247 1.586.931 4.164-2.706 6.605 1.021-.163-3.817 1.027-3.89 2.278-3.766-.179-1.387-.609-1.667-4.31-4.783.175 1.398.61 1.684-2.29 3.772-.193-2.48-.385-4.934.183-5.282-1.381-2.29-3.522-1.005-7.094-.965l.318 5.22s-3.664-.342-4.599-1.246c.547-2.655 1.36-3.924-.709-3.419-.038-1.066-.058-2.076 3.134-2.66-1.928-.674-3.902-1.067-5.867-1.381.213 2.318.768 3.031 1.619 2.414.175 1.947-.555 2.778.217 3.48.067 2.599-1.11 1.723-2.883 2.066.65 3.71 1.602 6.022 6.914 6.253.104 1.751.53 2.032.717 3.43-2.186.634-3.275 3.115-6.104-1.073-1.227 6.433-5.12-15.908-3.747-11.872-1.74-1.976-.034 5.692-1.778 3.716l-4.994.55-6.489.713c-.12-1.751.272-2.133.284-3.547-.271-2.498-1.535-.438.175-5.277-1.222.399-1.715-2.576-3.7-3.093.174 1.392.6 1.684.704 3.419-.108 4.967.98 4.445-.467 8.83l-5.495.606c-.067-2.128-.096-4.149.792-3.604 1.632 1.993 2.237-.14 4.599 1.257.843-.943-.334-1.83-4.707-2.997 0 0-8.295 3.733-5.103-1.196l9.392-2.784c-1.614 2.902-.663-5.883-1.831-5.063-1.106-.696-.793 2.593-.676 5.338-.697.23-1.39.438-5.09-1.19-.164-3.811 1.026-3.884 2.269-3.772-.063-4.867-2.625 1.678-1.248-3.351-1.21-.37-2.345-1.173-3.976-2.885-2.378 1.218-6.326.718-11.27-.713-3.338 1.605-5.491-2.167-10.27-3.784.389 3.98 1.887 2.93 3.164 2.807-1.74 5.052.546.573.926 6.927-2.111-1.493-4.515-1.662-7.594-.92-1.586-.921-4.169 2.7-5.107-1.196l5.5-.607c.817-1.105 3.062 1.78 2.887-2.076l-6.489.712c-4.51 1.342-8.462.101-12.589-.37-1.69 3.75-3.388-1.039-5.991.668-1.816-1.207-1.761 2.795-7.878 2.599l-5.604-1.157c-2.708.955-3.3 2.173-6.393 2.46 0 0-3.288-2.74-5.09-1.202-1.615-1.123-.676 4.889-2.29 3.76-.222-1.947-.714-2.654-1.215-3.378-.109-1.735.28-2.122.296-3.542 2.074.903 5.174-2.84 6.601 1.05.626-.164.55-2.308 4.886-2.297.78 2.336 2.274 1.488 6.096 1.1 1.578.938 4.173-2.7 5.095 1.196 1.644-.241 2.316-3.205 4.29-3.974 2.111 1.51 4.506 1.656 7.089.982l6.997-.769s11.358-1.016 10.953-2.963l-7.064.785c-.784-.269-3.113-.999-3.342-2.284l-4.915-1.095c-.192.64-.3 1.51-2.838 2.84-1.848.472-3.788 1.393-6.559-4.933l-4.532-1.005c-.204.095-.446.174-5.724.752l-3.472 2.133c.572.365.55 3.424 2.212 3.267 1.865.37 4.322-1.965 5.59 1.145-1.13 1.656-3.442 2.066-4.994.539-.204 3.648-3.363 2.223-4.986.55-1.127-6.25.59-4.554-.502-5.482-.29.184-.617.294-.996.294-.24.072-.443.112-.615.123-.083 1.428-.04 3.205.114 5.278-.7.225-1.398.444-4.71-2.992.027-.793.029-1.674-.143-2.62-1.042.587-2.034-.239-3.452-.736-.085-.648-.293-1.02-.572-1.236a4.726 4.726 0 0 1-.938.248c.007.227.025.453.056.676a4.967 4.967 0 0 0-1.285.07l.168-.68a7.089 7.089 0 0 1-4.237-1.621c.188 1.476-.092 1.667 1.71 3.329.032.578.035 1.08.014 1.515.703-.008 1.246.145 1.537.7 1.117.242 2.072.13 2.988-.056.483 1.48.613 2.394-1.42 2.107-1.77.955-2.156-1.165-3.192-1.845-.435 2.739-2.173 1.839-3.106 3.18-3.815.148-2.557-.36-.949-2.012-.594.106-1.271.103-1.966.077-1.014.365-1.247-.967-2.093-.981-.098-.712.086-1.063.222-1.459l2.104.221c.564.233 1.14.347 1.71.389-1.211-.457-2.309-1.432-3.657-1.282l-.027.03c0-.01 0-.018.002-.027a2.95 2.95 0 0 0-1.15.408c.159 2.223.776 2.346-1.293 3.654l-6.994.764c-.083-1.707.539-1.42-.2-3.492-1.736 1.617-2.324 4.94-5.495.6-.259 4.21-4.82 5.485-7.987.865-1.527 2.661-4.677 3.003-10.99 1.173-1.11-.067-4.911-.376-2.796 3.806.977-1.134 3.418 1.813 3.397-2.11.413.353.989-.073 1.71 3.328 6.76.309 13.824-.82 20.183 1.33l6.489-.707c1.936-1.42 2.954 1.353 5.495-.595 1.406-.522 2.562.169-.292 3.537l-4.995.539c-5.683-2.386-6.98 2.284-12.088-.433-2.783 1.555-4.573-1.38-7.097-.999-4.465-1.207-3.923 1.662-7.594-.937-.676 1.033-2.704-1.768-3.798 3.923-.93-.915-2.812 2.414-5.7-2.913 0 0-2.094 1.886-2.399 2.015-1.46-1.19-4.79-1.981-7.302-4.48-.079-3.63 2.166-.712 2.295-3.76.827-1.094 3.063 1.79 2.9-2.071-1.606-4.547-5.645 1.959-7.206-2.723-.854-.812-1.82-1.115-3.213-1.812-.154.525-.365.97-.96.913.499.364 1.127.927 1.778 2.909.163 2.391-.004 3.845-.192 5.27 1.41-1.43 4.682-4.17 3.705 3.122-1.593.555-2.294-2.863-6.7-2.796-1.795.73-3.268.068-7.098-.999-2.345-1.224-2.262 4.35-3.693 5.664.367 4.968 2.274 2.958 4.206 3.053.008 3.924-2.433.96-3.405 2.122-2.896.483-4.068 4.592-6.096-1.111.571-.343 1.44.157-2.696-3.217-.546-1.223-.943-3.104-1.406-6.87-.1-1.74-.53-2.038 3.288-3.868l4.098 1.33s6.897-1.043 7.097.994c2.633-1.616 4.04 2.347 6.597 1.05 3.73-1.982-2.282.09-2.9-6.708-1.168-.83-.517 3.407-1.297 3.649-1.469.187-2.928.322-3.308-4.387l-.972.051a3.108 3.108 0 0 1-.684-.345c-.09 1.103-.08 2.418-.135 3.463 0 0-3.41-1.46-5.103-1.202-2.103 1.454-2.984-2.666-5.091-1.212-1.894-2.459-4.273-2.706-6.693-2.801-.914 8.044 3.392 3.447 1.903 6.814-1.248-.106-2.425 0-2.9 2.066-1.448-1.442 1.139-3.38-.105-10.502-1.681 1.717-2.833-4.21-2.9 2.06 4.202 3.463-.96 9.683-7.189 6.023l-4.794-4.76c-1.519 1.016-1.94-2.958-5.09-1.224l-4.995.522-6.48.674s4.594 3.615 1.197 3.379c0 0-7.46 1.751-6.096-1.117l-.196-3.486c-2.232-.512-2.923 3.217-4.315-.465-.392.08-.84.073-1.37-.106-1.534-2.864 2.593-2.254.228-3.302-.113-1.055.69-.877 1.166-1.154a2.19 2.19 0 0 0-.239-.375 22.774 22.774 0 0 0-1.847-.376c.056.26.102.541.134.85-1.28-.526-2.722-.705-4.115-.989.504 0 .996-.032 1.45-.098a19.78 19.78 0 0 0-.476-.008c-.405.354-.518-.634 2.39-2.015-.538-7.27-1.735 2.178-2.695-3.216 0 0-11.667-1.252-5.595-1.174-.163-2.89 1.33-1.122-2.195-3.283-1.273-.287-3.726 3.704-6.485.679-2.032-5.67 3.138-2.094-3-8.448 1.265-.331 2.32-1.24 2.8-3.811-.788-.876-2.466 2.312-3.7-3.116l-3.694 5.642c-.596-.23-.868.477-3.897 2.16-1.268 1.825-4.277 6.338-5.887 2.38.943 0 .984-1.47.3-3.541-2.558-.988 1.99-3.026 4.29-3.963-.16-3.85 2.077-.955 2.9-2.05.559-4.742 4.656.478 5.286-4.057 3.99-2.37 8.233-4.02 12.78-4.845l-.208-3.485c-1.66.645-4.118-.943-4.89 2.256-3.271-.96-4.953 2.577-9.772 4.53-4.277-4.109-8.041 5.422-11.984 1.252 3.467-.191-1.06-2.032 3.789-3.913.037-1.358-.188-3.43-.797-5.164-.81-5.192.934-3.2 3.68-5.647 1.631-3.132 3.192-4.199 5.395-2.307l-.3-5.254c2.14 1.645 2.34-.724 4.986-.505-.092-1.746.296-2.122-4.185-3.07-.121-2.414-.463-3.8-.801-5.181 1.869-1.825 1.61 5.927 4.193 3.064-.104-1.74.28-2.116.3-3.53-.2-2.015-.066-3.127.197-5.282-.305-2.796.296-3.043-1.194-3.913-.283 1.325-.384 3.166-.8 4.11-4.165-6.9-7.002 12.696-8.989.948-.847-5.81 1.402-2.863 2.295-3.756.121-.668.292-1.212-2.553-2.834-.3-.292-.192-2.24-.36-3.076.944-.983 1.653-.612 1.678-3.969.51 1.291.83 3.295 1.444 4.137.505-2.01 1.81.208.113-4.064.696.932.542-2.604 3-2.89.409 2.177-.025 7.83.805 3.098-.576-2.936.284-.612 3.213-2.897-.004-1.633.259-1.734.321-3.025-.233 2.369.743 2.245 4.436 1.24.117-3.687.788-4.417 1.69-3.974-.021-2.273-.376-3.261-.585-3.07-.083 3.104-1.669 4.322-2.774 2.902-.38 1.757-.272 2.301-.76 3.014.009-2.363-.33-5.164.313-3.042 0 0-1.348 1.998-4.857-2.285-.254 2.953-1.18 2.375-1.49 5.002-.337-3.116.088-1.336.564-4.03-.405-1.522-1.26.201-1.957-2.128.004-1.179.108-1.808-1.469-3.138-.263 1.768-.521 3.508-1.21 3.003-.075-.926-.146-1.835-3.517-2.217-.585 1.347-.196 2.026-3.893 2.857 0 0 1.18 4.322 1.927 3.143.013.86-.116.96-2.098 2.942-.113-1.628-1.09.185-.535-5.103.668-2.582-.342-1.661-.58-3.081-.847-.225-.104.83-1.648 2.97.476-1.91.1-2.544.142-5.07-1.335.332-3.008-1.083-3.688 3.88-.213.431-.422.88.588 3.086-.205 3.587-1.106 3.514-1.782 8.044-.839.595.347-5.007-1.456-4.142-.042-4.092 1.01-2.437-.058-6.102-.092 2.245-.96.393-1.202 2.992-.363 3.272.705.814.338 4.086-1.377 1.028-1.102-1.925-1.632-6.174-.18-.191-.212.393-3.17 1.897-.614-.354-.31-3.171 2.365-4.985-.313-2.671-1.198 1.376-1.953-2.121-.008-1.78-.33-2.33-1.014-4.104-.25 2.173-.65 3.57-1.644 2.975-.108-6.079 2.183.23.13-5.08.638 3.245-.864.399-2.14 4.985-.11 9.542-4.153.275-5.1 6.887 1.16-.679 2.529-1.234 4.966-1.801.446.611.709 1.987-.747 3.008-.092 2.594-.877 1.583-4.74 1.825.087 2.24-1.357 4.002-.326 4.047.175-1.359.518-1.87 4.74-1.819.985-1.038 1.849 2.071 3.51 2.195-.088-2.577.826-2.869 2.757-2.93.455.623 1.503-1.202.814 3.087-1.093-3.491-4.122 1.858-6.492.724-.034-1.386-.543-.87-5.358-.258-.55-.14-.405 1.24-1.41 3.009.588-2.852-.793-3.587-1.47-4.126-.237.651-.275 2.324-3.613 1.875-1.026-.753-1.372 2.02-2.303 2.958.02-2.223.263-3.228.747-3.02-.438-1.123-1.861-.848-2.729 1.914-.576 1.347-.184 2.02-.522 3.037-.85.146-.054-.837-.15-3.054-.676-.09-1.156.865-1.635 2.97-.067-2.257.471-1.426.525-3.032-.45-.707-2.762-.595-2.545 3.969-.317-1.51-.15-4.547.538-4.042.121-2.335-.613-1.15-.596-3.081-.935 1.942-.188 5.703-1.686 5.03-.25-.18-.138-1.864-.363-3.066-1.03-1.869-.789 2.79-1.21 4.02.23-3.71-.392-3.924.43-9.133-.664-.32-1.757 1.055 1.18-2.998 1.252-.898-.513-1.88-.592-3.07.138-1.196.296-2.296 1.631-2.986-1.076-1.892.497-.174-2.824-3.155-.03 1.016-.217 1.207-.326 4.047-1.168.18-2.224-.1-2.186-2.105-.092-5.815-2.07 4.137-3.3-2.167 0 4.12-1.411 1.073-2.767 3.958-.46 1.774.238 3.166-1.181 3.008.263-2.413.672-4.097-1.202-6.14-1.469.88-2.115-.433-3.643 2.918.059-3.968-.938-2.986-1.744-2.093.163.92.192 2.312-1.844 2.997-1.298-.342 2.57-2.475-4.844-3.21-1.536-2.74-3.197 5.248-1.486-4.126.893-.893.493 3.564 2.195 2.116 1.494-1.841 2.27-2.386 5.395-1.847.025-1.021.209-1.207 2.52-2.964-.091 1.92.205 2.257.142 4.081 1.114-.196 1.853 1.09 1.181-3.014.234 1.173.76 1.167 1.715 3.104.267-3.256-.71-1.415 1.185-3.003-.117 1.437-.3 1.695.154 3.042-.02-3.951 1.507-3.587 4.578-4.906-.551-2.79.83-1.526.784-5.04-.684 1.375-1.456 2.335-2.303 2.952.125-1.712-.125-1.914 1.19-3.003-.835-3.025-2.292-3.895-3.815-3.418-1.039.404-1.986 1.588-5.332 2.071-.584.297-.088-3.935-.83-3.06.162 3.397-.384 3.313-2.52 2.965-.735.853-.664-1.595 2.544-3.991.405.982.81-3.01 5.592.196.112-2.032.016-3.171-.806-4.092-.1 1.375-.575.825-4.719.848-1.218-1.174-2.457 1.914-5.57-1.19-.538-.45-.534 1.84-2.078 2.963-.225-.028-.15-1.24-1.974-2.088.242 1.347.054 1.6 4.173 4.21.538-.701 1.469-2.29-1.853 2.97-.342-.433-.138-3.194-3.075-3.127.275-.92.038-2.285-.814-4.103-.342.438.071 1.302-.054 3.059-.71.455-.58-2.577-.814-4.098-.304.354-.388 1.78-2.07 2.992-.45-.309-.391-2.762-.842-3.076-.321 1.01.05 1.667-.505 3.037-.643-.702-1.03-3.626-4.682-1.156.1-3.234.89-2.992 5.266-5.934-.943-.931.935-1.246-.388-3.064.263-.107.534-.281-.613-3.065-.05 2.015-.643 1.28-.751 4.036-.271-.427-.43-1.32-2.871-2.111 0 0-3.221 1.555-4.29 1.909.013-1.028.2-1.202 1.186-4.03.634-.77 1.514-.966.73-3.026.697-.225 1.28-.994 4.757-2.897-.084 2.857.584 2.56.822 4.081.12-1.252.333-2.088-.368-4.07 0 0 3.489 1.432 7.169.203.154-2.577 1.005-1.679 1.185-3.015.355.113.125 2.588 1.752 2.094 0 0 .15-2.986.28-3.042.284.432.442 1.324 2.637 3.143.359-1.196.421-3.823.772-5.063-.088 1.92.213 2.256.146 4.075.413-.92 1.127-.314 3.217-3.957-.684-.505-.939 1.235-1.18 3.014.567-.112.742-1.92 2.428 2.11.15-1.498.384-2.542-.543-6.112 1.202-.606 1.34 3.16 1.886 6.163.422-2.049 1.114-2.61 1.653-4.013-.013 1.021.158 1.212 1.51 3.098.53-1.454-.225-2.486.964-3.014 0 0 3.676-1.038 5.395.202 1.06-.393.634-1.083 5.15.196.462-2.946 1.126-4.866 2.34-3.962-.012-2.358.672-1.123.083-3.065-.267 1.397-.37-.432-2.349 3.98-.91-.966-1.698 1.515-5.17-.191 1.094-6.759 3.31-5.305 5.988-5.872.059-1.19.021-2.89.296-3.025-.075 4.793.893-.348 2.174 3.115-.296-1.65 1.36-.74.075-3.042.376.595 1.348-1.173 1.052 3.087 1.448-1.763 3.13 1.583 2.787-3.94.192 2.62 1.064 1.392 3.977 3.199-.272-.326-1.394.112 1.97 2.133.266-2.97-1.26-3.357 1.898-3.985.233-1.084.847-.292.747-3.02.371.836.567 1.745 3.02 5.203.706-3.312 1.098-4.513 2.379-4.984-.522.544.23 1.605 2.17 3.149.392-.303-.113-3.144 1.43-2.975 1.244-1.033 1.336 3.143 5.396.235.593.337.284-3.929.98-3.003-.124 1.443-.308 1.696 1.023 4.11.405-2.207 1.147-.225 2.182-5.996.099-1.16.158-1.758.22-2.182v-84.427H-2.24c-.25-3.638-.858-11.562-1.389-11.51.297 1.802 1.165 1.398-.17 5.058-.964.769-.752-2.992-1.227-4.126.617.208.834-1.532 1.043-4.008.605-.353.661-1.377.829-2.915l-2.15-.041-4.12-.08c-.006.059-.028.097-.039.157-.417-.196-.857-.424-.9.757l-.586-.049c.282-2.335-1.648.515-1.355-1.816-.537-.53-.738.179-1.02.557-.563-.683-1.106-.9-1.594.274-4.137-1.41-6.16-1.448-10.313-.203.021-1.582-.537-1.883-.662-3.145 2.354-.638 6.209-3.446 8.248.172.434-.456 2.684-3.85 2.754.045 1.009-.838 3.536 1.9 3.454-1.5 1.681.245 3.303.315 4.138-1.472l2.055.038a3.994 3.994 0 0 0 1.797 1.482c-.3-.198-.588-.436-.682-1.422 0 0 1.477.657 1.877 1.752.624.1 1.288.112 1.972.082 1.625-9.595 4.156-16.808 5.439-27.295 6.296-26.394 25.077-53.023 40.337-34.224 2.236-.045 4.494-.146 9.18-1.718.291-1.403.609-2.688 1-3.716 1.228-4.984.927-9.935 3.43-15.211.885-1.617 1.686-1.527 5.22.039 1.486-2.655 4.244-1.432 8.004-.023-.075-.797-.263-1.796.6-3.401.53.398.964 1.47 1.46 2.15 1.937-1.18 3.664-2.066 5.22-1.471.289-1.072.706-1.942 2.196-3.677-.209 1.825-.505 3.166 1.11 3.879-.013-1.212.045-1.87 1.44-4.03-.285.954-.643 2.245-.33 4.698-.293-6.494.947-3.317 2.891-3.907-.025 2.094-.559 1.022-.388 4.075.013-4.653 1.373-1.796 2.04-7.589.1.949.226 1.617.36 2.257.675-.646 1.076.258 1.226 2.627 1.093.27 2.424-2.582 3.53-2.66.004 1.156.042 2.11 1.723 2.43-.283-14.73 3.255 6.494 4.29-5.978.647 1.336 1.619 1.235 3.346 2.458-.309-1.487-.596-3.149-3.876-5.08 0 0-7.169.079-8.429.876 0 0-3.234-.898-4.669 1.123l-7.532-.36s-8.316.14-8.578.562c.196 1.84.425 3.508.926 3.974-1.494 8.874-2.395-5.254-8.387-3.733-.23.19-.43.556-1.469 2.588.672 4.4 3.209-2.29 3.522 4.16-1.156 3.71-1.903-2.6-6.322-1.483 1.156-10.575.868-13.09 3.706-18.675l.425-3.44c5.608-3.296 11.805-4.194 18.756-3.779-.363-1.195-.471-3.171-.484-5.428 1.828-.494 4.52 3.194 5.383-2.015l5.324.253c2.6-5.282 7.206-.825 10.644-2.004 1.736-4.4 4.84-2.116 6.944-4.71.108 2.56.058 4.311 1.602 4.811.234-8.656 1.49-3.946 4.757-2.071l.012-2.47c.042-1.516.1-2.953.551-2.47 1.093 1.538 3.5-2.947 3.705 2.65.034.769.017 1.285 3.68 2.206-.229-3.374-1.03-4.951.58-4.508 1.31.399 2.558.488 3.197-2.369.016-2.537-.413-3.036-4.223-5.192.768-5.703 3.701-.797 5.324-2.296.593-5.652 3.338-.814 5.846-2.267.622.41 1.506-.36 1.577 2.576-.621.37-1.506-.488-.004 2.515 0 0 12.522.359 12.756.28.2-3.188 1.565-.679-3.188-4.906.567-7.516-1.16-4.501-2.099-5.108-2.846 1.516-7.043-3.592-9.025 2.133-5.195-1.476-11.658-.252-21.785 1.583-.43.46-.539 2.476-2.67 2.38-.239 6.007 2.428-1.274 1.556 7.606-1.465-2.279-3.218-3.272-5.805-7.796-2.048-1.415-2.62 4.367-4.794 2.3-1.631-1.823-1.018-1.795-5.324-.246l.02-2.515c-1.134-7.039-3.792.18-5.315-.252-.125 5.428 1.877 1.223 2.641 2.632.797 2.425-5.52 5.417-5.867 2.24 1.532-5.215 2.746-1.51.58-7.505 3.096.561 5.124-4.143 8.517-2.11 4.66 2.267 7.114-.5 10.097.471 1.97-6.32 3.568-.241 5.341-4.777l6.902.298c5.061-.13 10.707 2.61 14.358-4.396 1.573 3.295 6.346.253 8.495-2.155 2.934 1.431 6.075-6.809 13.26.544.76-5.708 3.69-.802 8.488-2.206.797-.376 1.96 1 6.376-2.234l5.295.202c1.798-5.708 5.825-.634 11.136-2.065.447.505.501-.966 4.248-2.33.726.135 1.164-1.14 1.594-2.453 1.24-.746 2.032.489 2.641 2.622 1.61 1.869 1.577-4.266 3.718-2.363 2.675.297 3.042-3.048 6.35.252.622-2.065 1.44-3.244 6.36-2.234 2.49-1.515 6.325 3.553 11.662-2.01.309 5.49-1.544 7.893.493 7.545.955-.303 1.218 2.548 2.607 7.64.572-.59.38-4.968 1.081-4.968.292-8.69-2.866-1.55-3.138-7.662.797-.393 1.945.965 6.89-2.212 1.68-2.722 1.201-.174 6.35.292l.008-2.51c.927-.14 1.649.64 2.108 2.605 2.04-.55 4.527 2.004 7.944-2.122 2.02 5.316 2.354-10.384 4.778-2.273l-2.616-5.153c-.764-1.42-2.75 2.807-3.689-2.689-1.519-6.494-4.577 6.355-6.347-.297l-.012 2.51c-.188 3.395-1.344 2.014-5.838 2.239.059 5.45-1.881 1.06-2.657 2.391-1.774-1.673-4.937 3.014-6.869-2.812-.3-5.378-3.246-2.487-6.876-.292l-7.419-.314c.743 4.44.463 5.73-1.085 4.973-1.81 1.021-2.958-1.123-4.218-2.689l-6.355-.258c-2.15-.438-6.914-2.403-13.778 1.959-2.933 3.413-5.675-2.391-13.782 1.959l-7.953-.314c-.025 2.436-.66 1.92-2.662 2.402-3.414.18-1.866 9.06-5.333 7.303 0 0-5.195-1.69-6.893-.27-1.16 4.598-3.893 1.527-6.376 2.246-1.33 2.054-2.854 3.171-9.555 2.11-.422-2.178-1.448-1.543-4.231-5.186l-7.42-.332-.016 2.52c-1.523 2.83-2.729-3.07-2.687 7.41l-5.312-.235c-2.044 2.02-4.28 3.098-6.918 2.2-.939-.612-2.67 2.391-2.099-5.103l-6.375-.303c-.718.747-1.031 3.525-2.133 2.403-1.314-.382-2.566-.517-3.204 2.352l-8.32-.421c.137-1.64.27-3.29.58-4.48.555-2.677.955-5.832 1.46-8.655-1.494-.32-3.138-1.1-5.04-.69-3.756-1.09-9.093 1.453-9.26-7.898l-5.758-.54c.096 4.884 2.216 5.12 3.476 7.337-6.997 2.251-16.306-10.856-22.895-5.675 5.712 10.115 17.3 13.87 24.48 19.938 0 0-5.378-.106-5.403.006-6.885-4.21-13.386-9.06-18.714-2.386 1.377-.606 1.64 1.359 2.47 1.993.822 3.3 2.437 4.794 4.14 6.074-1.181 1.543-2.563 2.127-3.856 3.12-.088 2.19-.35 3.548-.714 4.379-1.343-1.117-2.65-2.307-3.968-3.48-2.412.718-8.065-8.937-7.965 4.518.02.708.208 1.05-1.636 3.278-1.727-.477-1.82-4.698-3.396-5.523-1.46-.696-2.475.04-6.506 1.14.163-2.414-.091-3.868-1-5.367-.777-2.8-.982-6.932-1.365-10.642-3.213-.292-4.423-5.159-7.774-11.266-.142-6.613 1.223-8.257 1.381-13.893-.505-2.414-1.527-3.643-2.199-7.218-.692-3.004-1.385-6.012-.626-12.333-1.869-4.67-.684-16.469 1.744-20.87.597-5.473-1.756-4.131-5.211-11.013.163-4.462-.851-6.214-1.46-8.902.062-4.744 1.585-12.827-2.554-12.523.425-4.542.676-8.701-1.548-7.152.726-9.896 4.594-9.447 6.588-15.144.159-13.135 3.426-16.026 6.777-18.642-.322 4.322-.568 8.465.817 8.852l2.462 1.982c1.39-2.257 3.752-1.314 9.243-4.373.18 5.389-1.373 5.03-1.194 10.401 1.302.87 1.761-1.032 6.585-2.874-.08-2.986.676-3.238 1.464-3.356-.07-3.935-3.113-1.005-4.381-2.178 1.828-6.225 7.373-.264 9.868-4.311.885 1.033 3.418-1.729 3.105 2.037 2.633 1.146 3.096-4.821 5.946-2.935 1.214 4.176 2.528-.354 8.416-.954 1.619-3.531 2.983 2.133 5.762.55.91-2.442 2.575-2.414 5.391-4.744 2.086-5.41 7.248-.696 9.868-4.322 3.585.876 5.855-2.56 11.696-2.408 2.162.971 3.626-.353 5.212-1.263 0 0 8.508.05 9.68-.842 3.789.197 6.071-4.535 10.423-2.537 4.47 1.774 7.265-1.97 13.428 1.24 2.211-.117 4.23-.813 6.46-1.51 1.793-.56 3.613-1.032 7.143-1.74 2.236-2.514 3.075-1.605 6.847-2.093l4.878-1.51c1.435-2.818 4.23 4.041 4.39-1.347-2.53-1.398-5.32-.326-7.411-1.308l8.779-2.706c1.727-1.51 2.9 2.307 4.974 2.066 1.69.73 1.143.904 5.658.05-.142-1.409.2-1.852-.096-3.564 0 0 9.259-3.52 8.107-.685 2.124 4.294-.446 1.813.676 6.388.23-1.504.488-2.975.73-4.468-.046-.185-.1-.309.046-2.363-.71-3.323.084-3.604-1.352-4.968-1.92-.859-1.448 3.099-3.133 2.74-.643.185-.948-2.841-3.013-2.656-.472-5.877-1.974-2.195-3.021-2.66-.238-2.358.989-1.774-1.544-3.093-1.89-5.417.526-7.73 2.633-2.616 2.103-.337-.455-2.616 2.541-6.163-.088 4.855 2.712 2.638 1.365 4.962 0 0 1.218 1.818 1.552 3.11.48-.102.738 1.964 1.068 3.26 1.26-.314.38-1.453-.092-3.57 1.51-1.947 3.009 3.127 4.586-3.193.622.095.947 2.98 1.356 4.967.342-4.047 4.385 2.757 3.818-4.765 0 0 5.082 1.01 6.634-.242-.584-6.309-2.32-1.785-6.93-1.459l-.572-3.413c1.402-1.302 2.237 2.537 7.903 1.168 0 0 2.537 7.112 3.593 6.056-.543-3.744-1.319-5.298-2.329-4.659-.125-1.358.071-2.105 4.882-1.498 1.748 2.677 2.224-4.098 3.998 2.352l-4.102 3.059s6.188-.387 5.654.062l-6.397 1.959 4.761-.775 8.52-1.386 5.116-.837 7.231-1.162c2.62.242 6.13-2.34 8.608-.37 0 0 8.976-1.359 9.447-1.724l8.784-2.688c-.56 1.948-1.736 2.655-3.105 2.997 0 0 5.4-1.46 5.341-1.908.901-1.28 3.313-5.294 7.277-.124l11.913-1.914c1.13-1.796 3.284-1.718 7.986-2.29l7.657-1.23 6.563-1.762c1.711-1 4.206-.926 6.652-.309 2.178-.578 4.414-1.324 10.047-1.235-.576-3.772 1.949-1.336 2.633-2.604 2.537-1.572 4.527 1.819 8.112-.685-.176 4.16-3.626 1.774-6.138 3.946 1.87-.028 3.776.023 5.937.32 3.038-1.1 5.396-.062 8.154-.258 0 0 4.66.494 6.012.067 0 0 4.365.416 5.262.253l3.71-2.375c-.063.708-.055 1.224 3.421 2.195-.405-.241-.772-.91-1.765-4.496-1.026-.718-2.52 2.941-6.918-1.46 0 0 1.865-.88 3.613-2.901 1.206-2.43 1.644 2.301 2.533 2.8-.313-6.982-.062-5.467-2.032-11.933 2.053-1.19 6.455-1.493 6.45 1.605-.55 1.157-2.861-1.201-2.16 2.453.605 3.132 1.835.556 2.532 2.818 0 0 7.169-4.822 8.3-2.531.575 1.083 3.12 3.508 5.875-1.814 1.623-.1 1.556-3.654 3.613-2.896 2.967.264 6.451-4.333 9.08-.988.692-.129.93-1.14 4.594-3.194 1.84 1.314 3.935-2.307 6.855-2.094 2.47.405 5.466-4.019 7.607-.527.576-.747.534-2.717 1.673-2.313 3.835-1.762 6.434-.623 9.276-2.829 1.84.584 4.177-3.576 5.666.073-4.69 4.507-11.257 5.282-16.523 8.622-1.34-.674-3.18 3.228-6.146.095-2.763 5.013-8.863 3.312-14.38 6.18l-6.83 2.083-11.245 3.447c.53 2.424 1.565.157 2.053 2.98 2.587 1.735 3.396-5.9 5.366-1.656 3.134-2.986 3.388-.247 6.639-.252 0 0 2.015.32 3.517 2.514l.597-5.551c1.089 5.866 3.208 2.268 4.765 3.912-.493-3.233 1.414-1.678-.668-6.971l6.355-1.937c.284 3.952-2.629 1.493-3.618 2.897.334 2.79.956 2.795 1.357 4.967.091-4.114.471-3.536 3.609-2.907 3.739-.163 5.032-2.015 8.116-.685 1.54.842.409-3.671 1.377-3.997.338 1.291.58 3.363 1.06 3.267 1.927-.27-.055-1.46 1.869-4.176 2.29.68 4.414 2.846 6.935 1.482l2.144-2.448c.418 1.993.735 4.873 2.04 2.959-.442-.247-.813-1.258 3.627-2.897.705 3.671-1.603 1.302-2.157 2.448.296 1.712-.05 2.15.079 3.558 2.078-1.639 3.563 2.1 5.67.068.434 3.873-2.29 1.42-3.13 2.756 1.265 5.742 3.79-.146 5.55 5.467 2.884-1.993 5.02 1.01 6.835-2.082.388 2.245 1.127 1.296 1.552 3.11l-3.617 2.89c.934-.932 1.74-.662 5.136-.718.03-.78.163-1.359-.058-2.627 0 0-4.51-1.886-5.053-5.62-.488.152-.342 1.561-4.598 3.195-.43-3.88 2.29-1.426 3.125-2.745 0 0 1.047-3.767 1.87-4.148-.322-1.359-.773-1.555 1.877-4.165.442 2.413.897 4.805.375 5.26 1.594 2.009 3.589.33 7.119-.388 0 0 2.804-5.462 3.835-4.743-.268 2.733-.944 4.148.85 5.108-3.362.881-8.57 2.846-8.303 2.543-2.311 2.593 6.25-.528 11.813-.017-.455-3.093-1.16-3.845-2.04-2.975-.376-1.903.258-2.857-.576-3.408-.343-2.56.913-1.92 2.637-2.587-1.027-3.548-2.212-5.664-7.49-4.89-.3-1.711-.739-1.908-1.064-3.26 2.086-1.033 2.917-3.705 6.15-.085.547-6.601 6.722 14.785 4.94 11.036 1.933 1.633-.558-5.63 1.373-4.014l4.895-1.482 6.346-1.925c.297 1.712-.05 2.161.092 3.564.522 2.42 1.557.152 2.037 2.964-.747.376-2.003-.241-1.665 2.29 1.172-.611 1.96 2.235 3.993 2.375-.33-1.342-.776-1.566-1.06-3.256-.409-4.94-1.435-4.221-.459-8.84l5.374-1.628c.297 2.099.534 4.092-5.09 3.345-.73 1.089.525 1.746 4.978 2.077 0 0 7.82-5.265 5.174.219l-9.009 4.53c1.298-3.177 1.269 5.703 2.345 4.67 1.164.477.517-2.717.109-5.411.663-.365 1.322-.702 5.17.219.554 3.732-.618 4.03-1.862 4.153.572 4.805 2.433-2.155-.413 3.694-.605.297-.313 2.408.088 3.57 1.606-.05 3.426-2.116 5.295-.326.839-4.468 3.926 1.41 7.69-1.835l4.398-1.325c3.109-2.2 5.612 1.039 10.523 1.65-.805-3.665-2.153-2.39-3.388-2.032 1.198-5.327-.6-.46-1.644-6.674 2.25 1.072 4.653.792 7.624-.527 1.669.612 3.843-3.452 5.178.219 0 0-8.6.454-6.076 3.643l4.407-1.33c4.327-2.167 8.366-1.702 12.497-2.01 1.28-4.03 3.463.387 5.87-1.79 1.92.858 1.448-3.105 3.13-2.735l4.394-1.324 5.67.084c2.579-1.454 3.038-2.767 6.071-3.637 0 0 3.547 2.093 5.17.235 1.715.803.159-4.973 1.874-4.16.417 1.887.985 2.488 1.552 3.11.292 1.707-.054 2.156.08 3.565-2.145-.5-4.824 3.795-6.643.219-.61.264-.31 2.38-4.599 3.183-1.022-2.161-2.411-1.039-6.15.073-1.67-.64-3.851 3.452-5.174-.236-1.607.556-1.961 3.615-3.83 4.743-2.25-1.089-4.64-.786-7.127.365l-6.848 2.088s-11.011 3.233-9.288 4.614l4.198-1.28s4.106-.112 4.815.77c0 0 5.053-.77 5.278-.803.009-.388 0-.78 2.416-1.97 1.586-.73 3.209-1.836 7.532 1.386 0 0 6.459-3.295 6.784-.343 1.09.927 2.996-.74 6.092-1.852-.6-.247-.9-3.284-2.528-2.807-1.886-.022-4.081 2.762-5.654-.09.943-1.852 3.192-2.694 4.882-1.476-.171-3.648 3.1-2.834 4.882-1.476 2.078 7.033-.847 3.985 2.608 6.365.112-1.644-.117-4.013-.643-6.954.66-.36 1.331-.708 4.961 2.071.213 2.812.814 6.69 1.711 6.994l-.233-3.031c1.514.258 3.517-1.044 9.438-.09-.338-1.426-.071-1.667-2.04-2.97-.885-5.556 1.614-4.305 2.566-6.146 4.744-1.094 1.615.365.083 3.565 2.107-.517 3.885 1.807 6.146-.062-.383-2.178-1.014-2.184 3.334-4.609l4.415-1.33c.259 1.667-.384 1.504.56 3.419 1.555-1.931 1.79-5.327 5.386-1.634-.184-4.215 4.19-6.348 7.815-2.357 1.231-2.925 4.315-3.862 6.355-1.92l4.398-1.32c1.114-.14 4.911-.555 2.374-4.293-.847 1.313-3.567-1.157-3.142 2.733-.442-.28-.976.258-2.036-2.975-6.735.966-13.607 3.419-20.124 2.492l-6.347 1.915c-1.778 1.773-3.067-.78-5.391 1.633-1.327.775-2.545.309-.08-3.559l4.891-1.476c5.883 1.285 6.68-3.587 12.021-1.852 2.587-2.072 4.665.505 7.127-.348 4.544.353 3.71-2.386 7.615-.506.56-1.15 2.863 1.235 3.35-4.597 1.023.724 2.533-2.936 5.947 1.808 0 0 1.886-2.268 2.17-2.448 1.568.904 4.952 1.061 7.698 3.06.459 3.575-2.07 1.117-1.878 4.153-.705 1.24-3.221-1.201-2.658 2.6 2.057 4.198 5.383-3.004 7.42 1.335 1.318.91 2.745.77 5.449 1.942-.472-2.806-1.51-.533-3.293-4.384-.408-2.34-.396-3.805-.358-5.265-1.244 1.695-4.194 5.024-3.99-2.38 1.515-.847 2.567 2.397 6.927 1.51 1.698-1.066 3.221-.696 7.131-.36 2.45.77 1.778-4.731 3.067-6.303-.889-4.855-2.554-2.503-4.486-2.228-.421-3.879 2.304-1.415 3.147-2.74 2.82-1.027 3.546-5.32 6.154-.056-.538.45-1.444.113 3.004 2.684.664 1.105 1.26 2.89 2.112 6.539.28 1.7.734 1.914 1.06 3.261-1.273 2.442-3.877-4.305-8.112.634 0 0-6.718 2.336-7.135.365-2.437 2.094-4.235-1.566-6.635.191-3.488 2.678 2.254-.51 3.568 6.096 1.243.606.154-3.469.905-3.845 1.49-.494 2.971-.842 4.065 5.939 1.944.988 1.247-3.132 1.11-5.703 0 0 3.534.808 5.182.236 1.114-1.073 2.02-.214 5.17.23 1.927 1.886 4.068 1.875 6.801-.444-.547-5.102-3.492-1.178-2.478-4.434 1.243-.13 2.403-.455 2.653-2.582 1.294.937-.012 2.739.918 5.944l.263 3.037c1.148.651.997-1.768 1.04-3.172-1.127-3.064 2.098-7.078 8.127-5.343l.84 5.119 4.401-1.314c1.398-1.285 2.224 2.571 5.17.253l6.927-2.054c.242-.489.116-1.65 4.306-1.291 0 0-4.928-2.712-1.536-3.121 0 0 7.206-3.144 6.146-.045l.56 3.424c2.182.078 2.55-3.38 6.613-2.391.034 1.2.317 2.851-2.416 3.053-2.203 1.185-5.796-.455-6.572 3.604 3.555-.758 6.827.948 12.297-.079.367-.426.576.528-2.153 2.442 1.285 7.106 1.485-2.481 2.996 2.683 0 0 1.427-1.386 2.604-2.565.1.881.046 1.47 3.058 2.666.463 2.83-1.197 1.37 2.52 2.835 1.286.05 3.301-4.367 6.343-1.886 1.143 2.29.747 3.093.238 3.637 1.623.719 2.532 3.783 4.852 2.257.113 1.914-1.327.92-.993 3.238-.45 1.112-1.364 1.365-.308 2.504.242-.37.421-.83.838-2.268 0 0 4.252-1.313 4.002-2.004-.092-1.296.413-1.476-.267-3.03-.993.15-.088-2.768 3.087-3.57-.688-2.965.78-1.943 1.507-2.285-4.06-1.168-.99-1.342.484-4.171.396 3.475 1.01 4.648 1.373 5.905.008-1.392.434-2.01 2.34-2.43.46 1.437-.1 2.368.242 3.626.585-1.033 1.181-3.772 3.351-6.259.488.14.755 1.016 2.791 2.61.255-.09.484-.224.568-3.16 1.072-.477.684 3.862 1.949 2.75-.53-.853-.468-3.693-1.528-2.812-.383-2.397 1.966.241 4.252-4.788-3.046-1.948 1.16-1.269-.359-4.036 1.398-4.732 3.948 2.515 3.923-3.705 2.374.37-.73 5.642 1.297 4.9 1.507-.65 1.603-3.255 1.728-4.372 1.844-.314-.021 4.103 1.715 4.827.029.623.046 1.207 3.204 2.549-.571-2.049-1.514-2.874-2.783-2.616.826-1.903 1.423-3.228-.363-4.036.363-3.306 2.625.848 3.81 4.49.23-1.897.596-4.832 1.907-2.357 0 .865.25.92 1.948 2.75 0-1.745-.496-1.846.568-3.16.041 1.19-.547 2.397.275 3.026.601-.298.159-2.51 1.732-4.384.78-.241-.017-3.38.976-3.228 1.385-1.133.668 2.538.276 3.02-.977.73-.535 4.047.367 4.036-1.473 2.56 1.151 3.525-.468 4.16 1.732 4.204.739-3.576 1.306-4.306 1.16-1.223.948 2.122 1.206 3.89.973-2.324.025-2.97.288-6.18 1.118.365 1.59 1.106 2.746-2.498-.296 1.404-.405 3.16-.88 4.238 1.093 1.796 3.27 4.985 4.46 2.33-2.25-4.57 1.456.387 6.943-3.189-.405 1.449-1.08 2.223.276 3.02.692-1.42-.297-4.816-.455-5.035.863-1.903 3.813.489 7.114-1.184 1.677 1.993 2.453-1.168 5.729 2.122.321-2.465-.238-1.87-.058-5.108 3.726 2.722 5.787 1.184 7.21-3.93 1.076.758 2.057 1.853 4.844.904.063 1.987.747 1.897 2.988 4.62 1.452-.545-1.736-2.487 1.485-2.302-.563-3.44-2.695-1.616-.901-4.967-.255 3.935 1.886-.113 5.825 3.115.213-1.555 1.206-1.673 1.898-2.358-.066.635-.671 4.053 1.644 3.817-.625-1.246-.317-1.554-.07-5.113 3.55 1.835-1.265 1.594 3.734 3.474-.747-2.576 1.76-2.935-.288-3.025 2.712-2.386 8.525 7.5 10.678-3.834 1.498 1.448-2.007.674 1.13 2.88-.175-1.432-.342-2.84.547-3.166l.292 3.014c1.377-2.273 3.138.786 2.733-2.498.61.174.693 2.133 1.131 2.885-1.623 1.308-3 1.207-2.533 4.508-1.139-1.078-2.048-2.93-3.325-3.525-.647 2.155-3.405.454.392 4.024-1.427-.656-.618 2.762-5.153 3.935-1.085-1.993-1.13-7.696-2.057-3.744 0 0-.347 1.701-1.486 2.296-1.364.561-2.178 2.122-3.989 2.717.267 1.6-.225 1.796-.133 3.087.087-2.402-1.732-1.925-4.895-2.245-.83.146-.267 2.834-3.571 2.65.33 3.665-.81 4.624-2.546 4.518.38 2.228 1.198 3.06 1.54 2.8-.305-3.075 2.474-4.855 4.74-3.861.434-1.864.163-2.352.968-3.228.346 2.313 1.381 4.946-.125 3.093 0 0 2.199-2.453 4.894 2.246.297-.848.843-1.235 4.507-1.78.033-2.986 1.84-2.756 2.024-5.456 1.097 2.941.045 1.347-.447 4.165.985 1.353 2.32-.657 5.024-.836 1.126 2.043.108 2.172-1.277 4.3-.13-4.76-2.787-1.814-2.746 2.514 1.31-.118.893-3.379 6.193-2.06.212-1.83.434-3.632 3.676-1.645.283-.589.58-1.167 5.028-.853.876-1.532.062-2.06 4.506-1.79 1.67.814.947-2.706-1.24-3.88-.992-.274-4.105 3.88-5.015.848-.288-2.16 1.436-.707 4.82-2.868 1.886.444 3.876 1.712 3.15-2.576.467 1.555 2.024-.573 1.757 4.821-.856 2.779.888 1.5 1.556 2.807 1.615-.09.063-.848 2.629-3.514-.601 2.049.204 2.532.492 5.03 2.454-.814 5.788-.034 6.405-4.16-2.053 1.05-4.79 5.114-5.962 0 .559-.331 2.102-1.021 5.858-.999.325-.505.66-1.016-1.56-2.818-.163-3.592 1.526-3.845 2.127-8.543 1.47-.887.092 5.046 3.33 3.536.697 3.997-1.51 2.762 1.03 5.961-.175-2.234 1.732-.73 1.778-3.373.196-3.34-1.418-.539-1.23-3.879 2.415-1.521 2.336 1.482 2.912 3.587-.08-2.908.78 1.527 4.802 1.224 1.724 1.19.518-2.897 1.886-2.375 1.186.13 1.04 3.003-1.785 3.38-.217 3.25-2.216-1.853 2.082 3.75.275 1.75.951 2.171 2.503 3.659.134-2.223.668-3.738 2.625-3.525 1.101 5.933-4.11.578.509 5.04-1.677-2.946 1.556-.707 3.25-5.674-1.222-9.42 7.695-1.78 8.487-8.628-2.065 1.089-4.54 2.139-7.531 1.297-.134 1.392-.701 2.015-1.469 2.29-.926-.444-1.619-1.695-2.09-3.733 1.302-2.2 1.577.124 5.432-.937.142 1.24 2.345-.651 6.172-2.083-.505-2.161 1.927-4.417 0-4.092-.134 1.403-.693 2.02-1.878 2.374 0 0-5.458 2.14-6.689 1.14-1.694 1.386-3.763-1.358-6.889-.864.555 2.486-1.105 3.115-2.616 3.525-1.364-.483-.876-.562-5.115-.146.554-1.387.3-5.956 1.043-2.229 2.557 3.026 7.406-3.328 9.305-4.664.333 1.678-.13 1.953 1.556 2.795 1.177-.213-1.268-2.57 2.616-3.52.092 1.797-.48 2.425.317 3.02.685-2.48 1.665.068 6.685-1.139.53-.421.642-1.566 1.46-2.296.476-3.166 2.566 3.907 2.295-2.458-.676 3.02 1.999 3.233 3.342 3.52.35-.73.184-2.387 1.453-2.297.388 2.914 3.079-.83 5.015-.87 2.036.365 2.262-2.486 3.851-3.738.305 2.189 0 3.261-.939 3.233.99.937 3.597.152 4.803-2.874.872-1.538.046-2.06.522-3.171 1.569-.46.225.802.73 2.94 1.277-.162 2.032-1.273 2.604-3.519.463 2.195-.651 1.578-.514 3.172.943.528 5.229-.421 4.156-4.822.814 1.37.943 4.407-.409 4.16.121 2.34 1.327.909 1.573 2.812 1.453-2.251-.496-5.675 2.379-5.552.513.09.555 1.768 1.164 2.869 2.195 1.46 1.047-3.02 1.648-4.384.121 3.727 1.319 3.704-.492 7.246.663-4.305-2.099.78-1.448 2.307 1.18.904 1.648-3.396 6.054.988-.81-.084-.797 1.297-5.316 1.96-2.178 1.34 1.236 1.655 1.578 2.8-.075 1.218-.205 2.358-2.604 3.525 2.287 1.466-.893.354-.096 3.093 0 0 2.658-1.818 5.854-1.027-.108-1.005.209-1.263-.012-4.092 2.153-.606 4.168-.713 4.39 1.269 1.034 5.669 3.25-4.81 6.484.92-.61-4.047 2.482-1.571 3.542-2.677-1.177-3.335-.133-3.649 1.04-2.217.583-1.915-.923-3.026 1.743-3.39-.12 2.475-.634 4.27 3.18 5.584 2.583-1.392 3.993-.337 6.638-5.282.518.079 1.169-.381 3.263 2.51-.425-.843-.7-2.195 2.996-3.616 2.487-.134-4.435 3.374 1.598 2.79l7.924-1.409c3.276 2.139 5.174-6.315 7.44 1.746-.664-1.055-3.522-1.426-4.06 1.763-1.531 1.212-1.448-3.318-4.402-1.275-2.525 2.358-3.876 3.177-8.654 2.566.096 1.981.789 1.891 1.168 2.857-1.018.342-1.469-1.353-5.537-.05-.567.364-.521 1.79-1.026 2.244-.121-1.914-.718-2.138-.877-3.951-2.04.595-3.613-.399-1.74 3.385-.625-1.067-1.61-.87-3.68-2.42-.008 3.295 1.532 1.134.864 3.946-1.314 1.819-.63-3.362-1.586-2.79.046 1.438-.797 1.308-1.03 2.223 0-1.453.317-1.779-.751-2.93.642 3.868-2.266 4.076-7.807 6.49 1.443 2.542-1.319 1.807-.714 5.236 1.085-1.6 2.383-2.823 3.86-3.744.033 1.73.53 1.836-1.765 3.385 2.024 2.666 4.853 2.992 7.623 1.965 1.895-.78 3.476-2.28 4.085-4.036 1.636-.45.038 1.572 1.59 2.8.584-.06.868-.645 3.964-2.75 1.064-.5.76 3.829 2.007 2.706-.793-3.278.213-3.39 4.269-3.823 1.239-1.111 1.477 1.314-.806 4.238-1.727.54-2.165-1.28-6.697 1.196-.847 1.066-1.698 1.566-7.114 1.257.088 2.032.438 3.121 4.097 2.352 3.46-.774 3.405-.432 6.702-1.19 2.44.713 4.302-2.778 8.057-.415 0 0 1.665-.101 4.498-1.813 0 0 1.485-1.168 5.437-.977-.647-1.23-.342-1.55-2.967-3.57-.684 3.026-2.687-.926-5.44.966-.902.886-2.392 2.784 1.03-2.223.392-.926.968-1.533 5.44-.977.51 1.74.773.017 5.008-.898 1.293-.971.872 1.88-2.274 2.458-.367.994.284 2.246 2.14 3.716.56-.544-.32-1.251-.354-3.014 1.256-.702 1.464 2.318 2.136 3.722.505-.455.455-1.886 1.632-4.407.504.084.55 1.78.755 2.947.242-.926 1.085-.797 1.026-2.234.885.146 1.135 2.565 2.032 2.711.451-1.105-.371-1.616 3.401-3.682 0 0 4.74.836 5.98-.05.308 3.21-1.198 3.255-.977 6.314 0 0-2.65-.931-4.419-1.251.009.791.217 1.987-3.53 2.683 1.899.572-1.56 1.555 1.185 2.868-.492.197-.955.466 1.61 2.779-.229-1.993.994-1.488.781-4.233.576.315 1.018 1.129 1.198 2.863 1.372.51.48-2.913 4.485-1.847 0 0 5.775-2.7 7.532-1.352.526.022 1.026.123-1.436 2.307-1.068.988-2.687 1.51-.897 3.238-1.268.478-2.257 1.443-3.12 2.61-3.13.017-2.7 2.6-5.33 1.976-.27-2.84-1.472-2.301-2.144-3.699-.038 1.263-.296 2.161 1.302 3.851 0 0-6.726-.135-9.338.668-.05 2.593-1.67 2.447-4.073 1.751.096 2.588-1.627 2.015-1.636 4.395 0 0-.742-3.502-3.705-2.419 0 0 .171 2.992-.07 3.093-.58-.314-1.015-1.15-5.383-2.122-.489 1.308-.226 3.901-.693 5.249-.113-1.915-.722-2.133-.872-3.947-.626 1.05-2.057.719-2.295 2.453.455-.016.48 1.23-3.121 2.605 1.36.247 1.569-1.55 1.752-3.39-1.035.325-1.101 2.16-4.84-1.185-.05 1.527-.346 2.638 2.963 3.576-2.037-.522-.26 1.65-1.035 2.228-2.15 1.039-2.967-2.621-4.444-5.36-.467 2.16-1.686 2.97-2.487 4.54-.117-1.004-.467-1.127-3.28-2.486-.767 1.611.806 2.358-3.016 3.598-1.582-1.628-5.033 2.071-8.191 3.492 0 0-1.256-.708-2.003-2.723-2.02-.46-1.085 1.336-1.46 2.307-.722.197-1.336.006-6.405.096-.414 3.059-1.377 5.192-3.768 4.754.375 2.301-1.098 1.336.317 3.026.275-1.46.747.297 1.047-2.234 0 0 2.112-2.066 2.72-2.526 1.84.617 2.947-2.111 9.669-1.701-1.006 7.028-5.362 6.416-10.277 7.954.062 1.195.383 2.846-.096 3.081-.58-4.743-1.624.663-4.524-2.273.789 1.521-2.436 1.224.318 3.009-.802-.438-2.341 1.65-2.42-2.639-2.446 2.257-6.072-.42-4.624 4.89-.747-2.51-2.182-.977-2.111-3.722-1.106-.432-.538 2.116-3.885 3.733-.409-1.336-1.636.129-.738-2.925 0 0-3.268 2.47-5.154-.151-.041 3.008 2.85 2.829-2.941 4.608-.28 1.14-1.527.59-.947 3.239-.814-.69-1.306-1.51-1.265-3.879-2.224-.797-2.52 2.38-5.149-.134-.822 3.513-1.368 4.838-2.165 7.51-.568 1.7-1.715 1.87-5 1.79-1.238.085-1.898-1.43-3.892-4.327-2.024.91.496.438-.751 2.644 1.552 7.19-2.737.28-6.422 1.824.693.399.968-.297.538-2.301 0 0-2.524 1.257-1.051 2.222.196 1.589.18 3.874.83 3.947-.713 1.111-1.239-.663-2.044-2.577-.568.539-1.47.18-1.169 3.85 1.636-.504 3.973.87 5.496.074.943.937 3.313-2.088 3.868 1.7 1.151 0 3.717-4.754 5.153-.056-.392 3.817 1.852 5.557-.618 5.254-1.581-.219-3.1-.235-3.843 1.791 0 1.763.526 2.088 5.162 3.43-.864 4.008-4.465.713-6.413 1.83-.664 3.974-4.035.712-7.06 1.83-.756-.259-1.824.32-1.953-3.48l-10.277.123-5.141.062c-.125 2.525-1.911.634-1.903 3.525l5.78-.073c-.61 5.265 1.455 3.087 2.595 3.469 3.425-1.18 8.562 2.2 10.907-1.875 6.292.808 14.107-.32 20.554-1.976l5.796-.056c.517-.343.626-1.752 3.2-1.78.234-4.193-2.925.994-1.953-5.231 1.795 1.527 3.923 2.139 7.102 5.18 2.495.91 3.126-3.154 9-1.84l3.226 1.734c1.444 4.861 4.586-.286 6.442-.05.088-3.795-2.294-.775-3.23-1.73-.992-1.655 6.627-4.013 7.082-1.807-1.803 3.7-3.31 1.168-.626 5.26-3.764-.264-6.163 3.098-10.294 1.824-5.666-1.375-8.604.657-12.226.107-2.315 4.49-4.314.326-6.413 3.564l-8.358.09c-6.125.303-12.985-1.364-17.329 3.677-1.94-2.229-7.685.1-10.268 1.869-3.56-.876-7.282 5.001-10.27.124l-5.778.067c-.864 4.008-4.465.718-7.69 1.858 0 0-4.94-.567-5.12 1.813l-5.137.056-6.417.084c-2.116 4.064-7.035.696-13.448 1.926-.555-.326-.601.69-5.124 1.807-.885-.067-1.402.848-5.128.062-1.966-1.235-1.87 3.048-5.225 2.385-.88 1.174-1.994 1.41-6.484-.488 0 0-.346.573-2.816 2.038 0 0-2.646 2.61-5.32-.208-1.56.612-3.58 0-9.03 1.038-.196.253-.409.472-4.753 1.303-.025-.202-.008-.376-1.66-2.448.016.107.054.163-2.754 2.055-.305.808-.434 1.948-.467 3.267.888.067 1.64.527 4.076 3.682-.434-.634-.63-1.538 3.735-1.78l6.534-.072c-.033-1.477.534-1.87 1.277-4.43.28 2.167.137 3.57 1.135 2.886.893-.848 1.256.05 3.88 1.476-.947-3.059-.617-3.98 1.252-3.52 2.199-.78 3.601.657 5.145 1.696l7.69-.09c2.608.213 8.391 1.375 11.525-1.897l5.132-.062c3.513-2.498 6.889 1.42 15.38-1.936l5.78-.08 5.127-.06c.005-1.702.78-1.365 3.2-1.791 4.132-.27 2.17-6.394 9.59-5.361 0 0 3.091.993 5.136-.062 1.36-3.261 4.694-1.235 7.694-1.84 1.594-1.488 3.426-2.336 5.771-1.82l5.78-.061c.529 1.493 1.768 1.01 5.16 3.43l8.984-1.847c1.82-2.038 3.342 2.032 3.18-5.282l6.43-.068c2.457-1.493 5.153-2.33 8.353-1.824 1.14.387 3.213-1.78 7.094 3.435 0 0 4.431-2.531 5.779-1.802 1.59.225 3.104.253 3.86-1.768l10.293-.073c1.09-.657 1.223 1.353 1.294 3.486.405.505 2.5 4.339 5.153-.04.008-1.695.78-1.346 5.145-1.767.1-2.05 1.168-1.471 4.502-1.763l5.804-.022c.822-2.42 2.792-1.746 7.081-3.52 1.581-.236 3.1-.275 6.438-.011 1.607-2.077 3.797-2.537 5.809-3.503.434-7.544 5.854-1.605 10.965-5.248l5.166.005c1.072-2.913 3.797-1.37 5.808.023l7.11.034c.943-.943 3.33 2.065 6.464-1.713-.109 2.027.13 3.11 5.157 3.531.13-1.403.655-1.723.668-3.486.288-1.554.567-3.126 3.242-3.463 0 0 1.46-4.861 2.616-5.237-.012 1.751-.542 2.071 3.213 3.525l3.25-1.712 5.174.05c.78.382.389 1.931 3.864 3.554.355-1.415.697-2.84.68-5.249 1.561-3.424 5.792.556 10.394-3.362 1.874-.174 4.24 1.027 5.208-1.662 3.167 1.909 7.06 1.449 9.747-1.577 2.24-.718 3.634.752 5.174 1.841 1.644-2.627 3.977-3.295 7.185-3.34 1.961-.028 5.63-4.574 7.795.18 2.925-2.066 6.693-1.723 10.456-3.239 1.966 1.325 2.4-1.717 3.927-1.633-.13 2.037.1 3.126.6 3.52 2.074 2.228.589-5.648 3.31-3.402 1.03 2.963 3.797 1.498 7.786 1.987.534-.32.68-1.73 5.891-1.555 3.413-.286 6.51.264 11.045 2.144 2.583 2.515 2.14-3.727 3.985-3.34-.751 6.287 2.508 2.532 4.49 3.671 2.466.926 4.085-.572 4.686-5.057 2.249 5.675 6.384-5.473 9.797.426.834-2.25.321-2.733.13-5.231-.898-5.052-3.143 3.491-1.223-3.559l10.469.494c-.121 1.965.876 2.767-3.363 3.334-.213 1.892-1.336 1.123-1.402 3.424l5.232.253 7.845.404c3.054 1.454 4.552-1.729 7.247-1.364 2.437 2.885 5.575-2.037 9.218-1.212 7.932-1.37 12.897.27 21.818-3.89 5.395.78 9.689-1.763 14.588-2.465l.146-3.485c-3.138-.657 1.201-4.788-1.035-7.084-3.726-1.521-5.967 1.426-9.293 1.083 4.582-6.904 10.72-3.216 16.766-5.787 1.857-4.451 4.66-.185 8.662-1.061-.187 1.403-.742 1.684-2.136 3.329-1.832.937-5.145-2.627-7.995 1.122-3.267 3.026-.258 3.542.221 10.525l6-1.274c.752.342 1.19-.298 6-1.274 0 0 3.91-1.157 4.695-1.353 1.577-.432 2.612-2.56 8.658-1.016 2.641-2.464 6.092-2.369 9.422-2.66l.271-5.232c2.328 4.967 6.655 3.138 9.076 4.367.22 4.782-3.046-1.544-6.134 2.924-1.481-.64-2.504.174-2.82 3.245-.301 3.755 2.298.999 5.85 2.307.917-2.526 2.632-2.481 3.583-4.923 1.185-.275 3.205 2.077 4.248-4.855 0 0 1.298-2.004 1.519-3.34.643.112.396 2.183 3.121 3.817-.86 5.955-.1 8.369 2.345 5.512 0 0 5.833.219 6.059-1.128.104-5.81-3.664-3.15-5.758-4.11 1.33-3.266 3.646-3.407 6.167-2.862-.593 3.828 1.118 2.621.918 7.112 6.784-.124 12.851-2.593 22.081-1.022 3.342-4.232 4.99-1.15 8.316-4.255 8.859 1.814 13.978-4.03 22.72-7.6.213-3.845-2.775-1.111-3.876-2.273.037-2.526-1.94-.87.262-3.47 1.127-.067 3.827 6.198 7.486-.757.797-.18 1.16.545 3.209 2.212.017 1.42.538 1.824.4 3.575-.112 1.695.714 1.46 2.537 2.105 1.369.096 2.529-11.602 3.222-6.567-.422 7.291 2.645-1.611 3.066 3.957-.65-.05-.688 2.043-.943 3.368.393 1.633.397 4.042.109 7.061l5.45.809c-.572 2.52-1.37 4.227-2.621 6.646-.438 3.772.1 5.607 1.61 5.512.489 1.448 1.37 2.1 2.558 2.15.593 1.235.36 4.098 5.037 4.288 1.343 1.482 1.452 5.518 1.644 10.806-1.824 2.638 1.777 10.115-3.297 8.28-.108 1.958-1.16 2.57-.304 3.485-.255 1.33-.71 1.942-1.582 3.273-1.264 10.828 1.895 16.385 5.333 13.151-.271 4.362-1.456 5.3-2.52 6.652-.43 3.744 2.19 1.134 3.037 2.234-.267 4.362-1.452 5.282-2.516 6.646-.354 3.267-2.207.87-2.361 4.917-1.052 5.238-3.28 6.063-2.153 11.143.196-.31.396-.59 2.674-2.262 2.742-1.825 3.902-6.057 6.672-2.482-1.736 1.129-2.846 4.609-4.915 4.514-.1 1.347-.313 2.29-.063 4.872.593.017.601-2.077 3.847-3.093.585.123.334 2.19 3.422 3.89 2.028.999 3.43-.303 4.944-1.213.535-2.295 1.486-3.11 2.63-3.227-.956 6.242 2.232 2.694 3.412 3.873.994.752 1.231-1.24 1.42-3.357 1.601.191 3.492-.286 7.86.831 1.202.112 1.043-4.67 2.617-3.222-.21 2.02-.046 3.115.404 3.548 2.195 1.571.956-9.2 3.426-6.652l-.305 5.231c.993.753 1.223-1.246 1.41-3.362 6.906 8.027 22.867-9.632 34.838-7.005 1.44-3.885 4.944-.135 7.302-1.044 3.392 1.897 5.758-2.947 7.978.752 2.345 9.015 1.398-1.168 5.345 4.008 1.202-.651 3.576 2.722 5.095-3.02 3.513 1.69-.601 4.788.684 10.586-1.34.882-1.982 4.149-3.872 3.133-.684 3.654-2.875 6.567-3.864 3.137-.73.214-.684 3.132-4.66 6.585-1.144 4.967-2.625 8.784-5.363 8.245-3.868 2.538-6.359 9.633-11.566 11.16-.35 1.526-.693 3.059-3.885 4.872-.65 2.531-1.719 3.592-3.2 3.2-.826 2.604-1.965 4.108-5.203 6.483-1.907 2.952-4.665 2.902-6.443 6.376 3.889 3.295-6.714 3.935-7.874 9.711a13.96 13.96 0 0 1-1.435 2.582c3.18-.236 5.825 1.37 9.893 2.723-.237-5.821 6.272-1.735 8.295 3.396.105-2.027-.17-3.11-.713-3.486 2.157-4.328 7.373-1.308 8.316 3.418.597.32.655-.696 2.762-3.52 2.095-.067.71 8.791.025 6.995-3.96-2.302-7.56 5.304-13.135-1.617-7.64 3.677-10.423-.1-19.31.23.575-1.914.57-3.469-1.027-4.76-.434 1.948-1.223 3.026-1.732 4.8l-5.124.061c-.55 2.616-.905 5.934-2.428 5.103.217-2.02.05-3.127-.401-3.553-.492 4.934-1.348 2.716-6.196 1.089-.025 1.83.8 1.684 2.64 2.778 1.703.517 3.435.977 5.208 1.32.94.14 2.266-.843 4.77 1.728.375.466.805.77 5.729.163 1.94-1.465 1.798 2.442 3.455 1.706 2.486-.752.968 3.183-3.923 1.797.272.42.514.903 5.325 1.678 1.53 5.147 6.2-1.79 8.282 1.65l-.029-3.497-5.508.068-.042-6.995c3.622-.494 4.95 4.946 8.304 5.142.271 2.98-.522 3.306-1.36 3.514-.088 3.795 2.449.77 3.459 1.7 3.325-1.15 4.873 2.252 9.672 1.662-.009 6.31-3.618 3.643-4.803 7.034 2.007 3.115 8.583 1.077 5.871 7.864 1.953-.46 3.826-1.09 5.379-2.01-.727 1.398-1.753 2.43-2.913 3.262 1.594 1.122 2.887 2.627 6.897-2.251l.017 3.497c1.644 4.013 6.81-1.005 7.615 5.192 0 0-5.4-.797-5.516 1.79.897 2.397 3 1.707 6.221 3.447 1.269-3.38 1.265-1.38.66-7 1.53-2.896 3.746.343 4.139-1.779.671-.05.53-2.144.68-3.503 1.54.753 3.76 3.986 5.524-1.79-.167 1.908-1.372 1.195-1.377 3.508.964 1.706 4.49.376 5.53-.045.67.045.542 2.133.696 3.492 1.765.174 3.292.97 4.148 3.469 1.368-.034.863-4.777 2.753-3.514-.922-10.643-10.143-5.513-.016-8.746.584 2.021.922 4.682.71 8.734 2.828.713 2.761-5.764 6.166-3.525.213-4.636-3.83 1.65-2.745-5.231 3.02-1.864 5.299 3.446 6.851-.023-.209-1.033-.421-2.054-.764-2.745 1.206-.712 2.888-1.2 4.67-1.2-1.799-.006-3.464.482-5.963 2.205-5.454-2.223-9.38 4.289-10.31-1.706.446 2.913 3.079-2.98.684-3.503-1.377-4.019.167-1.942.68-5.237-2.111 1.274-2.032-3.009-4.152-1.729-3.634 1.078-5.942-1.246-8.992-1.678-1.627-.54-2.604-2.74-4.844-1.712-1.244.236-1.473-2.122-4.849-1.712-.939-2.908-3.092-2.689-4.172-5.215-.701 1.15-.701 4.036-2.066 3.52-.66-1.853-2.558-.534-2.103-5.232-1.448.567-5.996.314-3.48-3.475 0 0 6.685-1.24 7.624-.05 2.733-2.28 1.44 5.737 4.168 3.458-.789-2.145-.618-3.582.68-3.497 2.583-.13 4.386 1.728 6.242 3.452 1.123-3.89 4.95.151 6.234 1.69.004 1.762-.555 2.099-.68 3.508-.108 3.794 2.454.769 3.46 1.723 1.668-.735 1.514 3.188 3.467 1.712.283-3.649-.484-4.614-.71-6.983-.354-5.883 4.582 1.392 6.238 1.7.797 1.472 1.836 2.308 3.426 1.74 3.743-1.919 8.387-4.422 13.699-.038 0 0 3.722-2.661 5.47-.012l5.483-.01c.914 10.328 10.302 3.76 5.474 1.734.025-1.701.839-1.353 3.426-1.757l.008 3.491c2.57-.174 8.4 1.729 9.576-5.27-1.185 1.06.063 8.296-1.356 8.75-.609 3.632 4.661.46 2.062 3.486v3.497c.254 4.766-5.688 8.74-9.576 8.768-1.01.92-1.715 2.599-1.36 5.254.504-3.946 3.838-.696 5.478-1.763-1.164 1.673-1.494 5.49-2.036 8.746-3.63-.505-5.658 3.048-8.9 3.525-1.649-.713-1.486 3.188-3.426 1.751-1.653-.707-1.482 3.2-3.418 1.757-2.182 1.499-2.603-1.515-3.425-3.48-2.053 1.145.65 3.733-4.79 7 3.079 6.27 6.793-.32 11.645 3.463-1.519 6.304-5.908 5.484-8.896 3.53 4.127 3.391-.893 5.81-2.729 7-.062 4.463-2.29 3.464-4.097 3.498-2.187-1.46 1.206-2.302-.697-3.48-.876 2.402-2.967 1.723-4.786 1.745-2.357-.752-3.843.707-5.479 1.768-1.193-.123-2.136.404-4.118 3.53 0 0-7.569.562-6.355 1.062-.321.527-.697.937.171 2.475 1.135-2.93 4.035-1.42 8.25-1.802 2.82-2.172 7.21-.263 9.588-3.536 1.615-.045 2.02 3.009 6.847 1.735-1.21 3.878-2.983 6.354-6.154 5.26-2.245 2.418-4.77 4.13-8.208 3.519 0 0-3.784 1.476-4.807 1.78 0 0-4.523 1.936-5.495 1.79-2.286-.376-3.747 1.319-5.049 3.401.985-.061 2.003-.202 5.875-.32 1.369-1.021 3.318-3.452 3.247 1.97 2.603.725 5.115 1.27 10.16 2.987-.071 1.403-.543 1.79-.684 2.408 3.087-4.951 4.827 2.773 8.925 2.851-.025 2.661-.847 3.29-1.915 4.278-.322 1.403-.643 2.818-.643 5.231.146 5.675-1.81 4.9-1.949 9.717 2.09-1.05 4.478-1.18 5.875.005-2.086 3.031-5.787 4.682-6.985.713-1.564-.982-2.85 4.036-3.033 8.695-1.398-1.083-2.662-2.565-4.698-1.835-.338 5.95 2.703 2.234 2.858 6.797 5.695-1.386 11.52-3.098 17.35-5.624 1.86-3.441 6.016-1.028 8.962-1.735-1.498 2.633-3.889 2.986-6.213 3.497.514 3.935 3.868.685 5.517 1.752-.134 1.414-.693 1.74 4.147 3.502.417-1.566.83-3.132 0-3.502 1.56-3.284 5.608 2.032 8.971.005.614-1.358 1.56-1.875 6.906-1.746.63 6.86-3.647 1.263-4.144 5.249-2.11-1.269-2.036 3.014-6.901 3.486.017 1.706.839 1.358-3.455 1.751-2.111-1.269-2.028 3.014-4.14 1.74-1.743-1.864-4.201 4.34-1.384 3.503-1.035 1.038-5.967 6.343-5.517-.012-2.124-1.307-.843 6.035-3.446 3.498-3.501 6.545-7.745 1.627-10.332 3.474-4.719-2.127-5.32 5.535-9.647 1.74-1.427-1.05-4.531 2.139-4.82-1.762-.007-2.734-1.697-1.207-3.362-2.998.1 1.336.538 1.746 1.782 3.705 1.656.471 2.97 1.93 1.815 5.063-.534 2.116-1.84 1.948-6.518 2.89-.071.197-.18.31-.242 2.308 1.794 2.958 5.262 1.24 5.412 8.785-1.269 3.996-5.053.578-7.306 1.672-1.073 1.589-3.034.573-4.882 5.198.918 6.613 5.804 1.937 7.844 5.316.397 4.766-2.841-1.263-2.445 3.48-.284 3.912-2.975.685-4.235 1.712-.188 8.577 5.846-.556 6.6 5.305l-7.823-.079c-.492.337-.613 1.757 1.181 3.514-.922 5.484-.488 8.397-1.882 8.796a84.83 84.83 0 0 1-.238 5.473c.284.567.593 1.055 3.238 3.233-.618 1.012-1.42 1.478-2.25 1.855h112.788v134.54h-63.423zM98.842 750.435c.556.007 1.179-.048 1.743-.05a9.902 9.902 0 0 0-.846-1.208c-.225.506-.53.924-.897 1.258zm2.682 2.249a5.59 5.59 0 0 1-.05.125l.078-.004a8.37 8.37 0 0 0-.028-.121zm4.92-.14l.22-.012-.1-.781-.003-.003c-.046.246-.085.512-.117.796zm996.914-4.202l.002-.003a12.486 12.486 0 0 0-.013-.066l.01.069zm-10.109 3.357c2.593.371 4.59-.49 6.985-.542a13.54 13.54 0 0 1-.455-.1c-2.658-1.942-4.064 1.499-6.521.404a4.475 4.475 0 0 0-.009.238zm-1066.104-.023h.203l-.213-.136.01.136zm-8.565 0c.47.197.968.37 1.516.497a35.536 35.536 0 0 1-.05-1.638c-.886-.653-1.28 0-1.466 1.14zm-52.73-2.8c.302-.343.558-.814.753-1.456-.832.02-1.635-.09-2.447-.268-.463.22-.845.548-1.112 1.03l2.598-.137c.1.317.167.593.208.831zm-119.757-283.309l2.06.042c1.877 1.01 5.505-1.861 6.204 1.704-3.053.337-5.363 2.384-8.99 1.378-.532-.372-1.361-.08-1.356-1.602.938.084 1.518-.708 2.082-1.522zm103.39-105.691c.32.056.656.105.976.15-1.253.256-2.359.684-3.27 1.4.288-.976 1.047-1.49 2.294-1.55zm7.244-2.188c.868-1.315 1.833-.315 2.63.922-1.301.4-2.657.628-3.996.778a3.528 3.528 0 0 0 1.366-1.7zm8.611-.154l3.747-.554c-1.426.76-3.568.894-5.737 1.003l-2.364.185c.933-.711 3.476.123 4.354-.634zm157.82 397.53c-1.225.206-2.228-.046-3.22-.348 1.073.105 2.141.228 3.22.347zm1412.578-318.37h-.01c-.055-.027-.11-.059-.164-.09.055.031.109.063.174.09zm24.314-31.171c2.332.876 1.426.834 3.931.192-.38 1.518-1.876 1.16-2.619 2.058 3.937.42 6.122 2.233 10.287-.6l.775.036.786.038c-.276.838-.27 2.15-1.02 2.139.668 2.952 4.28 1.013 4.426 2.405-2.83.788-4.571 3.442-8.177 2.895-1.757 1.74-.982-.147-3.124-.147l.12-1.087c-2.256.105-4.284-.07-3.53-3.46-2.31-.908-2.999.975-4.843.856-.791-.032-.835-.926-1.453-1.164.895-2.377 4.853.448 4.441-4.161zm31.808-3.965c2.652-.814 2.272 1.83 3.758 2.362 1.876.07.027-2.983-1.361-2.254.266-1.269 1.55-.852 2.505-.978-.32-3.677-1.676-1.034-3.188-.147l-1.595-.074-3.904-.182c.467-1.35 1.247-2.177 2.576-2.065 3.302-4.066 7.52-3.72 10.926-4.97 1.486.893-3.053 2.513-2.971 5.328-2.853 1.045 2.169.445.433 3.306-.808-.025-1.209 1.868-.233 2.18-.276 1.259-1.388 1.126-2.516.982-.515 1.854.884 2.846-.352 3.27-2.722 1.003-1.996 2.682-3.986-.182-.471 2.132.835 2.212 1.242 3.334-2.364-.897-3.031.989-4.864.877-.054-.894-.667-1.122-.537-2.22.825-.02.76-1.36-.667-1.125-.25-1.595 1.53-5.588-.184-5.483.211-3.088 4.696 1.133 4.918-1.96zm-37.306 56.98c1.23.028 1.952-.536 2.662-1.118 1.42.091.748 2.784 2.717 2.17 5.037-4.06 6.458 2.265 12.542 1.017l3.59-.01c.108 1.223-1.291 1.706.021 2.183-.092.414-.276.722-.547.912-4.816.36-9.587.427-12.575.543 3.14.922 7.667 1.41 12 1.195.12.18.211.376.266.632l8.968-.039 1.79-.004 1.805-.01c-.303 1.255-.488 2.04-.553 2.727-.076-.031-.108-.06-.2-.09l-4.463-.011c-.965.115-1.827.354-1.795 1.679-1.15-.926-2.586-2.093-4.62-.985-.152-.004-.276-.039-.423-.046-.2-.456-.531-.764-1.198-.662 0 .217.038.378.087.536-2.999-.396-5.385-1.514-9.213-.862-.7.249-1.773.042-1.779 1.1 2.36 1.659 4.403 1.406 6.48 1.354a.428.428 0 0 1-.043.045c.2.95.51 1.437.499 1.988-2.43-.263-5.087-1.147-5.108-.12-.304.015-.505-.098-.76-.15l.011-.635-.921-.007c.113-.34.168-.764.06-1.409-.858-.161-2.023.116-2.235-.96.065-.039.157-.064.223-.095-.093-.245-.244-.35-.37-.554-.124-1.493-.53-2.626-1.122-3.474.255-.386.548-.726.532-1.423l-1.876.01c-2.478-1.854-6.068-2.149-7.51-5.49-.37-.147-.58-.54-.7-1.055 1.242.39 1.73 1.718 3.758 1.118zm32.578 14.128c-.136-.473-.515-.648-1.003-.701-.299-.642-.38-1.546-.727-2.128.618 0 1.312-.063 1.838-.19.054.733.255 1.54.613 2.917-.293.099-.51.11-.721.102zm.363 31.59c-.428.073-.857.143-1.28.217.385-.196.83-.33 1.345-.379-.022.05-.032.12-.065.162zm6.892-1.14c.022.07 0 .13.022.203-1.622.25-3.324.414-5.211.344.672-1.462 3.785.025 5.189-.547zm-1.122-26.201c.065.747-.375 1.199-.478 1.564-.96-.036-1.648.063-2.19.2l-.006-.667c.141-1.265 1.405-1.192 2.674-1.097zm6.69 189.813c2.007-.322.576 2.223 1.85 2.514.77-1.553 1.513-1.813 2.261-1.645.46.218.916.414 1.356.586.515.284 1.035.494 1.561.463.781.154 1.47.119 1.996-.263.054-.053.097-.158.152-.221 2.25.245 5.943-.498 4.7-1.56-.384-.34 8.248 1.066 3.976-1.623 4.966 1.518 13.1-.354 23.804-.631 7.288 2.208 9.234.06 12.51-2.377l-1.145 3.194c-2.743.638.206 3.046-2.364 4.108-1.556-.126-1.312-1.605-2.988-1.644l-.845-.137c-8.524 1.76-18.214-.396-27.503 1.087-.136.021-1.746 2.692-2.646 2.952-2.11.603-9.029-2.703-5.596 1.374l-.83-.133c-2.678-1.346-4.69 1.798-5.742-.894-2.798.743-7.554.796-11.263 1.055-.536-1.22-1.312-2.128-1.41-3.912 2.462-.533 5.428-1.823 8.167-2.293zm-1.452-164.863c2.483-.214 3.107-.428 6.593.119.71-.077 1.35-.218 1.99-.372-.255.372-.52.722-.851.985-.488-.02-.943.007-1.47-.066-2.456-.305-4.533-.144-6.512.143.065-.298.152-.56.25-.81zm13.523-33.756c-1.09 3.537 2.901.82 1.817 4.364-1.757-.326-1.768 1.473-2.674 2.188.152-2.38-.759-3.47-2.705-3.264-1.99.607-1.29-2.086-2.712-2.18.37-2.437 4.42-.45 6.274-1.108zm-2.418 33.927c-.136-.336-.26-.67-.434-.95a13.5 13.5 0 0 1 2.7-.34c.098.477.239.842.331 1.157-.954-.063-1.822-.017-2.597.133zm-5.57 129.481c.484 1.13.31 1.673-.178 1.925-.184-.866-.26-1.259-.26-1.662.184-.084.341-.175.439-.263zm12.207 4.053c-1.063.02-2.375-.557-2.89.68l-.852-.126.326-1.073c-1.59-.897-6.008.505-5.678-1.956 2.68 1.111 8.362-.214 9.094 2.475zm8.415 10.278l-2.532-.396c-.499-1.82-5.043 2.212-5.607-1.984 2.245-.449 8.752-1.609 8.14 2.38zm1.86 2.532l1.698.262c1.15.046 6.149.831 3.02 1.627l-4.203-.69c-.715.54-4.782 1.885-4.218-.653 1.312.01 2.982.866 3.703-.546zm3.221-7.359c2.869-.368.7 3.204 3.568 2.83l.342-1.07c2.754.074 3.242 3.138 5.943.971 3.758 1.497 4.87.109 6.068 3.236-1.166 1.016-3.227-.175-3.606 2.794 2.51-.73 6.366-.926 6.49 2.212l6.046 1.02c-.374 1.073-1.15 1.157-1.621 1.988l-2.586-.435c-2.717-2.545-5.933 3.513-6.377.039.77-1.999 3.09-.263 3.67-2.763-5.015-1.048-8.746.53-13.913-1.164-1.524-4.999 3.654 1.36 4.912-1.451l1.063-3.208c-3.774.442-7.765.33-11.186 1.553-2.733-1.377.732-2.647 1.187-6.552zm-7.835-170.767c-1.676.877-3.28 1.84-5.374 2.205.2-2.019 5.135-7.14 5.374-2.205zm48.146 1c-2.142-.446-1.93 1.998-4.441 1.097l-.017-3.278c1.584.603 3.704.56 4.458 2.18zm-37.198 59.367c1.914-.743 3.676-1.84 4.934.34-2.738-.795-2.635 1.88-5.373 1.087l-1.237-.007c.467-.473 1.03-.95 1.676-1.42zm9.413-2.927h.895c5.889 1.48 20.193-5.486 17.888.014-1.306.59-4.62-1.286-4.473 1.087l-10.736-.01c-.017 3.172-5.054 2.573-6.263 1.083.2-1.57 2.667-.372 2.69-2.174zm-1653.6-57.738l4.122.084 1.382.028c.353 6.18-3.795 1.746-5.541 3.015l.037-3.127zm-33.64 15.075c.32.136.661.213.9.529l-.342-.021-.287-.028-.298-.014.027-.466zm-6.99-11.187c-2.353 1.732-1.654 1.833-1.437 7.81-2.863-1.724-3.03-.462-6.198-.112l-3.443-.066c-.293-1.402-.58-2.822-1.35-3.159-.266-3.512-3.384-.708-4.804-1.665l-.017 1.57-6.886-.13-.694-.013c.022-2.59-1.898-.915-2.034-3.176l-1.377-.021c-2.11 1.097-2-2.745-4.116-1.648-.238 2.124-1.74 1.266-2.765 1.514l-4.143-.084c-1.16-.589-1.307 1.203-1.41 3.113l1.383.025c3.52 1.293 5.027-2.09 8.28-1.416-.905 5.928-9.082 3.2-11.04 1.363.168-4.448-4.522 1.81-3.405-4.77 2.9.27 3.882-2.763 6.209.122 1.474-4.638 3.61 2.145 6.192.119.336-3.488 3.4-.575 4.837-1.469.808-1.385-.38-4.385 2.787-3.078 1.356-.449 1.345 2.142 2.039 3.17l1.377.02 4.137.084 8.259.155 8.952.172c.418.09.814.248.667 1.57zm-56.691 30.762l-.299-.014-2.022-.091c-1.052-.586-2.917.971-3.449-.989.358-.687.808-1.065 1.464-.788l.58.028 3.465.157.293.018-.032 1.68zm-10.222-22.643c-1.204-.922-4.067 1.802-4.12-1.64l2.76.042c1.3.375 1.54-1.732 2.776-1.518-.022 1.574.536 1.882.656 3.162l-2.072-.046zm-1.664 22.973l-.58-.014c-2.17.434-.37-2.861.927-1.655-.044.855-.277.992-.347 1.669zm-2.907.732l-2.022-.073-.58-.025c-1.953-.477-3.52.277-5.217.645l-.575-.02c-.38.206-.878.034-1.36-.099.005-.08.005-.14.015-.224-.054.06-.108.133-.157.192-.602-.143-1.166-.15-1.393.87l-.293-.028-.288.007-.585-.032c-.884.498-2.457-1.15-2.896.747l-.434-.01-.021-1.589c-.765.8-1.383 1.248-1.947 1.511-.244-.049-.472-.045-.623.204-1.6.322-2.847-1.024-5.7-1.487-.287.943-.666 1.658-.9 2.749l-.498-.021-.299-.01a2.001 2.001 0 0 1-.737.623 17.7 17.7 0 0 1-.33-3.27c-1.221.627-2.582 1.465-3.97 2.141-1.02-.424-2.034-.848-2.543-2.387 1.442-.337 2.776-1.038 4.473-.568l1.15.032.293.01.862.021c.51-.463 1.68 1.076 1.751-.789l1.437.053 2.603.077c.9.449 1.057-1.476 2.028-.775l1.724.056c.239-.185.586-.014.608-.823l.58.028-.022.844c.879.632 1.063-.834 1.752-.788l3.46.133 1.729.06c.097-.663.282-.982.602-.831l2.022.073 1.74.074 2.31.084 2.896.098c.044 1.669-.428 1.672-.645 2.517zm-39.996 6.626c.591-.73 1.096-1.7 2.229-.971.005.01.005.017.01.028-.72 1.223-1.442 1.206-2.239.943zm-16.272 222.577l-2.603.136c-.787-2.432-3.693-.234-5.325-.816-.298-1.651 3.595-1.297 4.137-1.599.597-.031 1.182-.074 1.779-.102.58.849 1.198 1.578 1.876 1.298l6.485-.34c-.585 2.534-4.468.638-6.35 1.423zm-8.172 2.618c.39-2.51 4.029-.63 5.71-1.395l.656-.028c-.602 2.52-4.468.635-6.366 1.423zm10.725-224.178c.006.014.028 0 .038.007-.13.112-.309.119-.52.003l.482-.01zm-22.161 221.486c-.727.323-1.074-.2-1.307-.974 2.435-.197 4.897-.379 7.358-.575.114.049.201.063.315.122l.13 1.094-6.496.333zm-3.752 1.287l-.141-1.08-5.835.301-7.786.404c-.461-.54-1.042-.817-1.687-.964 4.956-.035 10.075-.323 15.302-.72 1.632 1.596 3.091 4.018.147 2.059zm-22.991-.996c-2.82-.29-6.545 1.399-8.573-.659l-3.243.165-1.947.105c-2.998 1-4.386-1.493-7.266-.722l-.276-2.177c1.507-.526 1.664 1.91 3.383.925l.64-.038c2.901.133 5.25 1.48 8.579.655l.986-.049c1.703.628 3.72.992 5.949 1.164 2.115.179 4.278.249 6.463.284-1.61.224-3.307.614-4.695.347zm-3.221 5.64l-2.598.134-3.898.196-.26-2.177c.823-.101.72-1.434 1.805-1.188l3.248-.161c.07 1.475 3.579 2.001 1.703 3.197zm-48.054 2.465l-1.947.095c-.027-1.774-.84-1.844-1.046-3.232 3.644.234 3.611.234 7.147-.368-1.058 1.616-2.516 2.678-4.154 3.505zm-9.885-11.544c.363-.827.976-5.41-1.171-4.322-4.046.54-7.706.22-11.165-.523-.31-1.602-1.692-.918-2.717-.953-3.47-.491 1.117-1.637 2.451-1.23l2.603-.134.125 1.094c3.329-.81 5.15 1.665 8.567.659 1.952.8 1.502-1.627 3.123-1.252l.255 2.177-1.296.063c-.081 5.213 2.641 4.333 5.065 4.123-.7 2.742-4.48.666-5.84.298zm-11.54 1.683l-5.84.298-.276-2.174.662-.035c1.008 1.462 2.944.94 4.663.856l1.302-.064c.227.919-.13 1.035-.51 1.119zm-8.328-57.444c1.318-.42 2.706-.448 4.37.14.315-2.4 3.677-.855 3.509.099-1.155.2-2.7-.614-3.508.487-1.394-.158-2.82-.231-4.263-.284-.054-.109-.113-.217-.108-.442zm-.19-5.714c.017.543-.152.593-.325.624l-.591-.014c.266-2.138-.31-2.724-.597-3.828.337-1.483 1.237.56 1.692.684.212 1.623-1.529 2.415-.179 2.534zm.038 3.807c-1.464.638-1.377 1.3-2.624-.07-1.025-.445-1.573.379-2.12 1.21-.722.234-.559-1.178-1.416-.68.087-.509.331-.625.385-1.256-.455-.48-1.36 1.22-.683 1.241l-.043.642c-.656-.617-1.323-1.202-1.904-1.956.05-.642.282-.754.38-1.262 1.215-1.82 2.294.158 3.628-1.799-.95 3.201 3.356 2.409 2.282.698.516 1.434 2.847-.543 2.115 3.232zm-.2 2.332c-.461-.018-.911-.053-1.367-.081.336-.123.743-.232 1.426-.35-.016.178-.043.28-.06.43zm-7.814 55.659c-3.183-.684-3.97 1.92-6.995 1.444-.602-.543-1.182-1.08-2.077-.982-.211-2.408 2.684-.603 3.758-1.283 2.684.561 6.73-1.767 8.562.666-.163 3.219-1.806-1.342-3.248.155zm-3.85-50.205c-.01.291-.049.614-.098.93l-.114-.898c.082-.025.136-.014.212-.032zm.358-.056c.173-.007.336.018.477.05.081.627.01 1.542.488 1.444.01.277.049.445.087.62a5.407 5.407 0 0 0-.575-.014c.114-.07.19-.238.19-.617-.673.34-.575-.747-.667-1.483zm-6.426-5.707c-.108-1.094-1.383.014-1.372-1.304l.12-1.904c1.17.484 2.445-.455 1.675 1.318h.271l1.763.053c-.13-2.033.84-1.29 1.035-2.5l.58.018c.066 1.55 1.454.617.95 3.2-.467-.96-.863-1.731-1.443-.048 1.009.494 3.2.568 3.237-.54-.764.158-1.23-.267-1.025-1.932.895.582.532-2.075 1.285-1.865-.016 1.318 1.27.21 1.378 1.308.282.017.293 1.115-.092 1.262-.103-1.35-1.806-2.125-2.045-.056.673.224 1.036 1.034 2.012.694.662-.161 1.074.186 1.063 1.304-.97-.719-1.73.319-2.738.918-1.48.032-2.912.07-4.36.13-.526-.084-.233-1.714-1.052-1.283.01.726-.157.971-.298 1.336-.233.01-.488.017-.732.028-.033-.123-.087-.186-.212-.137zm-3.806.291c.032-.091.108-.21.298-.39.9.33.797-1.924 1.838-1.212-.13.925.109 1.178.298 1.51-.835.04-1.616.057-2.434.092zm-1.508.05l-.303.01c-.05-.379-.196-.607-.169-1.143-.244-.123-.292.245-.33.63l-.873-.03-.282-.008c-.412-.354-1.567.701-1.421-.68.878-2.061 2.51 2.156 2.738-1.823-.33-.102-.835.088-.83-.659.863-.501.695.915 1.416.677-.043.641-.293.75-.38 1.265.608.183 3.14-.417 2.289.687l-1.752-.045c-.038.354-.06.764-.103 1.118zm-3.584-6.932c-.559-.203-.629.835-.96 1.238-.325-.067-.52.911-.58-.01.027-.814-.314-.884-.179-1.911l1.47.042.292.007-.043.634zm-3.08 6.896c.342-1.932-.374-1.872-.049-3.81l.298.013c1.166.056.57 3.04 1.286 2.574-.304.925-.82 1.335-1.535 1.223zm-.754.077c-.227-.007-.46-.01-.7-.02 0-.036-.01-.053-.01-.096-.016.032-.027.06-.043.095-.461-.017-.955-.007-1.394-.035.049-.638.092-1.29.358-1.364l.58.018 1.464.042c-.13.666-.293.929-.255 1.36zm-2.657-1.444c-.048.424-.065.922-.103 1.37-.06-.003-.124 0-.195-.003-.184.07-.417.098-.623.154-.011-.084-.033-.15-.022-.277.005.116-.027.193-.033.295-.255.073-.51.133-.764.196.596-1.041 1.187-2.068 1.832-3-.238-.078-.759-2.115-.162-1.908.439.074.103 1.627.77 1.29.347.116.84-.084.835.656-.868-.494-.662 1.725-1.535 1.227zm-1.908 1.774c-1.036.224-2.11.403-3.189.575-.092-.176-.2-.354-.27-.586.991-.666 2.12-1.002 2.797-2.46-1.128.076-.087-.527-.179-1.915l1.171.035c-.043 1 .705.512.456 1.914-.38-.21-.499-.915-1.128-.666-.038.88-.228 1.392-.412 1.9.304.288.575.663.754 1.203zm-5.531 1.093c-.109.035-.233.064-.336.099l-.293-.007-.282-.004c.108-1.697-.83-1.402-.667-3.197.298.007.309.522.531.652 1.264 1.108 2.636-.897 3.509.095-.798 2.219-1.93.827-2.462 2.362zm-2.12-3.75l.043-.642c.092-.733.499-.666.922-.61l-.044.638c.982-.708 1.654 1.977 2.31.052-.13-1.027 1.448-.988 1.172.036-.234 2.103-1.746.957-2.706 1.198-.027-2.096-1.925.75-1.697-.673zm-.58 4.423c-.418.046-.83.081-.825-.659l.12-1.907c-1.172.41-2.739 1.827-1.41-.666-.429-1.903-2.137.754-2.294-.69.06-1.087.33-1.623.71-1.886l-.049.624c.83.336 2.104 2.702 2.831 1.35-1.15.076.157-.965-.456-1.918.293.746.977.746 1.709.683-.868.603-1.465 3.296.086 3.176-.19.509-.374 1.02-.423 1.893zm-5.813 15.036a3.263 3.263 0 0 0-.76-.981 29.689 29.689 0 0 1 2.679-.207c-.553.305-1.215.736-1.92 1.188zm-1.508.908c-2.044 1.147-4.305 1.967-6.035.565 1.507-1.171 3.389-1.827 5.46-2.212l-.043.725c.51.091.667-.754 1.193-.603.07 1.157-.363 1.052-.575 1.525zm-6.371-1.483c-.185-.02-.353-.035-.575-.094l-.136-1.094c.375-.305.743-.607 1.123-.912-.038.964-.326 1.283-.412 2.1zm-.71-12.298l.043-.638c.368.05.341.824.824.66l.293.003-.022.326c-.401.154-.808.302-1.215.46-.005-.2 0-.446.076-.81zm-.505-1.286c.054-1.038-.77-.375-.792-1.283 1.074-.203 1.822-1.252 2.733-1.84.488 1.296 1.074 1.5 2.001.686l-.038.635c-.016 1.048-1.86.989-1.74-.046-.52 2.546-1.54-.497-1.866 1.862l-.298-.014zm1.48-5.038c.895.337 1.096-1.114 2.083-.578-.375 1.528-1.27 1.644-2.159 1.85l.076-1.272zm.282-37.44c.093-.74.505-.677.917-.61.01.74-.163 1.795.168 1.904.087-.768.184-1.494.672-1.248-.043.63-.282.746-.38 1.258l1.177.035c-.043.635-.276.743-.368 1.259l-2.05-.056c-.282-.028-.179-.779-.217-1.273l.081-1.269zm.998-11.4c.32.319.624.694.803 1.29-.027.999.71.512.471 1.914-.677-.842-1.344 1.83-1.47-.035 1.481-.221.033-1.974.196-3.17zM-361 666.15c-.201 1.216-1.16.48-1.025 2.517-.293.483-.705.662-1.21.6.429-1.873 1.058-3.18 2.235-3.117zm.9 8.911c-.125 1.399-1.247.235-1.784.585.157-.823.574-.981.694-1.882.596.02.265 1.735 1.09 1.297zm1.155-4.414l1.165.032c1.188 1.434-1.577 1.697-2.114 1.216.57.228.905-.112.949-1.248zm-5.65 14.52c.227-.055.444-.097.666-.132.163.276.32.574.212 1.356.586.28.792-.41 1.198-.6.299.13.548.365.797.593.109.48.163 1.094.12 1.921-.911.137-1.817.27-2.072-.999-.233-.87-.797-1.055-.922-2.138zm1.355 7.583a5.358 5.358 0 0 1-.168-1.907c.7.116.944-.974 1.53-1.227 0-.014-.006-.014-.006-.028.135-.052.255-.16.406-.203a1.2 1.2 0 0 0 .434.687l-.01.193c.368.911.645.813.813.42.152.18.265.414.325.817-1.719-.112-2.32 1.294-3.85 1.455.152-.147.298-.27.526-.207zm5.97-16.343c-.45.095-1.068-.26-1.209.6l-.58-.01c-.51-.1-.71.606-.694 1.878-.233-.498-.618-.694-1.117-.662-.038-.491.043-1.252-.223-1.276.223-1.41 1.454-.218 2.072-.575.444-.88 1.686-2.24 1.751.045zm9.847-53.696c.239.396.467.782.586.025.618 1.136-1.133 2.468-2.174 1.837.162-2.833 1.42 1.335 1.588-1.862zm2.652 49.58c.716-.23-.347 2.886.754 1.929-.152.859-.77.504-1.215.6.098-.734.016-1.126-.2-1.277.113-.684.601-.41.66-1.251zm.575-49.489c.276.018.179.775.206 1.273.412.06.813.126.922-.61.878 1.104-.84 1.697-1.296 1.865-.288-.943-.244-1.599.168-2.528zm1.849 12.109l.038-.635c.46.067 1.138-.273 1.128.66.162 2.124-.526 2.06-1.291 1.871l.125-1.896zm1.762.045l2.337.067.293.007c.098 1.728-1.345-.498-1.247 1.23.032 1.245.894-1.013.455 1.925l-.873-.035-.59-.01.162-2.542-.58-.007.043-.635zm4.712-.504l-.043.634c-.125 2.924-1.302-1.055-1.334 2.503l-.575-.02-.293-.008c.26-.554.402-1.423.461-2.52.39-.726 1.068-.695 1.784-.59zm8.654 32.616l-1.15-.038c-.362.094-.514-.151-.547-.645.429-.866 1.817-1.06 1.697.683zm.098-45.068c.423.122 1.084-.204 1.122.662.028.533-.151.6-.341.628l-.586-.014c-.135-.652-.613-.677-.455-1.921-.445.34-.77.97-.993 1.879l-.298-.011c0-2.689 2.581-4.19 1.551-1.223zm2.115 12.119l.59.01c-.097.74-.514.677-.921.617-.38.512-.835.806-1.513.593.098-.509.342-.624.374-1.266l.89.025.58.02zm2.993 33.724l.878.028-.173 2.534c-.526.067-.559-.788-1.128-.662.298-1.192.905-.42.423-1.9zm6.263 15.022c.065.182.146.347.27.41 0-.214.039-.305.082-.393.103-.014.223-.067.342-.098.13.235.233.298.342.235-.18 1.03-1.145 1.02-2.18.894.173-.393.26-.933.124-1.388.31.178.64.308 1.02.34zm1.073-49.728l.293.014.288.004c-.212 1.679 1.686-.54 1.04 1.938l-1.75-.056c-.022-.505-.25-.627-.212-1.272.043-.38.097-.74.341-.628zm4.707 33.784c.103-.49.298-.733.624-.614-.429 1.462-.055 1.697-.797 3.152-.488.158-.478-.62-.83-.66.108-1.191.992-.416 1.003-1.878zm3.525 3.916c.564-.13.585.732 1.128.666l.08-1.266c.05-.641-.183-.76-.205-1.276.184-.522.434-.876.672-1.237-.157 1.002.19 1.09.163 1.896.927.396 1.388-.396 2.077-.571.195.094.39.13.596.15a3.407 3.407 0 0 0 1.513 1.347c-.146.182-.271.438-.488.452-.488.54.01.95-.477 2.528-.396-.078-.803-.13-.9.606l-2.343-.07c-.081-1.735.673-1.255.754-2.517-.938-.47-1.036 1.276-1.583 1.858-.966-.533.151-1.785-1.166-.035.504-1.43-.586-2.402.179-2.531zm2.716-51.978l-.58-.029.044-.63c-.103-.909-.358-1.554-.743-1.925.59-1.953 1.654 2.738 1.28 2.584zm.5 47.624l.292.01c-.206.666.33.719.64.796-.092.137-.206.242-.293.4.01.038.033.06.043.101-1.182.08-1.111.46-2.223-.08.434-.635.922-1.108 1.54-1.227zm1.512-.586c.038.228.081.396.12.55-.066.064-.136.11-.207.18.022-.225.027-.439.087-.73zm4.208 11.506l-1.464.073c-.412-.175-.884-.235-1.323-.357.336-.018.678-.084 1.03-.358l.293.004.575.017.292.007c.103-.031.163-.168.239-.273.125.29.228.603.358.887zm1.974-3.194a3.036 3.036 0 0 1-.993.449c.337-.35.667-.466.993-.449zm.428-4.301l.125.007c.005-.035.021-.056.027-.088.743-.396 1.459-.845 2.055-1.322-.396 2.016-.933 3.787-1.822 4.93-.217-.204-.401-.551-.445-.996.364-.291.705-.66.955-1.241l.049-.631c-.58-1.466-1.454 2.64-2.267 3.102-.851-.995-1.263-.263-2.326-.07l.043-.627c-.499-.165-1.507.596-1.074-1.304-.227-.018-.2-.498-.195-.943 1.47.459 3.26.01 4.875-.817zm3.41-56.497c.18.024.38-.221.581-.509.184.495.374.971.57 1.445a3.041 3.041 0 0 1-1.15-.936c-.141-.004-.288-.151-.445-.565.141.253.288.375.445.565zm-83.472 70.155c.081-.516.325-.628.358-1.262.374-.6 2.017-1.606 2.082-.575-.57 1.265-1.318 2.026-2.44 1.837zm.45 4.294c-.532-.182-.765-1.062-1.415-1.024.146-.259.233-.424.336-.627.26.053.515.031.759-.102-1.383-.301.363-.22.125-1.9l1.09.028c.281 2.002.092 3.345-.895 3.625zm-4.143-1.977c-.607.07-1.15.22-1.654.424.505-3.327 1.817-2.005 3.221-.922-.515.2-1.063.407-1.567.498zm-2.662 1.038c.027-.11.054-.207.06-.337.13-.046.216-.017.292.042-.12.084-.238.193-.352.295zm15.145-13.932c-.922-.389-1.378.4-2.072.593-.857.497-.7-.915-1.415-.677.217-1.767 2.516-1.115 3.275-1.185.542-.02.586.505.212 1.27zm-5.087-31.221l-2.05-.046-.292-.003c.076 2.114-.667 1.002-.917.606l.076-1.272c1.177.53 1.557-.936 2.679-.568.39-.014.624.322.84.652-.048.393-.103.754-.336.63zm-2.266 32.311c.048-.634-.19-.76-.212-1.272.694.273.705-1.14 1.497-.596.575.364-.537 2.447-1.285 1.868zm-2.289-.694c.445-.33 1.464.782 1.497-.592-.298-.407-2.435-.782-2.435 1.84.429.01 2.36.302 1.486-.592-.217-.147-.57-.039-.548-.656zm-3.953-2.001c-.84.743-2.25-1.077-.797-1.28.277 1.812 2.413-1.599 2.874.698-.623.364-1.87-.828-2.077.582zm-4.099.54l-.58-.025c-.217-.14-.32-.53-.217-1.266.434-.101 1.052.246 1.193-.606l.873.017c-.163 1.308-1.296.116-1.269 1.88zm-1.887-37.49c-.667-1.925-2.787-1.258-1.86 1.865l-.298-.014c-.851-.76.14-1.588-.434-2.542-.667-.227-1.128.07-1.507.593l-.586-.01-.873-.025c-.309-.15-.629-1.055-.217-1.27.342.383 1.508.916 2.05.046-.103-1.097-1.394.014-1.394-1.307 2.608 1.672 4.43-1.119 6.008 2.678l-.889-.014zm-1.93 38.033c-.792-.684-1.177-.687-2.045-.053-.13-2.296 1.199-.859 1.828-1.227l.027-.63.298.013c-.184 1.083.33 1.623-.108 1.897zm-2.625-.067c-.553.27-1.702-.9-1.523 1.234-.223-1.08-.71-1.644-1.67-1.307l-.299-.014c1.226-.957 2.966-1.571 3.785.094l-.293-.007zm-4.468-3.274c.553.641 1.1 1.265 1.638 1.946l-.873-.021c-.58.283-1.388-1.743-.765-1.925zm-2.77-22.913l-.033.635-.586-.011c.006-.386-.005-.75-.255-.645.575-1.44 2.24-.175 3.26-.557-.5 1.051-1.866 1.816-2.387.578zm-2.354-10.212c.065-.87-.049-1.388-.174-1.91.722-.358 1.389-.873 2.37-.568.125.508.25 1.027.19 1.9l-.591-.004c-.38.719-1.074.684-1.795.582zm-.499 8.87c-.369.034-.434.813-.91.62.032-.81-.32-.884-.185-1.91 1.073.918 2.223-1.603 2.63.062.043 1.774-1.557-.529-1.535 1.227zm-2.798 29.131l-.867-.017c-1.123-.147-2.142-.07-2.945.568l-.293-.007c-.417-.109-1.084.21-1.128-.652 1.112.603.852-2.195 2.11-1.224 1.383-.231 1.93 1.168 3.448.701.342-1.777-.314-1.644-.113-3.165l.282.003c.688.838 1.502-1.381 1.464.035.027 1.75-1.117.565-1.264 1.869.277 1.63 1.437-.55 1.405.673-.31 1.357-1.155 1.437-2.099 1.216zm-7.705-2.703l1.171.021c.716-.522.775-.389 2.06-.585.104-1.038-1.735-1.08-1.75-.035-.57-.365-.549-1.003-.18-1.914l-.287-.01c-.223-.14-.575-.025-.548-.646l.58.014c.288-.003.271-.767.37-1.255.634 2.195 2.558-.06 4.32.733l.581.007c-.114 1.392-1.247.242-1.784.592-1.73-.248-.851.691-.07 1.266-.087.747-.559.526-.9.62.037.86.693.544 1.127.663.721-.084 1.415-.095 1.372 1.29l-1.453-.028-1.74-.038c-.521.28-2.37 1.346-2.87-.695zm-.2-22.85l-1.172-.02c.103-.691.607-.425.656-1.259l.293.004.58.014.879.017c-.136 1.111-.586 1.434-1.237 1.245zm-2.105 1.228c-.303-1.9-1.963-1.16-3.145-1.336-.439.27-.005.55-.065 1.262l-.293-.004c-.91-.28-1.67-2.499-2.076.59l-.299-.008-.292-.01.032-.631c-.862-.477-.916 1.076-1.778.596-.922.438-.792-1.111-1.72-.673-.205-.14-.574-.025-.547-.642.862.47 1.095-.627 1.784-.6l2.337.05c.412.066.819.123.906-.617l1.453.035.59.01 2.614.064c.304 0 .38-.509.624-.624.244.858.721 1.262.743 2.548l-.868-.01zm-3.91 18.313c-.054-1.329.283-1.68.418-2.531-1.209-1.038-1.166 2.184-1.773.6.049-1.76.559-2.163.944-1.252 1.6-.838 2.597.431 4.392-.54.276.87-3.807 1.136-3.98 3.723zm-8.475 6.167c.082-.744.05-1.799.396-1.897.477 1.251 1.047.214 1.74.039 1.042-.127 1.714.459 1.937 1.938-.987-.94-2.993-.981-4.073-.08zm-8.665 4.9c1.318-2.24 4.208 2.486 5.282-1.156-.71-.709-1.486 1.893-1.746-.035.238-.14.575-.015.613-.628l1.442.025c-.282 1.868 2.727 1.931 1.751.038l.863.021c-.028.834.493.586.52 1.28-2.852 1.353-6.322 2.752-8.725.455zm-3.996-1.342c.212 2.752 1.995 2.934 3.693 1.335-1.112-2.103-2.137.34-2.863-.687l.032-.638-.862-.01zm-.136 2.534c-1.48-1.56-3.231 2.205-3.416-1.342.76-.095 2.272.585 1.513-1.238l1.443.032c-.07.732-.554.522-.9.613-.13 1.799 1.952-.729 1.36 1.935zm-4.44 1.81c.986-4.008-2.592-.183-2.424-3.85.341.817 1.035.83 1.447.028 2.37.224.651 1.287 2.131 3.85l-1.154-.029zm-2.582-6.388l1.437.021c-.027.87-.2 1.385-.368 1.897-.174-1.017-1.426.119-1.069-1.918zm-.46-26.657l5.238.095c-.375 1.437-1.844.203-2.647.582-.688-.274-.683 1.153-1.474.61-.516-.155-1.508.617-1.117-1.287zm-1.166 18.37c.406-.137.531-1.024.927-1.252.347.284.548.824.483 1.918-.402-.347-1.535.711-1.41-.666zm-.564-.638c-1.616 2.152-2.668-.726-3.606 2.475-.44-.284-.147-2.006-1.1-1.29-.63.09-.023-2.258-.136-3.177-1.4-.624-2.007.733-2.712 1.851.239-1.314.705-2.04 1.025-3.151-1.09.028-1.995-.309-2.56-1.311l.88.007c1.03 1.104.47-.354 1.48-.6-.385 1.904.585 1.133 1.106 1.28.656-.547 1.583-.568 2.028.045-.445 1.613-1.388-.613-1.48.607.965 1.006.569 1.146 1.013 3.19 2.348.344 3.395-2.349 5.032-1.816-.683.203-1.507.628-.97 1.89zm-4.3 4.995c1.052.964 1.692-.641 1.968 1.304-.797.186-2.89-.02-1.968-1.304zm-1.285-22.226l2.044.035.298.004c.325.105.83-.095.83.655l-.58-.007-.868-.028-1.464-.02-.06 1.268c-.33-.115-.265-1.013-.2-1.907zm3.324 9.578c-.602.368-1.866-.82-2.06.592l-1.15-.02c.216-.85.666-1.165 1.214-1.245l1.448.028.032-.635.597.007c-.081.715.369.996-.081 1.273zm8.388-16.347c-.434.726 1.35 2.556.163 2.545-.011-.747-.51-.55-.846-.648a2.94 2.94 0 0 1-.803-1.287c.667.207 1.117-.084 1.486-.61zm.157 20.312c.852 1.416-1.22 1.65-1.838 1.865-.26-2.801 1.752.017 1.838-1.865zm1.275 3.828c-1.052.578-1.448 1.08-3.232.571-.954.533-.851-.992-1.068-1.92.949-.709.656 1.002 1.1 1.29.63-2.118 1.35-.306 2.685-1.224.347.08.677.207.515 1.283zm-.299-23.484c.26 1.195 2.386-1.259 2.885.7l-.585-.02c-.592-.28-.787.42-1.199.61h-.298c-.45-.07-1.009.06-.803-1.29zm3.764 6.422c-.754 1.483-1.416-.137-2.327-.042l-.59-.018-.58-.007.032-.638.292.007c.955.417 2.75-.757 3.173.698zm.477-9.507c.65.943.477 1.346 1.431.666-.162.792-.434 1.29-.943 1.24l-.879-.013c.07-.807.418-.863.39-1.893zm3.22.07c-.731 2.25-2 3.151-3.405 3.737-.06-1.084.277-1.196.64-1.255 1.53.673 1.486-2.545 2.766-2.482zm6.61 35.656c.516-2.29-2.559-1.581-1.463-.025l.298-.003 1.166.028zm-4.088-5.157c.607-.35 2.261.484.824.652-.412.862-1.285.603-2.05.592.05-1.044.825-.34.933-1.248l.293.004zm3.774-5.63l-.06 1.265c-.688 0-.797-1.108-1.713-.67 0 1.319 1.269.197 1.383 1.305l-.027.627-.58-.01c-.543-.992-1.606-1.704-2.034-.046-.775-.031-.136-1.935-.656-2.84.667.337 1.41-.834.748.94.803-.638 1.833-.719 2.94-.571zm-9.3-.193c-.026.638-.27.754-.352 1.262.662-.74 1.443-1.16 1.87-2.5l.283.007c-.64 1.283.081 1.248.173 2.542-.715-.123-.78 1.402-1.258 1.883-.72.241-.569-1.175-1.431-.667-1.117.467-1.345-.802-2.278-.683-1.144 1.476.158-.785-.493-1.91-.12-.716 2.169-.07 1.1 1.29 1.248.715 1.503-1.045 2.387-1.224zm-6.387 5.588c.537-.372 1.122 1.879 1.459.024l.569.014c1.036 2.332-2.017 2.051-2.028-.038zm13.1 5.335l-.585-.014c-.049-1.083.287-1.184.656-1.248-1.6-.978-4.576-.886-5.547.52 1.052.423 2.939-.768 3.449.7-.239.137-.57.01-.619.62l-.287-.003-4.056-.08-.293-.004-.293-.01-1.447-.028-.597-.01c.835-1.294 2.175-1.301 3.563-1.2-.732-2.447-3.73-1.532-4.138 1.189-.325-.105-.818.094-.83-.656l.868.018c.342-4.347-2.667.722-2.158-3.219.336.74 2.223 1.33 2.614.057-1.047-.89.867-.078.634-1.255.087-.737.5-.674.911-.614.597-.179-.157 1.83-.401 1.89-.385-.046-1.1.126-.602.627.434-.333 1.464.764 1.48-.606-.943-.694.825-.176.385-1.893.44.63.586 1.703.163 2.538l2.039.038c1.87.516 3.525-.21 4.967-.533 1.29.596 1.692-1.02 2.679-1.216-.667.992-1.29 2.047-2.17 2.496-.254 1.378.722 2.03-.384 1.896zm-2.933-27.982c1.752 1.455 4.029-.659 6.41.134.037 2.46-1.714.515-1.871 2.503l-.89-.018c-.26-2.349-1.578-.88-2.315-.042l-.596-.021c-.58-1.241-2.164-.592-2.907-.056l-.293-.004c-.38-1.335-1.73-.262-.488-1.91l.884.014c.222-.126 1.806 1.51 2.066-.6zm1.79-6.306c1.013-.06 2.998.294 3.79.077-.049.841-.548.568-.656 1.258.905.558 1.133-.532 1.529-1.24.477-.165.472.613.835.648-1.35 1.858-2.733 1.606-4.436 1.181-.504-.504.212-.673.618-.624-.395-2.219-2.098 1.41-1.984-1.307l.303.007zm5.34 26.124l-.281-.01h-.293c-.347.097-.51-.151-.553-.65.417-.872 1.442-.245 1.556-1.871l.293.014c.84 2.019-.884.21-.721 2.517zm2.495-25.328c.499.375 1.757-.726 1.73.67l-1.464-.032-.879-.018c-.444.266.065.817-.092 1.897l-.586-.004c-.347-.105-.85.084-.85-.652.807-.175.33-2.794 2.14-1.861zm3.356-2.472l.288.01 1.751.04c1.16-.874 2.034 1.7 2.636.048-.51-.308.157-.659.357-1.258 1.394.67-1.068 2.668-1.637 3.144l-.293-.01c-.401-1.876-3.026.536-3.432-1.346.25.126.287-.239.33-.628zm9.511 23.684l.586.018c-.038.638-.277.75-.363 1.265.515.617 1.079-1.875 1.16.021-.396.197-.602.887-1.198.607-.336-.109-.83.09-.846-.652.244-.14.585-.004.629-.62-.174-.004-.298-.52.032-.639zm-52.136-5.465l1.746.031.58.014c1.507 3.187-2.164 1.855-2.326-.045zm-5.304-5.157l-1.155-.02c-.249.115-.27-.253-.26-.635.52-.369 1.665.788 1.763-.61-.217-.148-.31-.54-.228-1.273l1.453.021c-.07.736-.493.677-.906.624-.309 3.348 1.177.42 1.367 1.921-.672.298-1.53 1.23-2.034-.028zm-2.326-.038l-.287-.004c-.098-1.315-1.377-.179-.51-1.914.738-.084 1.432-.098 1.41 1.287-.233.136-.575.01-.613.63zm-6.165 1.16l-.293-.004.027-.63c-.949.851-1.713-1.54-1.079-1.918.748.263.792 1.903 1.654 1.924.033-.385.081-.746.33-.627.679.02-.189 1.732-.64 1.255zm-4.045-.698c-1.193.148-2.028 1.164-2.993 1.862-.299-.943-.266-1.599.108-2.538l-.878-.01c-.26.283-.537.55-.624 1.254-.553-.273-.689-1.374-1.41-1.28-.705.365.7 1.231.483 2.546l-.873-.018c-.44-1.588-2.294 1.445-2.885-.676.423.007 2.364.277 1.48-.61-.954.536-.873-.989-1.09-1.925.597-1.111 1.942-.424 2.934-.589 1.09.579 1.909-1.01 2.332.035.233-.137.574-.014.612-.63l.282.003-.016.641c.645.596.927.05 2.001.663.542.087.965.43 1.122 1.286l-.585-.014zm29.942-10.906c.033-.613.385-.494.619-.627.07-.54-.087-.6-.26-.642.119-.852.748-.501 1.187-.61.032 1.984-.721 2.016-1.546 1.88zm157.913-71.662c-.25.014-.456.144-.52.592h-.033c-.255-.43-.201-1.42-.787-1.244.488-.424.987-.382 1.551-.34-.06.33-.146.652-.211.992zm-1.085 33.63c.054-.008.098-.022.13-.032.017.26.06.48.076.733-.103.056-.19-.077-.206-.701zm.038-19.906c.022-.052.049-.073.07-.122v.094c-.032.004-.043.025-.07.028zm112.505-88.338l-.862-.007a3.605 3.605 0 0 0-.835-.68c.623-.79 1.247-.814 1.92-.484.054.452 0 1.045-.223 1.17z" id="Combined-Shape" fill="#2D2D2D" mask="url(#mask-2)"/>
    </g>
  </g>
</svg>
