<svg id="Layer_1" data-name="Layer 1" xmlns="http://www.w3.org/2000/svg" viewBox="0 0 163.23 68.27"><defs><style>.cls-1{fill:#fff;}</style></defs><title>logo-white</title><path class="cls-1" d="M64.5,11.7l-10.7,24a.66.66,0,0,1-.4.5H53l-4,.2a.78.78,0,0,1-.5-.2c-.2,0-.3-.2-.3-.4L37,12V11a1.05,1.05,0,0,1,1-.4h7l.4.5L51,23.7,56.4,11c0-.2,0-.3.3-.4a.55.55,0,0,1,.5-.2h6.7c.4,0,.6,0,.8.3a.91.91,0,0,1,0,1Zm11,21.8a9.9,9.9,0,0,1-7,2.7,9.5,9.5,0,0,1-7-2.6,9.43,9.43,0,0,1-2.6-7c0-3,.7-5.5,2.4-7.3a9.65,9.65,0,0,1,7-2.7,9.54,9.54,0,0,1,7,2.5A10.3,10.3,0,0,1,78,26.4c0,3-.7,5.4-2.5,7.2Zm-4.7-10a3,3,0,0,0-2.4-1,3.08,3.08,0,0,0-2.3,1,5.34,5.34,0,0,0-.7,3,3.86,3.86,0,0,0,1,2.8,2.35,2.35,0,0,0,2.2,1,3.31,3.31,0,0,0,2.4-1,6.32,6.32,0,0,0,.7-3,4.19,4.19,0,0,0-1-2.8Zm21.5,0c-.3.3-.6.2-1,0l-.7-.4a2.11,2.11,0,0,1-1-.4,8.5,8.5,0,0,0-2.5-.5,2.61,2.61,0,0,0-2.2,1.3,5.33,5.33,0,0,0-.8,3,3.79,3.79,0,0,0,1,2.8,3.39,3.39,0,0,0,2.7,1,5.11,5.11,0,0,0,2.2-.7,1.49,1.49,0,0,0,.7-.3c.3,0,.4-.2.5-.2a.2.2,0,0,0,.2-.2h.4c.3,0,.5,0,.7.3l.2.7-.5,4.3s0,.3-.2.4c0,.2-.2.3-.3.4l-2,.7a15.67,15.67,0,0,1-3,.5,8.74,8.74,0,0,1-6.6-2.5,10.39,10.39,0,0,1-2.4-7,11.62,11.62,0,0,1,.6-4,8.77,8.77,0,0,1,1.8-3.3,8.81,8.81,0,0,1,6.7-2.8,6.83,6.83,0,0,1,3,.4l2,.7.3.3a.65.65,0,0,1,.2.5l.5,4.3a1,1,0,0,1-.4,1Zm19.6,8.8-.4.5-3.2,3a4.27,4.27,0,0,1-2.7-1c0-.2-.2-.3-.3-.4s-.3-.2-.4-.4a17.54,17.54,0,0,1-2.8,1.3,10.73,10.73,0,0,1-3.2.5,7.08,7.08,0,0,1-4.8-1.5A6.49,6.49,0,0,1,92.4,30a5.67,5.67,0,0,1,2.5-4.8,10.47,10.47,0,0,1,2.8-1.4,12.2,12.2,0,0,1,3.4-.4h2.6A2.1,2.1,0,0,0,103,22a2.08,2.08,0,0,0-1.5-.4H100l-1.5.6-1.3.6a1.91,1.91,0,0,0-1,.5h-.8c-.2,0-.4-.2-.5-.5L93.6,20v-.6c0-.2,0-.4.2-.5,0-.3.5-.5,1-.8l1.8-1,2.4-.7,2.6-.3a23.52,23.52,0,0,1,4,.4,4.71,4.71,0,0,1,2.5,1.4,4.47,4.47,0,0,1,1.6,2.4,12.72,12.72,0,0,1,.5,3.7v6.7l.3.2h.2c.2,0,.4,0,.5.3.2,0,.3.2.4.4v.6Zm-8-4h-.2c-3,0-4.6.6-4.6,1.6,0,.5.5.7,1.6.7a3.29,3.29,0,0,0,2-.4,1.49,1.49,0,0,0,.7-.3s.3,0,.4-.2V28.2Zm13.3,6.6-.5.2H112c-.3,0-.4,0-.6-.2l-.2-.7L111,10.7a.84.84,0,0,1,.2-.7.55.55,0,0,1,.5-.2h5l.4.2.3.7.2,23.5a.84.84,0,0,1-.2.7Zm13-1a9.36,9.36,0,0,1-5.4,1.6,12.69,12.69,0,0,1-3.5-.3l-3-.7-.4-.3v-.5l-.5-4a1.21,1.21,0,0,1,.3-1h.8l1,.4,1.4.6a9.92,9.92,0,0,0,3.5.7,2,2,0,0,0,1-.2l.2-.4c0-.3-.3-.6-1-.8l-2-1a5.34,5.34,0,0,1-3-1.5,4.92,4.92,0,0,1-2-4.4,4.72,4.72,0,0,1,.3-2.7,5.36,5.36,0,0,1,1.7-2,4.32,4.32,0,0,1,2.2-1.2,7.66,7.66,0,0,1,2.7-.4H126a5.77,5.77,0,0,1,1.4.3,4,4,0,0,1,1.3.4c.3,0,.6.3,1,.4l.2.4.2.6v3.8c0,.5,0,.8-.4,1a2,2,0,0,1-1-.2s-.2,0-.5-.3a2.84,2.84,0,0,1-1-.6,7.24,7.24,0,0,0-2.6-.7c-.4,0-.6,0-.8.2l-.3.4c0,.3.2.6.7,1a11.08,11.08,0,0,0,2.7,1,10.1,10.1,0,0,1,3.4,2.3,4.7,4.7,0,0,1,1.2,3.4,5.52,5.52,0,0,1-1.8,4.5Z" transform="translate(-6.77 -8.13)"/><path class="cls-1" d="M46.4,36.7,36.8,74.2c0,.2-.2.4-.4.6a.72.72,0,0,1-.6.4L30,76.4h-.6l-.7-.6L7,44.8a1.2,1.2,0,0,1,0-1.4c0-.5.4-.8,1-1l9.7-2a1,1,0,0,1,.7.2c.3,0,.5.2.7.5l11,16.5L34.5,38a1.23,1.23,0,0,1,.4-.8l.7-.4,9.4-2a1.47,1.47,0,0,1,1.2.4A1.6,1.6,0,0,1,46.4,36.7ZM60.7,61l-10,2,1,1c.7.5,2,.6,3.7.3a6.71,6.71,0,0,0,2.3-1,1.78,1.78,0,0,0,1-.4l.4-.4c.3,0,.6-.2,1,0,.2,0,.4,0,.6.4l2,3.2-.3,1.5-1.3,1-1.7,1a9.26,9.26,0,0,1-2,.8l-2,.5a10.52,10.52,0,0,1-8.6-1.4c-2.4-1.6-4-4.2-4.6-8a12.47,12.47,0,0,1,1.5-8.3,9.09,9.09,0,0,1,6.4-4.5,8.33,8.33,0,0,1,7.3,1.7,13,13,0,0,1,4,7.5l.2,1.6v1l-.8.4Zm-8.5-5.6a1.29,1.29,0,0,0-1.2-.5c-.7,0-1,.5-1.3,1.2a6.67,6.67,0,0,0,0,2l3.5-.8a5.29,5.29,0,0,0-1-2Zm23.2-3c0,.6-.3,1-.7,1a.76.76,0,0,1-1,0c-.8-.8-1.4-1.2-2-1-.4,0-.8.4-1.2,1l-1,1.7,2,11v1l-.8.4L65,68.7a.84.84,0,0,1-.7-.2,1.16,1.16,0,0,1-.5-.7L60.4,48.4v-1c.3,0,.5-.3.7-.3l4.2-1a.73.73,0,0,1,.6.2l.5.5,1.2,2.4a9.21,9.21,0,0,1,2-3.2A4.29,4.29,0,0,1,72,44.4h1l1,.5,1,.7.5.7-.3,6.5Zm18.4,9a10.65,10.65,0,0,1-5.8,3,28.51,28.51,0,0,1-4,.4H80.4l-.5-.4c-.3,0-.4-.3-.5-.5l-1.2-4.6a1.28,1.28,0,0,1,.2-1.2c.2-.3.5-.4,1-.2l1,.2,2,.3a9,9,0,0,0,4,0,2,2,0,0,0,1-.3c.3-.2.4-.3.3-.5,0-.4-.4-.6-1-.7l-3-.6a12.41,12.41,0,0,1-3.6-1c-1.8-.8-2.8-2.4-3.3-4.8a5.79,5.79,0,0,1,0-3.2,6.19,6.19,0,0,1,1.4-2.8,10.77,10.77,0,0,1,2.4-1.8,7.08,7.08,0,0,1,3.2-1l1.7-.3H89l1.2.3c.2,0,.3.2.5.4l.3.6.8,4.4c0,.5,0,1-.4,1a.7.7,0,0,1-1,.2,1.08,1.08,0,0,1-.7-.2c-.4,0-.8-.3-1.4-.4a5.34,5.34,0,0,0-3-.3,1.78,1.78,0,0,0-1,.4s-.2.3,0,.5c0,.3.3.6,1,.8l3.3.7A11.91,11.91,0,0,1,93,51.6a6.41,6.41,0,0,1,2,3.8,6.51,6.51,0,0,1-1.2,5.7Zm18.5-11-10,2a2.54,2.54,0,0,0,1,.8c.7.6,2,.7,3.7.4l2.3-.8,1-.5c0-.2.3-.3.4-.3a.78.78,0,0,1,.8-.2.63.63,0,0,1,.6.5l2,3.3V57l-1.4,1L111,59l-2,.8-2,.6A11.08,11.08,0,0,1,98.3,59a11.53,11.53,0,0,1-4.6-8,11.69,11.69,0,0,1,1.4-8.3,9.61,9.61,0,0,1,6.5-4.6,8.5,8.5,0,0,1,7.4,1.8c2,1.7,3.2,4.2,3.8,7.5l.3,1.7c.2.3,0,.6,0,.8-.2.3-.4.5-.7.5Zm-8.5-5.6a1.19,1.19,0,0,0-1.3-.5c-.6,0-1,.5-1.2,1.3a5.35,5.35,0,0,0,0,1.8l3.5-.7a5.29,5.29,0,0,0-1-2Zm25,9.3a9.33,9.33,0,0,1-6,3,13.86,13.86,0,0,1-4,.6h-3.5l-.5-.4c-.2,0-.3-.3-.4-.5l-1.3-4.5c0-.5,0-1,.3-1.2a1.21,1.21,0,0,1,1-.3l1,.3,2,.3a9,9,0,0,0,4,0,2,2,0,0,0,1-.3c.3-.2.4-.3.4-.5,0-.4-.4-.6-1-.7l-3-.6a13.72,13.72,0,0,1-3.7-1,6.3,6.3,0,0,1-3.2-4.8,8.57,8.57,0,0,1,0-3.2,7.15,7.15,0,0,1,3.9-4.6,7.08,7.08,0,0,1,3.2-1,3.81,3.81,0,0,1,1.6-.3h3.2l1.2.3c.2,0,.4,0,.5.3.2,0,.3.3.3.5l.8,4.5c0,.5,0,1-.3,1a.7.7,0,0,1-1,.2l-.8-.2a8.18,8.18,0,0,1-1.4-.5,6.13,6.13,0,0,0-3-.2.84.84,0,0,0-.7.4l-.3.5c0,.4.5.7,1,1a23.15,23.15,0,0,1,3.5.6,10,10,0,0,1,4.3,1.8,5.73,5.73,0,0,1,2.2,3.8A6.69,6.69,0,0,1,128.8,54.1Z" transform="translate(-6.77 -8.13)"/><path class="cls-1" d="M159.2,57.5a19.68,19.68,0,0,0,2.5,2.5l8.3-.8c-3.8-3.3-6.5-6-8.4-8,3.4-5.7,4.8-12.4,4-20.2v-.8l-5.6.6v1.8a33.15,33.15,0,0,1,0,9,21.57,21.57,0,0,1-1.8,5.6,158.61,158.61,0,0,1-12-16,19.89,19.89,0,0,0,6.2-7,13.46,13.46,0,0,0,2-8,8,8,0,0,0-3.2-6,9.85,9.85,0,0,0-7.5-2,13.38,13.38,0,0,0-5.7,2,10.39,10.39,0,0,0-3.7,4.3,10.22,10.22,0,0,0-1,5.3,6.87,6.87,0,0,0,.5,2.4,22.43,22.43,0,0,0,1,2.6,39.25,39.25,0,0,0,3.2,4.7c0,.2.3.4.5.8a25.13,25.13,0,0,0-7.6,8.3,16.53,16.53,0,0,0-2.5,10.2,15.09,15.09,0,0,0,2.6,7.7,16,16,0,0,0,6,5.3,14.77,14.77,0,0,0,8.3,1.3,12.57,12.57,0,0,0,6.7-2,20.42,20.42,0,0,0,6-5l1.2,1.5ZM142.8,26l-2.2-3.2-.8-2a8.8,8.8,0,0,1-.4-2,6.68,6.68,0,0,1,1-3.7,4.53,4.53,0,0,1,3.4-2,5.69,5.69,0,0,1,2.5.4,4.18,4.18,0,0,1,2,1.6,7.17,7.17,0,0,1,1,2.2,9.52,9.52,0,0,1-1.4,4.6,13.68,13.68,0,0,1-4.6,5l-.6-.8Zm5.6,18.7c2.6,3.3,4.7,6,6.2,7.6a20.57,20.57,0,0,1-5.3,4.5,10.24,10.24,0,0,1-3.8,1,7.69,7.69,0,0,1-5-1,7.79,7.79,0,0,1-4.3-3.4,12.36,12.36,0,0,1-1.8-5.4,13.56,13.56,0,0,1,1.5-7.3,15,15,0,0,1,5.3-6.2,103.17,103.17,0,0,0,7,10.2Z" transform="translate(-6.77 -8.13)"/>
</svg>
