<svg width="1595" height="172" viewBox="0 0 1595 172" xmlns="http://www.w3.org/2000/svg">
  <title>
    Paintbrush Top
  </title>
  <g id="Page-1" fill="none" fill-rule="evenodd">
    <path d="M6.243 172l.112-1.11c-.517-2.199-1.03-4.405-.247-9.038-1.449-3.424-.158-12.076-.168-15.492.447-3.283.764 1.83 2.147.173.638-4.005-1.374-3.03-.354-7.768-.153-5.442-2.193-.05-3.74-.296.266-3.275-.544-4.557-.973-6.536.177-3.47 1.658-9.415-.852-7.808-.41-.26-.41-1.321-.946-1.361.475-3.33.801-6.385-1.09-5.243.872-7.255 4.057-6.941 5.864-11.123.494-9.635 3.246-11.762 6.078-13.694-.382 3.153-.68 6.204.447 6.49l-.121 1.267 1.057.098 1.053.076c1.192-1.658 3.101-.972 4.429-2.214 1.532 1.062 2.049-1.16 3.288-1.037.023 3.948-1.253 3.706-1.22 7.638 1.043.625 1.471-.765 2.22-1.116l1.058.069c.843-.029 1.951.773 2.217-1.112-.01-2.185.633-2.387 1.28-2.47.029-2.886-2.547-.719-3.567-1.575 1.658-4.579 6.078-.245 8.216-3.232.717.758 2.854-1.293 2.528 1.48 2.138.817 2.636-3.57 4.942-2.217.917 3.052 2.082-.285 3.679.264 1.532 1.03 1.733-2.098 3.26-1.062 1.388-2.61 2.413 1.535 4.727.34.783-1.799 2.161-1.799 2.934-3.658l1.574.108c.406-.903.95-1.394 1.547-1.697.321-1.235 1.14-.824 1.453-2.084l1.788.303c.918-3.748 1.113 1.427 2.39.398.167-2.54 1.15-2.398 1.713-3.63-.67-.314-1.728-.057-1.616-1.567 1.406.264 2.063-1.903 3.754-.675.149-1.903-1.272-1.412-2.208-1.669l-1.197-.205c-.647 2.813-3.008.032-4.354.574l-1.789-.286c.4-2.394 2.1-.56 2.32-3.524l.177-1.282-1.789-.285c1.09 3.593-1.108.841-1.304 4.987-2.002-.607-1.22-4.5-2.971-.495.74-3.514-2.664 2.828-2.222-1.665.257-1.632 1.002-1.632 1.118-3.716l.601.09.354-2.542c-.126-2.48-1.658-1.188-.07-3.929 3.54-.744 6.795-2.434 10.232-3.51l2.394.397c1.155-2.358 3.758-.083 5.118-1.758 1.411.267 2.059-1.896 3.759-.68.363-1.873 1.597-.92 2.556-.877 2.995-2.03 3.2-1.784 6.916-1.462 1.845-2.64 6.357-4.135 7.685-2.64.829-.95 1.83-1.398 3.148-.773 2.361.304 4.569.127 6.325-1.57 2.594-4.417 3.67-4.775 6.324-1.56.182 2.776 2.73-2.016 4.369-.6.19-2.65-2.608-.74-1.882-4.207 1.17-.105 1.136 1.646 2.226 1.646 2.32-2.004.308-.083.084 3.94 1.788.903 2.57-1.437 3.93-1.968.644-3.019-2.83.267-1.275-4.113l2.394.383c-.224 4.247 1.993 2.195 3.409 1.86.894-3.399-2.94.444-2.045-2.944l1.183.192c1.1.473 1.518-1.22 2.57-.881-1 4.088-2.635 6.132-4.19 8.432-1.975-.267-3.275 1.675-5.552.39 1.644 3.308-7.801 2.607-11.648 4.626-.899-3.08-2.184.744-4.177-.68l-.597-.093c2.688 4.55-2.45 1.112-3.926 1.95-.633.35-1.625 3.572-1.723 3.622-6.487 2.373-13.631.498-19.365 3.3l-.6-.093c-1.16.083-1.118-1.658-2.217-1.672-1.69 1.452.559 4.023-1.295 4.998l-.512 3.82c2.035-3.123 3.227-5.803 8.448-3.813 7.498-1.116 13.199-3.904 16.813-2.43-3.204-2.871 3.018-1.77 2.733-2.142-1.099-1.336 2.534-2.618 3.927-1.968 1.453-3.257 3.2 3.42 4.545-1.87.922.281.019 3.33 1.444 2.849 3.395-1.228 7.26-5.547 8.909-2.452.843.372.126 3.16-.093 5.19 1.406.263 2.054-1.897 3.768-.69.135-.773.293-1.492.773-1.174.382-2.279-.373-2.806.084-5.186l1.196.195c2.51-3.326 5.948 1.184 7.098-2.766l.596.1c1.095.351 1.896 1.164 2.059 2.94-1.76 2.272-5.314-1.235-6.935 1.47.429.372 1.178.228 1.039 1.47-.746.09-1.682-.484-1.984.99 1.392 1.928 6.11-1.077 8.741-1.196-.442-.35-1.187-.217-1.034-1.459 1.654-.516 2.091.845 1.272 4.117 2.547-3.543 7.968-6.28 9.934-.993.046-3.5 1.555-2.279 2.31-3.535 1.225-.188.95 1.91 1.453 2.842 1.714-3.72 2.259.065 4.522-1.89-2.636 5.143 1.951-1.45 2.058 2.951-3.176 1.517-4.051 1.311-7.353.12-.261 1.545-.583 2.979-1.528 2.347-.624 1.657-1.597 2.17-2.734 2.163-.028 3.524-2.71-1.372-2.734 2.163 1.887 1.307-.102 7.901 3.26 3.113-.721-.253-1.369-.592-.866-2.734 3.815-.007 3.698-1.845 9.748.275.046-3.5 1.57-2.268 2.296-3.532.028 5.023 3.344.92 5.984.953l2.404.38 2.393.382.163-1.271.173-1.271c1.91.704 4.513 3.716 6.576 1.043l.6.102c1.575-1.853 2.739 4.52 4.956-.517-.89 3.41.857 2.763.54 5.287l-.172 1.29 1.797.28c1.775-.237-3.055-3.888-.535-5.29.81.185 1.388-.386 1.965-.996l1.793.307c.163-1.29-.293-1.615-.27-2.655 1.248 4.081 2.785 1.665 5.053 3.399 1.127.57 1.411-1.528 2.12-2.25-.229 2.997 2.537 1.155 2.999.466 2.105 1.264 2.85-1.773 4.96-.528l.596.098 1.197.188c-.103 2.09-.853 2.105-1.09 3.737.815.44.736 2.243 1.471 2.835-.237-3.904 3.21-5.08 3.307-2.08 3.521-.747-.573-2.625-.708-4.012.275.144 4.466-2.456 5.398.845 2.627 1.448 1.89-1.152 2.72-2.17 2.291 1.325 4.48.187 7.94-.058 1.165-.101 1.132 1.636 2.231 1.647 1.01-2.795 3.824.1 5.547-.423-.238 1.011-.764 1.17-.922 2.452 2.193-1.759 3.32-.105 5.393.842.685-2.77-.922-1.987-.727-4.013 1.85 2.911 2.93.333 4.96-.527.08-1.488-.773-1.527-1.639-1.545.256-1.954 4.778-2.106 3.437 1.834 6.734-.79 13.036-1.433 18.429-1.04 1.178.73 1.695-.628 2.547-.903.233 2.56 4.299-1.943 2.082 2.922l4.192.65c.447-2.76-2.05-.91-2.841-1.748 8.043-2.43 14.744-2.705 20.23-.766 1.598-3.271 5.217-.256 7.056-2.81 1.165-.111 1.141 1.622 2.24 1.633l.154-1.278c3.926 2.502 13.217 1.289 17.819-1.177 2.394-.365 4.21 1.397 7.624 2.455.158-1.271-.303-1.582-.29-2.64.49-2.484-.497-2.665-.726-4.008 1.719 1.184 2.334-.971 3.74-.726.41 3.113-.368 2.365-.172 6.464l1.187.184c1.379-.534 3.8-3.896 3.6.542-.456 2.268 2.31.448 2.1-2.264 4.23 3.037 3.592-2.543 7.778 1.177.839.22 1.672.466 1.957-1.011.954.04 2.207.953 2.547-.914 1.854.296 3.535 3.611 5.384.806l1.788.274c1.337.614 2.329.144 3.144-.827.87.358 2.273-.12 2.245 1.636l1.197.18c.232-1.422-.634-2.108.312-2.55 1.22 2.767 2.901-.913 3.427 1.817l2.403.358c-.475-3.99 3.489-2.893 3.14-.83.675.303 1.098-.116 1.35-1.088 1.993.835 4.871 1.788 7.335-.198.955.04 2.212.96 2.538-.928l1.202.195c1.816-.81 1.332 2.03 2.836 1.715 1.01-.404.987-3.929 2.687-2.185 1.351.614 2.334.123 3.153-.834.81.697-.19 1.109-.298 2.546.67.31 1.095-.12 1.346-1.098.83.235 1.663.47 1.952-.997 2.207 2.008 1.169 2.727 3.576.513 1.337-.73 2.85-3.636 3.75-.73.153-1.281-.303-1.592-.303-2.65.065-.784.093-1.517-.438-1.365-.252.971-.68 1.405-1.35 1.109-2.292-3.102-3.615 2.358-5.39-.791-.4-3.55 7.206-3.517 8.23-2.69l.606.093c-.028 2.225-1.272 3.131-.457 3.821.932 1.3 1.104 3.803 3.288 3.095 2.962-1.72 3.87-.127 6.283-1.672l.596.094c.6-2.817 3.023-.087 4.35-.65l.591.086c.927 1.16 4.867 1.824 3.884-2.025 2.394 4.654 6.665-1.774 8.379 1.238 1.458-.177 2.482-1.679 4.35-.646 2.175-.188 3.628.072 4.331-.657 2.51-.542 3.274 1.715 5.24 2.062-.126-4.38 2.09-1.716 3.283-2.117 2.114-1.188 3.223 4.439 4.783.7 1.611.727 4.205-4.329 4.936-.57-.144.683-.056.986.112 1.163.447-.072.899-.148 1.37-.177.814-.957 1.159-3.355 1.95-4.384l.602.094c.884 2.062 2.566 2.871 4.494 3.261.89-1.336 1.509-3.481 3.292-2.109 2.972-.776 5.221-1.304 7.322-.224 2.417-.137 4.545-1.166 6.422-2.961-.27 1.459-.13 2.29.307 2.64.83.23 1.668.462 1.938-1.015l2.394.347.6.086.601.094c2.236-2.08 3.721 1.253 6.278-1.69-.158 1.275.307 1.59.307 2.647l1.784.257c.783-3.24.4-4.457 3.437-3.395 1.407-.513.578 2.564 1.5 2.81.736-1.799 1.355-3.922 2.831-3.482-.14 1.282-.66 1.438-.89 2.463 1.831 1.07 1.347-4.47 2.534-.928.82-.964 1.798-1.452 3.149-.834 1.318 3.091 4.354.433 6.12-.404l.595.072c.014-1.401-1.09-1.04-.903-2.727l-1.197-.18c-2.59.913-2.408-.48-5.388-.773-3.368.589-6.558 4.131-8.514.061l.145-1.278c3.46.137 4.522.155 8.513-.058.885-3.235 2.347 2.846 3.744-.755.597.09.597 1.13 1.048 1.456.578-2.831 1.574-4.402 2.967-4.763.27-3.19-1.993-.669-2.394-.347l-.144 1.278c-1.51.647-3.176-5.926-3.582-.534l-.605-.08c-1.37-1.607-3.279 3.467-3.586-.527l-.596-.08c-1.481 3.876-2.962 1.182-4.937.575-.81.971-1.793 1.462-3.13.856-3.623.473-4.978-1.69-8.07 1.415-.713.109-1.035-.437-1.048-1.459-.816.975-1.798 1.46-3.14.849l-1.196-.18-1.197-.17-1.793-.268c-1.058 1.355-1.677 1.26-2.385-.339-.438 3.875-.992-.354-3.292 2.113-1.337-.603-2.32-.13-3.13.841-1.35.415-.936-1.997-.764-4.016-1.97-.78-1.593 5.518-4.024 3.312.06-2.095.81-2.106 1.03-3.745-.965-.618-1.24.823-1.486 2.38l-1.197-.177c-.536 2.961-2.748.86-3.428 3.387l-1.192-.177c-1.509.314-1.034-2.513-2.855-1.708l-.14 1.278-2.99-.444c-1.383-.726-1.578 2.138-3.143.845-.07 1.506.96 1.232 1.653 1.531-.247.975-.675 1.412-1.35 1.105l-.597-.079c-.009-2.68-2.794-.73-.759-4.026l-1.779-.257c-3.367 1.582-7.377 5.179-8.979-1.329-2.422.058.154 4.554-2.24 3.586-1.407-.242-2.026 1.932-3.735.74l-1.197-.18-.601-.083c-5.258-1.593-7.153 1.108-11.364-1.697-.559.61-1.122 1.188-1.946 1.025-.578 1.12-1.309 1.77-2.091 2.286-.457-.336-.438-1.372-1.039-1.462-2.687 1.643-6.106 1.076-9.282 1.23l-.144 1.276c-5.677-.264-8.486-.824-14.503-.863-1.635-1.04-3.754-2.795-5.537.476-.415 2.81-2.6.16-3.745.733l-.144 1.282c-1.057.116-1.295-2.405-1.798-.274-.573-.116-.27-1.625-.298-2.63l-4.182-.645c-.023 1.765 1.37 1.292 2.24 1.65-.522 3.626-2.776 1.95-4.49 1.921-.717.101-1.029-.455-1.043-1.452-.838 2.658-2.557 2.626-4.494 1.91-1.453.2-2.482 1.68-4.345.636-1.584-.216-3.358-.982-4.327.654-.712-1.604-1.332-1.701-2.398-.361l-4.192-.625-.14 1.275-3.6-.538-1.196-.18-.159 1.277c-1.495.3-1.02-2.524-2.836-1.726-.163 1.228-.848.878-1.35 1.098-.387 1.694-1.612.823-2.544.91l-.149 1.279c.13 1.173.247 2.372.885 2.74-1.327 3.012-4.242-.122-5.383-.83-.96 2.752-5.36 2.304-6.889 1.553l.308-2.546 2.398.357c1.407.246 2.036-1.932 3.735-.726 3.074-.36 2.618-.23 4.634 2.008-.838-1.776-1.047-4.55-3.115-4.384-1.826-.899-2.403 1.98-4.355.647l-.591-.098c-1.179-.068-9.892 2.705-11.21-3.008-2.706 1.607-4.727 5.294-8.393 3.925.368-2.408 2.087-.592 2.26-3.564-.825-4.655-2.492 2.698-4.341.647.228 1.191.442 2.394-.312 2.556l-1.202-.184-.154 1.271c-2.002.47-1.564-2.68-2.994-.462-1.835 2.304-2.59-1.737-3.74.737l-.605-.09-2.986-.463c-1.453-.419-2.878-.686-3.311 2.084.056 5.547-5.114 4.02-5.687 1.726l1.188.199c1.453-.21 2.66-1.16 3.898-2.001.186-2.102-3.837-2.737-4.182-.646l-3.59-.55c-.476-.31-.625.405-.75 1.17l-.597-.086c.238-1.076-.088-1.242-.442-1.369-.964-.04-2.203-.967-2.548.9l-3.586-.55c-2.25-.234-1.886 1.17-3.59-.552.274-1.48 1.22-.906 1.942-1.004.032-1.755-1.356-1.293-2.231-1.657-.95.433.037 1.683-.47 3.842-2.767-.935-5.049-.354-7.34.159-2.124-1.333-3.06 1.12-4.951.534.498-2.134-.163-2.477-.866-2.733-1.71-2.308-4.62.368-1.356 1.087-.246 2.795-2.198.252-3.152.816-3.41 3.492-2.51-3.705-5.664-3.474l-.163 1.275c-.861 3.398 2.939-.477 2.077 2.907-3.437.447-9.267 2.506-10.767-1.676-1.001.412-1.01 3.94-2.72 2.188-.126.766-.275 1.5-.75 1.181-.796-.632-.824-1.693-1.797-.289l-4.187-.653c-1.118 1.83-3.2.646-4.946.527.405-1.704 1.625-.823 2.552-.906 1.085-3.745-1.043-2.467-2.068-2.922-1.635.834-3.418 1.167-5.537.426-1.724.629-.825-2.817-1.314-4.113.806 1.903 1.826 4.5 2.552-.896.76-.155.55-1.346.331-2.542l1.788.275c-1.555 2.759-.032 1.43.112 3.918-.954-.025-2.049-.495-2.11 2.275 1.798.91 2.39-1.965 4.336-.614 2.366-.376 7-2.943 8.104-1.336.657.238 1.164-1.705 1.202.188 2.514.895 1.685-5.999 2.594-6.089 1.965-1.004.698 2.997.545 5.283.964.892 3.711-1 3.427 1.838 1.914-.144 2.483 3.406 4.187.654.34-1.896.377-4.727 1.239-5.009 1.206-2.141 3.637-.484 4.233-4.546l.597.1 5.374.82c-1.253 2.879-1.556 2.185-1.393 6.299l1.188.184c1.034-2.709 3.32-1.51 4.233-4.547.122-1.437 1.118-1.849.322-2.55l.163-1.27c4.261-.993.582-.03 1.309 4.095.763 2.531 1.811-.282 3.148-.813-.154 1.282-.675 1.441-.922 2.46 1.858 1.021 3.069.072 3.902-2.001.513-.217 1.193.151 1.36-1.098-1.02-.448-3.153.834-2.067-2.91 2.067-.037 5.02 1.267 3.106 4.373l2.995.48c.228-1.64.978-1.661 1.066-3.741.755-.156.545-1.362.321-2.56l2.39.382c.777.827 3.274-1.011 2.836 1.733-.28 2.11-1.751.455-2.124 2.265l2.399.375c.582 1.762 2.002 1.986 2.985.47.922-.087 2.152.794 2.547-.914-.675-.303-1.723-.043-1.63-1.55 1.49-2.346 3.521-.284 4.779.734.195-1.762.633-2.745 1.07-3.734 2.185 1.636 3.82-2.282 4.78.74 1.424-1.246 1.443-1.18.442 1.372.82.174 1.392-.408 1.951-1.007-.149 1.278-.67 1.434-.913 2.46l1.798.266c.754.185.629 1.766 1.64 1.56.237-2.802.991-3.98 2.263-3.56l.153-1.279c3.675.134 2.804-2.96 6.888-1.556 1.682 2.048 1.961.607 4.183.65l.596.101c-1.742 6.143-4.36-1.022-5.999 4.269 1.616.368 1.467-1.947 2.39.368 2.696.054 6.608-2.376 7.619 2.47l2.249-3.557c-.051 1.813 1.141 1.658 1.49 2.81.443-1.557 1.09-2.478 2.105-2.258.368-1.809 1.24-2.011 1.658-3.65-.964-.929-2.934 3.354-2.994-.466 1.122-1.831 3.204-.65 4.936-.542-.47 3.467.685 2.716-.614 5.11.559 1.863 2.445 1.654 4.033 1.907.13-.777.28-1.492.75-1.174.363-1.802 1.252-2.022 1.667-3.651-1.448-5.453-2.636 4.608-4.657 3.196-.554-1.795-.196-4.825.773-6.392 1.453.433 2.096-1.719 3.302-2.084.018 1-.294 2.517.289 2.633 3.376.376 2.752-.755 6.133-.372l1.192.191c.862-4.051-1.946-2.08.019-5.2 2.245-.44 1.29 4.16 3.12 4.37 1.952 5.074 3.419.235 6.139-.372l1.192.173c-.098 1.513-.545 3.611.14 3.922.912-.087 2.151.787 2.538-.92-.326-.037-.55-1.135.158-1.272l1.202.173c.573-1.711 2.319.152 2.692-2.195l-2.99-.448c1.369-2.759 4.62.224 6.73-.282 1.834.401-2.45 4.706-.61 5.107 1.81.902 2.384-1.987 4.335-.65l.15-1.275c-1.598-4.749 2.286-.405 2.85-3.467 1.154-.134-.09-2.152.894-2.466.791.151.284 2.307.894 2.73 2.827-4.88 4.648 1.69 6.734-.275-.018 2.214.797-.155 1.789.267l.596.083c2.23 1.04 3.185-1.83 5.532-.473-.353 3.496-1.299 2.423-.605 5.114 1.71 1.744 1.69-1.791 2.692-2.203.088-1.513-.717-3.044.452-3.828l.591.094c.964.683-.307 1.629-.447 3.82.768.188.638 1.756 1.64 1.553 1.727 1.181 2.337-.989 3.748-.758l.145-1.264c-.96-2.488 3.209-3.98 5.244-3.12-.922.654-.675 4.893-1.807 4.933 1.472 2.336 2.687-.64 5.533-.484 1.797-.31 2.063-5.276 3.744-5.933-.144 2.427-1.006 2.708-1.197 5.02l.601.075c.591.087.587 1.145 1.034 1.46-.01-4.54 2.212-1.886 2.547-.918.191-4.055 1.924-3.38 2.995-4.745l.596.083c.773-.516 1.514-1.163 2.087-2.293.992 1.213 2.226 2.015 2.538 4.28.079-2.08.833-2.117 1.052-3.735 1.644.12.946 2.3 2.399.347-.014 1.05.442 1.361.284 2.643 1.611-1.426 1.094.332 3.148-.827l.15-1.285c.865-1.365 2.272-1.127 3.73-.744.684.3 1.099 2.48 1.797.267 2.939-1.91 6.073-4.814 8.816-2.593-.367 1.799-1.238 2-1.639 3.637.675.317 1.719.047 1.64 1.567.358.115.689.282.442 1.35-.49.214-1.174-.133-1.337 1.11 1.141-.557 2.557-.286 3.288-2.12-.349-.127-.684-.297-.437-1.362 1.09.448 1.471-1.242 2.524-.932.768.18.642 1.766 1.644 1.546.88-3.879.708-2.398.74-6.378.9-.184 1.258-1.964 2.091-2.293-.805 2.525-.4 8.006.75 3.998l1.197.18c1.346.983 4.522-.964 4.639 1.98-1.011.007-5.333-1.5-3.73.743l4.186.618c1.397.235 2.007-1.929 3.726-.744 1.253-1.849 2.51 1.932 3.884-2.037-.326-.043-.564-1.13.154-1.278.791.112.796-2.152 1.48-2.376l1.798.267c.56 1.849 2.622 2.156 3.586.53l-.293 2.554c.61 4.099 2.291-4.662 2.985.444-.493.213-1.173-.148-1.34 1.098.441.347.567 1.177.302 2.636 2.785-1.076 3.986-2.842 6.133-.408.243-.964.308-2.51.88-2.46-.325-1.198-.302-2.971-.009-5.192 1.998-.48 1.584 2.672 2.995.44 2.18 1.427 2.836-1.765 4.024-3.307 1.187.184.368 3.578 2.1 2.892 3.004 1.492 6.213-3.149 7.917-.148l1.202.177c2.72 1.354 4.266-.834 6.72-.31l.14-1.29.6.09 1.202.177c3.051 1.192 4.77-1.588 7.908-.148.443.35.573 1.178.313 2.64.828.065 1.243.795 1.648 1.539 2.501.191.22-.82.289-2.55.87.354 2.259-.14 2.25 1.629 1.154-.145-.103-2.163.889-2.467.754.174.643 1.748 1.644 1.528.126-.773.256-1.499.75-1.188.368-.026.726-.094.736-1.192l1.793.253c2.347-2.98 4.76.877 7.186 1.043l.284-2.553 1.197.17c-.15 4.691 3.12-2.55 2.84 1.708l.601.087c1.719 1.188 2.008-1.947 3.73-.759l1.188.167c.252-.965.676-1.409 1.351-1.102l7.172 1.037 1.202.17.6.09c.909-.09 2.152.769 2.53-.94.6.09.828-.927 1.34-1.104.671.303 1.724.025 1.65 1.538l.6.087c.494-5.403.908.159 1.793.263.326-1.888 1.584-.971 2.538-.928.592.065.592 1.127 1.048 1.43l1.188.184c-.051 2.893 2.892.943 4.047 1.89l.298-2.554.596.076c.913-5.533-1.537-2.98.256-7.75 1.57.607.461 5.536 1.672 6.731.457-3.167 2.073-.083 2.394.34.48.3.62-.423.745-1.188l2.38.34c.42-.33 2.669-2.854 2.413.342l2.985.43 1.192.163c1.942-1.438 2.995 1.263 5.99.848l1.192.188c.875.347 2.258-.148 2.249 1.618l-.424 3.842c1.677-.646 3.265-1.592 4.61-3.243.616.405.136 2.597.918 2.716 1.789-3.828-1.877-2.24-2.57-4.265.82-.96 1.797-1.44 3.134-.834l.6.083c1.342.607 2.32.13 3.13-.849l.606.076.596.094c1.616.35 1.439-1.954 2.39.336-.07 1.513.79 1.531 1.662 1.531.111-.766.247-1.484.73-1.18l1.193.162c1.579 1.3 1.751-1.568 3.144-.842l.582.09c.694-.04.745 1.98 1.201.167l.601.086c1.155-.624 2.068 4.088 2.995.423l2.394.336c1.383 1.603 3.278-3.474 3.595.505l.596.098c1.472-.96 2.809-1.22 3.582.502 1.84 1.043 2.119-2.142 2.994.426.755-.155.531-1.372.28-2.553 1.09-3.34 3.12.444 4.191.592l.606.083 1.197.177c.018 1.022.34 1.553 1.052 1.44 1.89.564 2.785-1.895 4.927-.599 2.562.766 3.07-3.39 4.932-.592l2.986.419c-.298 5.32-1.649-1.968-1.756 4.944.773.04 1.006-1.52 1.942-1.022-.387 2.83 1.956 6.514 2.566 4.254l.145-1.271-1.202-.163c-.335-1.206-.317-2.976-.037-5.204.954-1.646 2.738-.906 4.326-.679l1.807.246c1.49-2.383 1.1.737 2.24 1.621l-.27 2.56 1.193.174c.493-.227.82-.975.875-2.484 1.965 1.303 2.687-1.058 3.875-2.048-.382 1.708-1.118 2.322-1.164 5.016l1.802.27.6.08c1.38-2.065-.567-4.579 2.213-3.59-.904 1.806-1.048 3.143-.554 5.118 1.127-2.272 3.935.4 5.062-1.878l.14-1.278c-2.04.852-1.653-2.228-1.975-4.157 1.43-.213 2.273.524 2.855 1.694l.6.08.597.093 1.793.253c.699.278 1.104 2.46 1.798.253l6.585.931.6.08 2.99.426c.243-.975.667-1.42 1.342-1.109 1.122 3.196-.978 2.767-1.751 4.937.084.253.335.368.563.505h.191c.452-1.003 1.165-1.393 2.082-1.31.047.437.056.769.037 1.068.68-.436 1.314-1.09 1.593-2.22-.722-.246-1.383-.589-.922-2.727l5.985.849 3.595.49c.992.792-.41 1.34-.88 2.478l.596.083c.6 1.806 3.148.733 3.875-2.044.978.058 2.072.437 3.032.426 1.453-1.516 3.586-1.433 5.737-1.347l2.66-.043a7.236 7.236 0 0 0-.312 1.354c.572.57.964 1.557.712 2.575l.606.087 1.802.245c2.1-1.502-2.394-.88-1.383-4.077l1.802.25 1.784.245c1.644-1.296-.703-4.994 1.3-6.29-.02 4.499 2.495 7.637 5.271 7.446-.377-.589-.577-1.622-.53-3.29l2.118-.033.042 2.756c.317-.174.629-.325.927-.596 1.504 1.38-2.128 2.603-.554 5.106.694 1.174 1.583 1.333 2.529 1.022-.052-.206-.112-.397-.163-.621l1.062-.011.377-.01c1.364-.922 2.738-2.417 3.79-3.2l.602.08c1.09-1.843 3.19-.694 4.932-.6.6.086.596 1.144 1.052 1.444.894-.184 1.248-1.946 2.082-2.3 2.296.076 4.378-.535 6.26-1.708-.09 1.437-1.081 1.863-.262 2.556 2.6-1.422 1.584 3.037 3.307 3.056.112-.777.256-1.5.74-1.196.024.499.098.9.164 1.347.512-.162 1.094-.151 1.252-1.12.322.235.732.25 1.165.203.023-.733.042-1.578.084-2.636 1.033.238 1.9-.044 2.538-.95 1.22-.22 1.001 1.885 1.523 2.802l1.197.166c.852-.281 1.336-1.646 2.528-.938.294.476.997.75 1.863.88.387-.801.238-2.841 1.22-2.264.117.806.094 1.929.364 2.366 1.676-.058 3.516-.495 4.475-1.16l1.211.163c.424.35 1.174.213 1.053 1.445l.596.083c.68.303 1.108-.134 1.341-1.105 2.8.892 4.616-2.095 6.586.924l1.578.213c.75-.198 1.514-.664 2.948-.632.904-.105 1.616.26 2.105 1.206.312-.119.587-.357.704-1.058.163.535.354.838.545 1.058.405.101.82.235 1.164.184.023-.007.046-.007.065-.014.01 0 .019-.018.028-.025.107-.044.224-.112.335-.174.21-.198.345-.577.354-1.253l4.234-.047 1.052-.025c.638.195 1.519-.231 1.621 1.271l5.295-.068c-.116-1.044-.554-1.264-.577-2.557 2.184.094 4.345.21 5.812-1.35.256 1.574.713 2.625 1.625 2.545-.554-4.626 2.068-1.82 3.153-2.589l-.009-1.3c1.206.917 4.103-2.358 3.744 2.528v1.289c-1.299 1.09-2.817 1.708-4.745 1.34l-2.12.018c-1.266.794-3.865-1.571-4.219 1.347l-1.593.007c-1.928.827-3.022 1.04-4.508.686 2.287 1.044 1.714.953 4.178.578l.596.108c1.062.044 1.844.538 2.273 1.6l.596.08c.256-1.474 1.099-1.254 1.933-1.023l1.196.17c.722-.097 1.677.459 1.929-1.022-1.044.137-1.328-1.646.135-1.278l.605.076c1.216-.217 1.006 1.885 1.523 2.81.568-2.818 3.013-.102 4.331-.69l.14-1.268c1.001 3.705 1.9 1.058 4.657 1.946l.089.011c-.01-.151-.038-.26-.038-.44h1.058c1.467-1.564 3.646-1.463 5.807-1.358-.265.56-.605.971-.96 1.322l1.365.195 7.186 1c-.125 1.278-.642 1.455-.87 2.474l2.407.335c.429-2.625 2.655.018 3.26-2.127l.14-1.278.6.08c.155-5.053 2.204.967 4.332-.697 2.37-.506 2.44-1.106 4.797.682l.596.08 1.793.245c-.135 1.25-.833.9-1.327 1.116.149 1.174.284 2.362.922 2.72.94-1.124 1.239-4.204 2.347-4.843 3.186.967 2.906-3.233 5.533-.539.2-1.672 1.84-1.386 1.802.26l.592.083c.149.409.321.784.48 1.163h.563c.657-.076 1.379.018 2.063.018.019-1.043.07-2.137.177-3.326 1.043.058 1.826.542 2.25 1.618.88.784 3.125-.65 3.427 1.066.294-.022.569-.058.857-.116.233-.448.615-.477 1.039-.354.862-.34 1.695-.82 2.39-1.55 1.825-.57 2.97.485 4.246 1.247 1.3-1.95 3.205-2.492 5.296-2.579l.535-.01c1.598-.055 4.532-3.474 5.836-.019h.535c2.357-1.585 5.44-1.43 8.5-1.332l-.01-1.286c1.63.936 1.938-1.321 3.195-1.282-.018.401.02.629.042.932.564-.08 1.058.166 1.463 1.076.177-1.155.07-3.008 1.14-2.022h.55c.876 2.152 3.111 1.022 4.783 1.271h1.598c.424-.25.512-1.282 1.057-1.29.414.669.866 1.337 1.597 1.28h.522c.764.108 1.518.205 1.597-1.286 2.785-.29 5.324.014 7.457 1.274h1.588c2.142 1.792 1.681-2.784 3.195-2.564-.494 4.644 2.1 1.788 3.204 2.564h.521c2.022.603 3.312-.527 3.73-3.846 1.934 4.103 5.11-4.214 5.855 1.297.96.459 1.327-.491 1.872-1.03-.344-2.466.056-2.549.13-4.48-.86-2.576-2.389 2.841-3.05-.91 1.001.284 1.188-1.456 2.129-1.283l8.532.011c-.02.549.079.946.177 1.29l5.975.833c.796.831 3.26-1.047 2.855 1.716.642.411 1.29.527 1.928.505.563-.274 1.16-.484 1.849-.43.042.033.07.033.097.058.97-.238 1.794-.354 2.38.315 1.477-.56 3.13-1.922 4.993-1.63 6.422-1.288 10.507-.302 16.049-3.74l1.606.014c4.397.35 7.825-1.712 11.783-2.448l.028-2.575c-2.557-.325.871-3.572 1.141-5.132l-2.142-.01c-3.05-.95-4.806 1.321-7.512 1.21 3.549-5.248 8.611-2.854 12.37-5.024l1.075.01c1.388-3.361 3.768-.364 6.99-1.194-.106 1.04-.553 1.274-.577 2.56l-1.057-.018c-1.48.776-4.243-1.68-4.848 1.231l-1.616-.025c-2.566 2.369-.126 2.615-1.16 7.7l1.598.014 3.753.05.019-1.293 1.066.026c.625.205.96-.278 1.086-1.264l3.758.04 2.133.028c.107-1.506.987-1.087 1.62-1.26 1.263-.404 2.055-2.019 3.768-1.253l3.219.05c2.077-1.942 4.857-2.065 7.558-2.459l.066-3.85c2.02 3.518 5.458 1.918 7.465 2.684.312 3.485-2.51-.96-2.203 2.539l-1.057-.019-1.62-.028c-1.207-.376-2.022.274-2.19 2.553-.14 2.762 1.891.596 2.655 1.318h.54l1.602.036c.676-1.907 2.063-1.99 2.753-3.824.964-.268 2.664 1.354 2.203-2.535-.457.241-.499-.502-.508-1.297l1.607.04.018-1.282c.63.22.964-.275 1.109-1.268.521.04.377 1.582.48 2.575l2.151.036c-.508 4.428.168 6.147 2.04 5.186l.028-1.29 3.749.07c.624.227.96-.26 1.108-1.265-.088-4.26-3.06-2.076-4.773-2.661.968-2.466 2.831-2.708 4.876-2.474-.354 2.842.992 1.856.997 3.871l-.028 1.279c5.477-.513 10.297-2.716 16.17-2.225l1.606.033c2.562-3.34 3.992-1.203 6.562-3.698 7.224.7 11.07-3.98 18.056-7.255.02-2.831-2.296-.603-3.241-1.369-.07-1.863-1.593-.49-1.542-2.614l1.621.047c.89-.127 3.223 4.039 3.327-.792h1.503c.5.833.872 2.064 1.18 0h.855c.126.229.205.56.242.983l1.644.062c.07 1.036.508 1.285.457 2.582-.028 1.253.638 1.014 1.043 1.292l1.108.04c.671-.03 1.122-3.27 1.543-4.959h.817c-.045 5.175 2.091-1.475 2.642 2.547-.53.01-.48 1.553-.643 2.539.387 1.166.475 2.917.359 5.146l4.27.137c-.349 1.9-.912 3.217-1.257 5.099l-.526-.015c-.196 2.792.284 4.1 1.444 3.9.437 1.015 1.14 1.42 2.067 1.351.503.863.424 2.98 1.481 2.629.639 4.272 1.388-2.629 2.678-1.203l-.046 1.286c1.164.971 1.444 3.904 1.881 6.479l-.05 1.282c-1.389 2.098 1.89 7.233-1.827 6.363l-.535-.011c.014 1.444-.83 1.99-.084 2.574-.154 1-.498 1.477-1.104 1.254l-.046 1.282c-.163 2.148-.051 3.965.214 5.467.373.296.657.621.768.892a5.197 5.197 0 0 1-.186 1.202c.969 2.438 2.57 3.153 4.136 1.586-.019 3.225-.96 4.005-1.765 5.088-.196 2.777 1.849.635 2.59 1.372-.01 1.29-.187 2.156-.43 2.831h-.009l.01.008c-.159.43-.336.805-.531 1.115 1.243-.357 2.454-.357 2.91 2.492.871-1.05 1.933-1.52 3.074-1.708-1.863-.01-3.907-1.166-5.453-1.9v-.007c1.41.083-.47-4.257 1.336-5.28.717 4.114 2.045 1.312 3.638 1.095-.159-.191-.257-.495-.205-1.094 2.864-.376 5.062.628 7.284 1.607a7.12 7.12 0 0 1-.983 1.047c.815.53 1.704.892 2.724.433-1.038 2.015-2.882 1.604-4.028 3.315-.023-1.007.26-2.524-.312-2.636-.755 2.11-1.84 3.052-3.05 3.348 3.665-.098 7.968 2.325 10.515 1.112l1.22.047c.741.177 1.426.462 1.216 2.64 1.202.43 1.202-1.69 1.816-2.5l1.207.044c.903-.253 1.797-.372 2.678-.502-.108-.462-.168-1.022.009-1.946 1.951-1.065 3.823-1.29 5.682-1.195-.48-.513-.755-1.304-.513-2.42l3.642.159c.275 1.275-.102 2.08-.675 2.52 2.161.322 4.313.759 6.548.474-1.118 2.13-.88 2.842.918 2.726a10.536 10.536 0 0 1-.648 2.297c.731.144 1.388.451 1.775 1.325l1.21.047c.573-4.225 1.197 1.473 1.822 1.361.07-8.23 4.06-.296 6.045-3.593 1.052-2.567-.457-2.535.596-5.106 5.388.386 11.238-.188 15.77 1.99.027.726.008 1.235-.052 1.603.69.062 1.397.174 2.119.365-.247.957-.303 2.524-.89 2.466l-.153 1.275c0 .022-.01.03-.01.054 1.92.358 4.187.376 6.567.387-1.21-.412-2.491-.86-4.019-1.362-.713-.437-.293-2.629.312-2.553 3.32-.314 8.173.177 11.988 1.416-.545-1.214-.885-2.85-2.525-1.78 1.109-2.828 2.585-.578 4.239.234.218-.415.563-.632.992-.303.167.068.279.249.335.487.168-.036.335-.036.508-.14 2.319-.127.218 1.061.605 3.878.475.31 1.197.094 1.216 1.343.577.275 1.294.231 2.044.148-.428-.95-1.458-.935-1.406-2.64 2.505-4.33 3.567-2.737 6.142-.404 1.337.96 2.576 2.373 3.307-2.105l1.192.18 1.807.257 1.03.159c.484-.127 1.02-.127 1.583-.076.782-.81 2.054-.123 2.035-3.286l4.196.62c1.51-.317 1.034 2.51 2.855 1.705l1.807.271.447-3.824c.415-.137.722-.127 1.002-.047a18.284 18.284 0 0 1-1.37-1.3c-.95.072-.465 3.243-1.816 2.484-.396-3.867-1.295 1.167-2.426-.112-.405-1.332-1.397-1.397-1.211-3.918 4.788-3.275 9.673-.794 14.558-1.892-.87 2.217-.563 2.903 1.211 2.625-.27 4.724-2.3 5.515-4.55 4.821-.098.242-.195.47-.293.7l-.154 1.268 4.215.622c.433-1.788.964-2.044.433-3.818 1.49-1.274 2.846-2.94 5.114-1.856 1.863-3.87 2.352 3.124 4.648 1.994 1.462-.184 2.487-1.676 4.363-.647.191 1.076.378 2.16.14 3.918a.714.714 0 0 0 .363.076l.13.011c.397-.054.685-.466.862-1.188 9.613 3.911 14.55-8.754 21.764-3.24-1.104 1.842-2.66 2.323-4.509 1.918.108 2.943 3.312 1 4.658 1.997.396.156.754.174 1.127.253 1.42-1.795 4.261-1.564 6.329-.31.168-.008.321-.047.503-.047.01-1.409-1.09-1.037-.89-2.734-1.965-1.329-2.538 1.56-4.363.65l.279-2.34c-3.39-.282-5.826-1.03-9.845-1.918-.764-.36-.606-2.585.009-2.567 3.8-.74 9.86-.686 13.953.657-.829-.155-.62-3.304.615-2.531.708.241.666 2.054.596 3.878v2.56c-.731.022-1.407.033-2.05.047.625.546 1.319.943 2.162.47 1.811-2.062 6.496 2.918 11.554.447 1.337.607 2.329.145 3.163-.826 2.556 1.383 5.3 1.238 7.59 1.549.653-.791 1.286-1.506 1.85-1.81v2.25c.824.304 1.527.788 2.072 1.61 1.407-.454 2.431-1.043 3.32-.378.862-1.141 2.022-1.03 3.363-.52 1.328-1.607 2.473-3.532 1.574-6.302-1.993-.043-3.027 2.019-5.462 1.019l-3.042-.152c-1.248 2.878-5.42-.629-6.669 2.246l-3.041-.144c-4.657-2.254-7.927 1.422-11.527-.553-.484-1.13-1.662-.841-1.82-2.658 1.997-4.546 3.236-3.066 6.072-.996 1.44.834 2.827 2.105 3.046-2.424l1.202.062 1.825.086 2.427.12c.577-1.344 2.245-.304 1.835-3.767l4.243.206c1.467-.451 1.318 2.398 3.04 1.434l1.817.083.01-3.85c1.858-.834 2.212 1.42 3.646 1.466.144-2.257 1.053-2.87 2.44-2.452.01 1.78-.312 2.81-.638 3.832v1.278l4.262.202c.242-1.82.73-2.134 0-3.842 1.336-1.416 2.496-3.2 4.867-2.344 1.43-4.04 2.696 2.875 4.857 1.528 1.434-.329 2.287-1.91 4.261-1.065.303 1.047.624 2.109.583 3.885.703.235 1.09-.23 1.234-1.231 9.994 2.94 13.464-10.14 21.274-5.36-.89 1.94-2.38 2.576-4.27 2.352.446 2.921 3.404.66 4.852 1.53 3.19.933 5.226-.693 7.908-.88-.144-1.398-1.21-.932-1.197-2.64-2.11-1.123-2.352 1.81-4.275 1.076l.023-2.568c1.29-3.77 3.19 1.875 5.472.271 1.575-2.22 6.81 2.265 11.546-.675 1.406.47 2.338-.097 3.05-1.134 5.729 2.373 11.564-2.145 13.32 5.803l.615.036c1.285-3.856 4.135 3.28 5.472-.993-.438-2.921-3.404-.675-4.848-1.545 1.29-6.598 7.759 1.719 12.17-1.921l9.118.494c2.901-.007 5.49.65 7.265 2.95-1.043-.393-3.856 2.691-1.239 2.5 1.691 4.236 4.14-.878 3.675-2.384 7.936-2.123 12.915-.715 20.674-1.44.964.992-.205 6.272 1.77 5.236.153-.99.041-2.535.637-2.535.908-.177 2.24.581 2.44-1.145 2.017-1.524 7.154 1.47 10.927.596l1.22.068 10.339.574 1.206.065 11.55.643 1.206.072 7.303.427 1.21.065c11.271-1.492 19.333.888 28.629-3.485.833.95 6.86-4.038 7.894 1.74 5.318-4.24 22.159-7.034 27.99-.88l-.042 2.56c1.187.671-.638 5.532-1.327 6.348l3.05.188c.126-2.799 1.574-2.662 3.07-2.387.744.195 1.429.473 1.168 2.643.815 2.127 1.653 4.171 2.32 6.562-2.758-.9-3.517 2.748-3.778 7.493 2.003-2.936 5.85-5.586 7.275.433-1.039 3.857-4.122 3.12-4.396 8.725 1.848 1.08 1.224-3.452 3.083-2.383 1.867-.816 1.732 2.325 3.614 1.502 2.477 8.844-4.136 17.565-8.234 20.071-.438 1.708-1.342 2.315-2.483 2.416-1.16.487-1.145 3.622-3.069 2.394-2.594 3.453-6.045 4.987-9.79 5.836-2.43 2.495-5.313 3.947-8.54 4.619-3.363 1.935-6.525 3.206-9.678 4.196 3.18 4.496 4.415 10.927 4.415 18.547.335 1.882-.638 6.872-1.817 10.501 1.705-.122 3.32.2 3.6 2.218 5.873-2.803 23.459-3.868 29.024.935l-.228 1.892c1.178.538-1.066 4.012-1.83 4.583l3.13.303c.34-2.054 1.82-1.874 3.357-1.592.755.18 1.449.415 1.034 2.008.67 1.603 1.407 3.145 1.942 4.94-2.808-.802-3.847 1.82-4.47 5.305 1.914-1.703 5.1-3.19 6.757-1.087v2.919c-1.186 1.188-2.82 1.509-3.765 3.159H6.243z" id="Paintbrush-Top" fill="#222"/>
  </g>
</svg>
