<?xml version="1.0" encoding="UTF-8"?>
<svg width="538px" height="24px" viewBox="0 0 538 24" version="1.1" xmlns="http://www.w3.org/2000/svg" xmlns:xlink="http://www.w3.org/1999/xlink">
    <!-- Generator: Sketch 51.3 (57544) - http://www.bohemiancoding.com/sketch -->
    <title>Fill 9</title>
    <desc>Created with Sketch.</desc>
    <defs></defs>
    <g id="Page-1" stroke="none" stroke-width="1" fill="none" fill-rule="evenodd">
        <g id="Home---Destkop" transform="translate(-451.000000, -1005.000000)" fill="#5B5B5B">
            <g id="Description" transform="translate(274.000000, 869.000000)">
                <path d="M418.599549,149.942442 C418.560969,150.016442 418.519575,150.088442 418.47778,150.162442 C418.982541,150.187442 419.492929,150.215442 420.006532,150.245442 C420.015373,150.203442 420.030243,150.164442 420.041898,150.122442 C419.561249,150.061442 419.083413,150.004442 418.599549,149.942442 Z M602.454936,136.965442 C603.548051,137.525442 604.65724,137.185442 605.774467,137.209442 C605.774467,137.130442 605.774467,137.048442 605.774467,136.965442 C604.673315,136.965442 603.560107,136.965442 602.454936,136.965442 Z M291.883093,145.645442 C294.583728,146.494442 296.875249,145.594442 299.181238,145.645442 C296.943569,145.645442 294.702685,145.645442 291.883093,145.645442 Z M647.662445,137.655442 C646.902891,137.723442 645.849965,137.461442 645.657062,138.201442 C647.803103,138.298442 649.969237,138.410442 652.139391,138.486442 C656.965972,138.654442 661.80461,138.808442 666.643248,138.951442 C670.32849,139.061442 674.017751,139.118442 677.690936,139.249442 C682.288446,139.405442 686.869881,139.617442 691.459353,139.794442 C692.681069,139.839442 693.955029,139.946442 695.140576,139.842442 C696.744078,139.705442 698.21496,140.459442 699.806406,139.946442 C701.104479,140.459442 702.720038,140.398442 704.219051,140.522442 C706.694633,140.726442 709.186291,140.882442 711.66991,141.067442 C712.212449,141.108442 712.750968,141.177442 713.261356,141.274442 C714.450922,141.502442 714.7242,141.754442 714.217831,142.345442 C713.623048,143.040442 712.859476,143.697442 712.204411,144.382442 C711.404669,145.223442 710.090521,145.898442 709.15414,146.688442 C708.434775,147.288442 707.389886,147.465442 706.20032,147.465442 C700.855313,147.473442 695.518344,147.470442 690.169318,147.419442 C685.467319,147.379442 680.773358,147.288442 676.079396,147.187442 C670.509336,147.072442 664.955351,146.908442 659.397348,146.791442 C656.889615,146.737442 654.369826,146.756442 651.858074,146.722442 C648.341622,146.671442 644.829189,146.597442 641.308718,146.546442 C638.969775,146.516442 636.622794,146.522442 634.283851,146.485442 C630.590572,146.425442 626.909349,146.330442 623.228126,146.270442 C617.433013,146.176442 611.649956,146.116442 605.858862,146.011442 C601.558744,145.928442 597.270681,145.771442 592.970563,145.691442 C589.060268,145.619442 585.158011,145.619442 581.243697,145.565442 C578.354179,145.522442 575.46466,145.430442 572.567103,145.394442 C569.127008,145.348442 565.694951,145.345442 562.255258,145.299442 C557.969205,145.245442 553.689181,145.142442 549.412371,145.105442 C545.126318,145.069442 540.846294,145.099442 536.563054,145.069442 C533.185653,145.040442 529.813878,144.940442 526.448131,144.917442 C521.10232,144.874442 515.762939,144.886442 510.423558,144.847442 C507.838262,144.828442 505.258593,144.737442 502.679727,144.691442 C502.130357,144.680442 501.584202,144.715442 501.035234,144.715442 C499.396768,144.712442 497.761517,144.682442 496.125865,144.695442 C494.41064,144.710442 492.694611,144.791442 490.976171,144.786442 C487.551348,144.776442 484.134964,144.688442 480.724608,144.700442 C477.165959,144.710442 473.612935,144.802442 470.063529,144.859442 C469.905992,144.859442 469.757698,144.877442 469.597348,144.877442 C465.539965,144.865442 461.476554,144.847442 457.422386,144.843442 C455.846212,144.843442 454.276066,144.879442 452.699891,144.901442 C448.081484,144.974442 443.471917,145.051442 438.853912,145.114442 C432.920552,145.193442 426.981164,145.218442 421.045393,145.342442 C415.236616,145.467442 409.425427,145.516442 403.619463,145.750442 C398.550146,145.956442 393.445061,145.944442 388.357659,146.051442 C385.929901,146.102442 383.502142,146.205442 381.076795,146.275442 C377.342926,146.379442 373.597402,146.458442 369.863533,146.576442 C365.242312,146.725442 360.629932,146.908442 356.017553,147.068442 C349.389744,147.298442 342.75028,147.485442 336.12207,147.759442 C330.972778,147.969442 325.846796,148.298442 320.697102,148.537442 C318.186155,148.653442 315.651496,148.647442 313.137333,148.768442 C310.02678,148.917442 306.931097,149.167442 303.823759,149.328442 C300.306101,149.511442 296.783219,149.632442 293.269178,149.799442 C288.033482,150.045442 282.800599,150.267442 277.582586,150.577442 C272.685274,150.863442 267.811672,151.256442 262.926416,151.593442 C258.566015,151.891442 254.212045,152.167442 249.860887,152.474442 C246.848393,152.690442 243.835497,152.938442 240.831844,153.183442 C240.638942,153.195442 240.490648,153.317442 240.315428,153.390442 C239.567529,153.308442 238.85821,153.283442 238.350636,153.828442 C239.261698,153.787442 240.196873,154.061442 240.265193,153.363442 C243.444066,153.636442 244.461626,153.581442 247.581423,153.010442 C247.848673,152.959442 248.183841,153.000442 248.492485,152.994442 C251.65046,152.955442 254.752172,152.711442 257.954755,153.259442 C259.756385,153.569442 262.000082,153.344442 264.009885,153.214442 C266.313061,153.061442 268.553945,152.694442 270.857121,152.530442 C272.76565,152.393442 274.715573,152.407442 276.645,152.367442 C277.327392,152.351442 278.006972,152.447442 278.318831,151.946442 C278.410862,151.797442 279.405113,151.741442 279.992662,151.730442 C282.569116,151.672442 285.184151,151.274442 287.697912,152.176442 C287.929395,151.793442 288.027454,151.620442 288.205487,151.310442 C291.025079,151.246442 293.945944,151.179442 296.866408,151.119442 C297.240156,151.110442 297.854631,151.073442 297.96756,151.164442 C299.344803,152.375442 301.514555,151.481442 302.787711,151.727442 C303.479347,151.390442 303.847469,151.046442 304.289538,151.022442 C306.848309,150.875442 309.427175,150.809442 312.157951,150.920442 C311.816353,151.057442 311.472343,151.198442 310.890823,151.428442 C313.407397,151.428442 315.69289,151.428442 317.981598,151.428442 C317.993252,151.390442 318.01415,151.347442 318.037861,151.307442 C317.414143,151.256442 316.796855,151.210442 316.182782,151.162442 C316.170725,151.084442 316.155856,151.009442 316.149827,150.933442 C317.749713,150.802442 319.346785,150.672442 321.228388,150.516442 C320.910903,150.863442 320.768637,151.022442 320.587389,151.222442 C321.391551,151.222442 322.15432,151.222442 323.086682,151.222442 C322.673951,151.025442 322.379775,150.887442 322.065505,150.739442 C322.282118,150.668442 322.403486,150.599442 322.528471,150.596442 C328.553861,150.482442 334.584878,150.362442 340.610268,150.267442 C346.391717,150.179442 352.179597,150.122442 357.964261,150.045442 C358.967756,150.033442 360.030327,149.902442 360.59738,150.526442 C360.689009,150.633442 361.244005,150.754442 361.374616,150.710442 C362.455272,150.366442 363.473235,150.802442 364.518124,150.724442 C365.957659,150.614442 367.40925,150.532442 369.077053,150.426442 C369.091923,150.366442 369.145373,150.164442 369.192795,149.970442 C372.668255,149.689442 374.577186,149.768442 375.48222,150.091442 C376.598242,150.004442 377.37588,149.847442 378.088012,149.902442 C379.245829,149.992442 380.613829,149.805442 381.501583,150.450442 C381.62295,150.544442 382.952772,150.440442 383.092225,150.289442 C383.685802,149.619442 384.713008,149.825442 385.659436,149.871442 C386.568087,149.917442 387.467495,150.024442 388.375342,150.073442 C389.034426,150.107442 389.773484,150.243442 390.239665,149.802442 C390.316826,149.722442 391.162382,149.726442 391.39708,149.836442 C392.774323,150.470442 392.693947,150.404442 394.436098,150.146442 C396.220446,149.879442 398.119732,149.681442 399.98084,149.665442 C404.845198,149.618442 409.715987,149.705442 414.58356,149.702442 C420.041898,149.696442 425.506263,149.623442 430.973442,149.635442 C436.221194,149.645442 441.474573,149.726442 446.727951,149.772442 C449.785456,149.796442 452.857027,149.787442 455.920158,149.824442 C459.529444,149.863442 463.132702,149.954442 466.733148,149.988442 C472.850167,150.043442 478.964775,150.055442 485.081794,150.108442 C487.642976,150.130442 490.210589,150.225442 492.772174,150.255442 C495.716349,150.285442 498.658112,150.253442 501.602287,150.298442 C504.098365,150.335442 506.594443,150.462442 509.099362,150.508442 C514.89327,150.618442 520.698832,150.694442 526.495552,150.796442 C527.810505,150.821442 529.12827,150.920442 530.454876,150.930442 C531.181878,150.936442 531.921337,150.827442 532.90072,150.748442 C532.55028,150.465442 532.375462,150.322442 532.205869,150.182442 C532.333667,150.158442 532.473119,150.108442 532.600917,150.116442 C538.154098,150.267442 543.710494,150.404442 549.263675,150.602442 C550.124503,150.633442 551.287946,150.827442 551.697462,151.144442 C552.291039,151.604442 553.038938,151.645442 553.846718,151.668442 C556.722573,151.751442 559.607671,151.793442 562.489554,151.864442 C563.282062,151.879442 563.958828,151.805442 564.715569,151.347442 C563.171947,151.267442 561.961082,151.207442 560.759058,151.144442 C560.767899,151.095442 560.767899,151.049442 560.767899,151.001442 C563.362036,151.067442 565.962201,151.188442 568.556338,151.188442 C571.015845,151.188442 573.475352,151.518442 575.950935,151.001442 C576.718526,150.839442 577.944261,150.867442 579.017281,151.267442 C579.89338,151.599442 581.392393,151.528442 582.630184,151.603442 C584.249762,151.694442 585.885414,151.773442 587.521067,151.813442 C588.192207,151.831442 588.923629,151.793442 589.542524,151.672442 C590.66377,151.459442 591.640339,151.246442 592.649059,151.833442 C592.962525,152.009442 593.923019,152.068442 594.409294,151.967442 C596.925064,151.450442 599.509154,151.682442 602.053056,151.702442 C603.732916,151.718442 605.404737,151.900442 607.080578,151.912442 C611.380697,151.946442 615.672778,151.924442 620.097479,151.924442 C618.260886,154.898442 614.418911,157.178442 611.46911,159.835442 C609.411483,159.750442 607.394045,159.665442 605.388662,159.586442 C602.901024,159.492442 600.409366,159.410442 597.917709,159.309442 C593.239823,159.109442 588.565955,158.863442 583.884051,158.695442 C579.278503,158.531442 574.660899,158.452442 570.063389,158.312442 C564.807599,158.151442 559.554221,157.965442 554.303656,157.786442 C550.952376,157.674442 547.595471,157.515442 544.232939,157.440442 C538.142444,157.303442 532.04592,157.224442 525.946584,157.106442 C518.377572,156.956442 510.797306,156.798442 503.228696,156.633442 C498.455966,156.527442 493.700919,156.373442 488.937433,156.294442 C484.102412,156.217442 479.258147,156.221442 474.420313,156.160442 C468.226133,156.075442 462.025522,155.928442 455.825314,155.870442 C451.625264,155.831442 447.425615,155.932442 443.216723,155.914442 C438.927858,155.894442 434.627337,155.770442 430.326415,155.762442 C422.864704,155.748442 415.396966,155.794442 407.926414,155.807442 C407.01495,155.810442 406.103887,155.752442 405.192825,155.752442 C400.506097,155.752442 395.822585,155.737442 391.141886,155.778442 C387.66321,155.810442 384.193376,155.944442 380.715103,155.984442 C377.334084,156.019442 373.956683,155.977442 370.576066,156.011442 C363.206387,156.080442 355.833492,156.178442 348.463812,156.268442 C342.97252,156.335442 337.484846,156.378442 331.999582,156.495442 C324.709876,156.646442 317.426601,156.881442 310.136493,157.035442 C302.775655,157.197442 295.412003,157.284442 288.04795,157.442442 C282.213051,157.567442 276.383376,157.749442 270.542448,157.905442 C265.541451,158.036442 260.530808,158.169442 255.523782,158.288442 C250.834241,158.403442 246.144701,158.500442 241.457974,158.602442 C233.69646,158.763442 225.934947,158.911442 218.173434,159.082442 C213.00003,159.194442 207.826626,159.392442 202.650408,159.443442 C196.637074,159.501442 190.620927,159.483442 184.640145,159.018442 C181.94795,158.808442 181.342316,158.112442 182.787879,156.938442 C183.280584,156.542442 183.538993,156.062442 184.111673,155.703442 C184.660641,155.360442 185.40854,155.026442 186.213104,154.861442 C187.412315,154.615442 188.73008,154.511442 190.00605,154.366442 C191.974058,154.130442 193.950907,153.909442 195.927756,153.696442 C200.795329,153.168442 205.64522,152.596442 210.533691,152.137442 C216.119424,151.615442 221.74414,151.200442 227.350771,150.730442 C231.636824,150.371442 235.893138,149.930442 240.199687,149.653442 C244.218489,149.394442 248.293555,149.343442 252.3216,149.127442 C254.078621,149.032442 255.776163,148.725442 257.521529,148.576442 C259.376206,148.416442 261.24937,148.331442 263.110477,148.197442 C264.267892,148.115442 265.404409,147.981442 266.559011,147.917442 C269.65791,147.737442 272.750378,147.588442 275.849277,147.428442 C276.243923,147.410442 276.680365,147.436442 277.018748,147.361442 C280.565743,146.579442 284.367932,146.399442 288.137167,146.132442 C288.428128,146.114442 288.701407,146.051442 289.333565,145.956442 C288.784194,145.814442 288.540655,145.691442 288.279835,145.688442 C286.139822,145.665442 283.981725,145.642442 281.841713,145.656442 C275.169697,145.691442 268.500495,145.762442 261.825264,145.791442 C255.381516,145.822442 248.934554,145.850442 242.485179,145.819442 C237.068236,145.795442 231.648479,145.688442 226.228722,145.631442 C223.557424,145.600442 220.880098,145.642442 218.212015,145.579442 C212.492455,145.436442 206.767269,145.297442 201.062177,145.059442 C194.422714,144.786442 187.803746,144.400442 181.37527,143.478442 C179.837676,143.260442 178.436722,142.802442 177,142.460442 C177.145481,142.001442 177.216613,141.694442 177.35044,141.392442 C177.896193,140.197442 178.721655,139.940442 181.125703,140.140442 C185.459177,140.498442 189.78381,140.872442 194.131753,141.164442 C195.716768,141.274442 197.376132,141.128442 199.002541,141.159442 C200.64382,141.186442 202.285501,141.314442 203.923565,141.349442 C204.464094,141.360442 205.389624,141.581442 205.422578,140.979442 C205.422578,140.940442 205.957079,140.872442 206.232769,140.882442 C207.874048,140.927442 209.512513,140.986442 211.148166,141.062442 C211.412201,141.070442 211.720845,141.159442 211.910935,141.255442 C213.151539,141.894442 213.297019,141.912442 215.006618,141.414442 C214.267158,141.414442 213.531316,141.414442 212.795473,141.414442 C212.78623,141.314442 212.783417,141.219442 212.780603,141.119442 C213.578738,141.116442 214.398171,141.092442 215.193492,141.113442 C218.393263,141.191442 221.592631,141.337442 224.795215,141.365442 C228.790306,141.395442 232.788211,141.337442 236.792144,141.320442 C237.738974,141.310442 238.68299,141.310442 239.626605,141.296442 C242.357382,141.250442 245.096999,141.134442 247.833402,141.159442 C250.688761,141.186442 253.549746,141.344442 256.405507,141.451442 C256.640205,141.456442 256.907054,141.529442 257.079058,141.490442 C260.130535,140.769442 263.552545,141.395442 266.651042,140.833442 C267.013136,140.766442 267.532767,140.960442 267.984079,140.967442 C269.533327,140.979442 271.153708,141.100442 272.631824,140.930442 C275.092536,140.643442 277.541193,140.512442 280.02843,140.596442 C282.18934,140.669442 284.430224,140.295442 286.507945,140.872442 C289.090025,140.116442 292.224289,141.174442 294.764976,140.246442 C295.002487,140.162442 295.364581,140.131442 295.673225,140.128442 C298.688935,140.107442 301.719112,140.100442 304.749691,140.073442 C305.835973,140.061442 306.92547,139.986442 308.014566,139.963442 C308.762465,139.952442 309.507551,139.835442 310.220084,140.192442 C310.507831,140.331442 311.374284,140.215442 311.968263,140.174442 C313.897289,140.037442 315.820687,139.827442 317.755741,139.745442 C319.530444,139.666442 321.335288,139.720442 323.116019,139.711442 C323.899686,139.705442 324.543498,139.687442 325.173244,139.311442 C325.998305,138.818442 328.108578,138.842442 329.242282,139.194442 C330.628367,139.626442 331.996769,139.978442 333.756603,139.681442 C334.534643,139.548442 335.478258,139.632442 336.33587,139.647442 C340.912884,139.738442 345.433233,139.376442 349.989349,139.289442 C350.398865,139.280442 350.805568,139.055442 351.247636,138.915442 C353.037209,139.666442 355.364497,138.966442 357.507725,139.277442 C357.187024,139.100442 356.863109,138.921442 356.531156,138.735442 C357.643962,138.066442 358.317915,139.136442 359.305737,138.894442 C361.030607,139.492442 362.953604,139.246442 364.80587,139.192442 C365.794093,139.163442 367.079708,139.143442 367.67007,138.842442 C368.331967,138.505442 369.002705,138.532442 369.700369,138.426442 C370.902393,138.243442 371.950095,138.276442 372.861157,138.812442 C373.137249,138.966442 373.807987,138.951442 374.303907,139.016442 C374.407593,138.939442 374.526549,138.860442 374.639477,138.781442 C374.345301,138.723442 374.03947,138.663442 373.558822,138.566442 C374.621393,138.161442 375.829445,138.109442 376.538763,138.340442 C378.726198,139.055442 381.192537,138.659442 383.338577,139.012442 C383.884732,138.693442 384.229144,138.313442 384.754401,138.234442 C385.161104,138.177442 385.861581,138.449442 386.309678,138.642442 C387.250479,139.036442 388.206151,139.055442 389.390492,138.954442 C391.159568,138.812442 392.976067,138.812442 394.76564,138.738442 C395.683132,138.703442 396.597008,138.643442 397.547053,138.392442 C397.107396,138.307442 396.674571,138.222442 396.104705,138.112442 C397.490388,138.055442 398.778816,137.972442 400.070057,137.966442 C400.45546,137.966442 400.829611,138.194442 401.2335,138.289442 C401.663914,138.392442 402.177115,138.552442 402.571762,138.507442 C402.901303,138.472442 403.109076,138.170442 403.527835,137.872442 C404.13588,137.872442 405.142188,137.872442 406.26705,137.872442 C406.26705,138.070442 406.26705,138.276442 406.26705,138.525442 C407.697744,138.525442 409.077801,138.525442 410.642321,138.525442 C410.900328,137.969442 411.553383,137.713442 412.898074,137.759442 C415.373255,137.848442 417.872548,137.784442 420.62382,137.784442 C420.335672,137.933442 420.128302,138.039442 419.926558,138.146442 C419.970765,138.192442 420.009345,138.240442 420.051141,138.289442 C420.861331,138.115442 421.674737,137.945442 422.484928,137.772442 C422.529134,137.804442 422.57093,137.838442 422.60951,137.872442 C422.384056,137.975442 422.152573,138.079442 421.915061,138.185442 C423.594921,138.429442 423.612603,138.426442 424.32795,137.655442 C425.096747,137.458442 425.957173,138.532442 426.693417,137.626442 C426.711502,137.606442 426.987192,137.620442 427.10012,137.652442 C428.269592,138.036442 429.157345,138.185442 430.620189,137.674442 C431.596758,137.331442 433.460679,137.547442 434.909055,137.629442 C435.871156,137.681442 436.787845,137.937442 437.888997,138.131442 C438.025636,137.911442 438.129723,137.747442 438.290074,137.504442 C439.586941,137.747442 441.002765,137.383442 442.385635,137.909442 C443.074458,138.170442 444.463356,137.957442 445.537984,137.963442 C448.007136,137.975442 450.473877,138.002442 452.946244,137.985442 C453.492399,137.978442 454.038555,137.789442 454.581495,137.689442 C456.133958,137.413442 457.573493,136.912442 459.253353,137.717442 C459.835275,137.996442 461.265969,138.103442 462.126394,137.486442 C462.749711,137.044442 463.72628,137.090442 464.687979,137.272442 C467.009239,137.717442 469.448652,137.830442 471.918206,137.830442 C472.283114,137.830442 472.713527,137.772442 472.983993,137.659442 C473.526933,137.434442 473.874559,137.285442 474.468137,137.667442 C474.61643,137.765442 475.592999,137.611442 476.12107,137.492442 C477.756723,137.123442 483.425645,136.850442 484.942341,137.103442 C485.640005,137.221442 486.313557,137.215442 486.735129,137.055442 C488.590208,138.024442 490.970545,137.307442 493.107342,137.495442 C493.247196,137.507442 493.419201,137.201442 493.677208,137.118442 C494.894503,136.735442 496.16766,136.872442 497.607195,137.498442 C497.862389,137.339442 498.0999,137.048442 498.375992,137.036442 C500.236698,136.953442 502.106646,136.919442 503.970567,136.902442 C504.579014,136.895442 505.520217,136.723442 505.448682,137.343442 C505.443056,137.379442 505.659669,137.456442 505.778224,137.458442 C507.004361,137.509442 508.220852,137.606442 509.443774,137.589442 C511.851036,137.552442 514.263925,137.449442 516.674001,137.391442 C517.134154,137.379442 517.600335,137.456442 518.066114,137.486442 C519.446171,137.583442 519.446171,137.577442 521.556444,136.935442 C521.794357,136.866442 522.164891,136.884442 522.470722,136.884442 C524.895667,136.878442 527.332267,136.878442 529.775297,136.975442 C528.890759,137.042442 527.994566,137.103442 527.106812,137.169442 C529.68608,137.842442 532.416856,136.999442 534.975225,137.667442 C535.004965,137.559442 535.043545,137.449442 535.079312,137.339442 C534.476492,137.227442 533.87126,137.112442 533.277683,136.999442 C555.906354,136.938442 578.531006,137.123442 601.172939,137.355442 C601.209108,137.264442 601.241258,137.173442 601.285465,137.082442 C600.79919,136.895442 600.304877,136.708442 599.818602,136.522442 L599.770376,136.544442 C600.992092,136.492442 602.217827,136.422442 603.443562,136.391442 C604.191059,136.373442 604.886312,136.479442 605.49717,136.051442 C605.690072,135.912442 607.554797,136.085442 607.603022,136.212442 C607.791906,136.743442 608.527347,136.571442 609.037735,136.583442 C611.392753,136.629442 613.743752,136.622442 616.086714,136.665442 C616.890475,136.681442 617.694235,136.784442 618.461826,136.999442 C615.411555,136.999442 612.365303,136.999442 609.319051,136.999442 C610.789933,137.650442 612.570262,137.389442 614.197877,137.492442 C615.982225,137.605442 617.802743,137.586442 619.603166,137.600442 C621.371439,137.617442 623.143731,137.605442 625.004437,137.532442 C623.51748,137.358442 622.034542,137.185442 620.543566,137.009442 C620.539547,136.969442 620.539547,136.933442 620.535528,136.893442 C622.838302,136.893442 625.12902,136.893442 627.431793,136.893442 C627.528245,136.555442 627.592545,136.309442 627.664884,136.075442 C627.869843,136.044442 628.050689,135.987442 628.143121,136.011442 C629.015202,136.243442 630.401688,136.112442 630.56244,136.872442 C630.574497,136.941442 631.056753,137.036442 631.330032,137.039442 C633.009891,137.055442 634.689751,137.048442 636.924205,137.048442 C636.032031,136.884442 635.642207,136.815442 635.264439,136.743442 C636.003899,136.704442 636.779528,136.391442 637.358235,136.957442 C637.756097,137.363442 638.644252,137.272442 639.448013,137.278442 C642.056215,137.297442 644.664418,137.358442 647.27664,137.422442 C647.401223,137.425442 647.505711,137.589442 647.622257,137.681442 L647.662445,137.655442 Z" id="Fill-9"></path>
            </g>
        </g>
    </g>
</svg>